<?xml version="1.0" encoding="utf-8"?>
<!-- Generator: Adobe Illustrator 27.2.0, SVG Export Plug-In . SVG Version: 6.00 Build 0)  -->
<svg version="1.1" id="Artwork" xmlns="http://www.w3.org/2000/svg" xmlns:xlink="http://www.w3.org/1999/xlink" x="0px" y="0px"
	 viewBox="0 0 261.5 365.7" style="enable-background:new 0 0 261.5 365.7;" xml:space="preserve">
<style type="text/css">
	.st0{fill:#0DFFFA;}
	.st1{fill:#FFFFFF;}
	.st2{fill:url(#SVGID_1_);}
	.st3{fill:url(#SVGID_00000168115400280517205170000006600156756517526200_);}
	.st4{fill:url(#SVGID_00000151536378646680815150000002738865724334504873_);}
	.st5{fill:#01C4FD;}
	.st6{fill:url(#SVGID_00000013913018605281156400000008201845439001560966_);}
	.st7{fill:#0220D0;}
</style>
<g>
	<path class="st0" d="M130.8,0C44.9,0,0,32.8,0,32.8v300.1c0,0,45.4,32.8,130.8,32.8s130.8-32.8,130.8-32.8V32.8
		C261.5,32.8,216.6,0,130.8,0L130.8,0z"/>
	<path class="st1" d="M130.8,6c43.2,0,75.4,8.6,94.9,15.8c15.4,5.7,25.5,11.5,29.8,14.2v293.7c-4.4,2.7-14.5,8.5-30,14.2
		c-19.5,7.2-51.9,15.8-94.8,15.8s-75.2-8.6-94.8-15.8c-15.5-5.7-25.6-11.5-30-14.2V36c4.4-2.7,14.4-8.5,29.8-14.2
		C55.3,14.6,87.6,6,130.8,6"/>
</g>
<g>
	
		<linearGradient id="SVGID_1_" gradientUnits="userSpaceOnUse" x1="207.6555" y1="296.3986" x2="81.6689" y2="337.5238" gradientTransform="matrix(1 0 0 1 0 -249.9634)">
		<stop  offset="0" style="stop-color:#16F8F7"/>
		<stop  offset="1" style="stop-color:#1902E7"/>
	</linearGradient>
	<path class="st2" d="M48.5,79.8c10.4,6.2,28.7,11,49.2,15.2c7.4-14,19.1-23.1,32.2-23.1c13.5,0,25.5,9.6,32.9,24.3h58V50.4
		c0,0-32.5-20.5-92.7-20.5C80,30,55.1,39.6,43,54.2C35.6,63.7,37.6,73.2,48.5,79.8z"/>
	
		<linearGradient id="SVGID_00000013187431978877704710000017952985619934901922_" gradientUnits="userSpaceOnUse" x1="40.6834" y1="470.9085" x2="166.6701" y2="420.6444" gradientTransform="matrix(1 0 0 1 0 -249.9634)">
		<stop  offset="0" style="stop-color:#16F8F7"/>
		<stop  offset="1" style="stop-color:#1902E7"/>
	</linearGradient>
	<path style="fill:url(#SVGID_00000013187431978877704710000017952985619934901922_);" d="M215.3,200.4c0-14.2-20.4-27.4-51.3-36.8
		c-7.3,16.2-19.8,26.9-34.1,26.9c-15.3,0-28.7-12.3-35.6-30.5H36.9v52.4c0,0,30.1,20.5,92.7,20.5c38.4,0,62.9-7.1,78-18.2
		c0,0,0.1-0.1,0.1-0.1C214.3,209.4,215.3,203.6,215.3,200.4z"/>
	
		<linearGradient id="SVGID_00000060737979974869812910000008383237315781799870_" gradientUnits="userSpaceOnUse" x1="221.7777" y1="435.6534" x2="174.7775" y2="378.2087" gradientTransform="matrix(1 0 0 1 0 -249.9634)">
		<stop  offset="0" style="stop-color:#16F8F7"/>
		<stop  offset="1" style="stop-color:#1902E7"/>
	</linearGradient>
	<path style="fill:url(#SVGID_00000060737979974869812910000008383237315781799870_);" d="M228.9,168.3c0-38-22.1-51.1-61.1-58.9
		c1.9,7.1,2.9,14.5,2.8,21.8c0.1,11.1-2.2,22.2-6.6,32.4c30.8,9.4,51.3,22.6,51.3,36.8c0,3.2-1,9-7.6,14c0,0-0.1,0.1-0.1,0.1
		C223.6,202.6,228.9,186,228.9,168.3z"/>
	<path class="st5" d="M167.8,109.4c-4.5-1-67.3-13.8-70.1-14.4c-5.7,11.2-8.6,23.6-8.5,36.2c0,5,0.4,10,1.3,14.9
		c6.5,1.5,65.7,15.7,73.5,17.5c4.5-10.2,6.7-21.3,6.6-32.4C170.7,123.8,169.7,116.5,167.8,109.4z M143,141.4h-26v-4.3h26V141.4z
		 M143,133.3h-26V129h26V133.3z M143,125.2h-26v-4.3h26V125.2z"/>
	
		<linearGradient id="SVGID_00000101783760530149992410000002445555270334236851_" gradientUnits="userSpaceOnUse" x1="50.6118" y1="334.2987" x2="94.3482" y2="386.5212" gradientTransform="matrix(1 0 0 1 0 -249.9634)">
		<stop  offset="0" style="stop-color:#16F8F7"/>
		<stop  offset="1" style="stop-color:#1902E7"/>
	</linearGradient>
	<path style="fill:url(#SVGID_00000101783760530149992410000002445555270334236851_);" d="M90.5,146c-0.9-4.9-1.3-9.9-1.3-14.9
		c-0.1-12.6,2.8-25,8.5-36.2c-20.5-4.2-38.8-8.9-49.2-15.2C37.6,73.2,35.6,63.7,43,54.2c-7.9,9.5-10.4,21.2-10.4,33.7
		C32.6,132.7,74,142,90.5,146z"/>
</g>
<g>
	<path class="st7" d="M89,283.6l-13.4,0l-11.4,38.9l11.4,0l1.2-5.2l11.2,0l1.2,5.2l11.4,0L89,283.6z M78.9,307.9l3.5-14.7l3.5,14.6
		L78.9,307.9z"/>
	<path class="st7" d="M123,307.8l9.1,3.8c-1.7,5-5.5,11.5-14.8,11.5c-10.8,0-17.7-8.2-17.7-20.1c0-12,6.9-20.2,17.6-20.2
		c9.1,0,12.9,6,14.8,11.1l-9.2,3.9c-0.8-3-2.7-5.2-5.6-5.2c-4.1,0-6.4,4.3-6.4,10.4c0,6.1,2.4,10.4,6.4,10.4
		C120.3,313.4,122.3,310.9,123,307.8"/>
	
		<rect x="135.1" y="283.5" transform="matrix(1 -1.862266e-03 1.862266e-03 1 -0.5639 0.2624)" class="st7" width="11" height="38.9"/>
	<polygon class="st7" points="161.5,292.8 161.5,298 174.6,297.9 174.6,307.3 161.5,307.4 161.6,322.4 150.5,322.4 150.4,283.4 
		175,283.4 175,292.8 	"/>
	
		<rect x="178.8" y="283.4" transform="matrix(1 -1.862266e-03 1.862266e-03 1 -0.5637 0.3438)" class="st7" width="11" height="38.9"/>
	<path class="st7" d="M217,307.7l9.1,3.8c-1.7,5-5.5,11.5-14.8,11.5c-10.8,0-17.7-8.2-17.7-20.1c0-12,6.9-20.2,17.6-20.2
		c9.1,0,12.9,6,14.8,11.1l-9.2,3.9c-0.8-3-2.7-5.2-5.6-5.2c-4.1,0-6.4,4.3-6.4,10.4c0,6.1,2.4,10.4,6.4,10.4
		C214.3,313.2,216.3,310.7,217,307.7"/>
	<polygon class="st7" points="226,253.5 219.6,266 219.6,274.3 213.7,274.3 213.7,266 207.2,253.6 213.7,253.6 216.6,260.6 
		219.6,253.6 	"/>
	<path class="st7" d="M203.3,263.6c2-0.5,3.4-2.2,3.4-4.8c0-2.5-1.7-5.3-5.8-5.3l-10.3,0l0,20.7l10.7,0c4.1,0,5.8-2.7,5.8-5.6
		C207.1,266,205.5,263.9,203.3,263.6 M196.5,258.4l2.9,0c0.8,0,1.3,0.6,1.3,1.5c0,0.9-0.5,1.6-1.3,1.6l-2.9,0L196.5,258.4z
		 M199.6,269.5l-3.1,0l0-3.3l3.1,0c0.9,0,1.5,0.8,1.5,1.7C201.1,268.8,200.6,269.5,199.6,269.5"/>
	<path class="st7" d="M188,262.3l0,8.8c-2,2.2-4.4,3.6-7.9,3.6c-5.7,0-9.5-4.2-9.5-10.7c0-6.5,3.8-10.7,9.5-10.7
		c4.1,0,6.5,2.5,7.6,5.4l-4.8,2.2c-0.4-1.3-1.4-2.4-2.8-2.4c-2,0-3.5,1.7-3.5,5.5c0,3.8,1.5,5.5,3.5,5.5c1,0,1.9-0.3,2.5-0.8l0-1.5
		l-3,0l0-5C179.6,262.3,188,262.3,188,262.3z"/>
	<path class="st7" d="M168.2,253.6l0,13.1c0,5-3.2,8-8.4,8c-5.2,0-8.5-2.9-8.5-7.9l0-13.1l5.9,0l0,13.2c0,1.7,0.8,2.8,2.5,2.8
		c1.7,0,2.5-1.1,2.5-2.8l0-13.2L168.2,253.6z"/>
	<path class="st7" d="M145.9,266.6c1.4-0.8,3.1-2.6,3.1-6c0-3.8-2.7-6.9-7-6.9l-9.1,0l0,20.7l5.9,0l0-6.7l1.5,0l2.4,6.8l6.5,0
		L145.9,266.6z M141.1,262.6l-2.3,0l0-3.9l2.3,0c1.1,0,1.9,0.7,1.9,1.9C143,261.9,142.2,262.6,141.1,262.6"/>
	<path class="st7" d="M120.5,266.6c1.4-0.8,3.1-2.6,3.1-6c0-3.8-2.7-6.9-7-6.9l-9.1,0l0,20.7l5.9,0l0-6.7l1.5,0l2.4,6.8l6.5,0
		L120.5,266.6z M115.7,262.7l-2.3,0l0-3.9l2.3,0c1.1,0,1.9,0.7,1.9,1.9C117.6,261.9,116.7,262.7,115.7,262.7"/>
	<polygon class="st7" points="97.6,258.8 97.7,261.5 104.6,261.5 104.7,266.5 97.7,266.5 97.7,269.5 104.9,269.5 104.9,274.5 
		91.8,274.5 91.8,253.8 104.9,253.7 104.9,258.8 	"/>
	<path class="st7" d="M82.7,253.8l-9,0l0,20.7l5.9,0l0-6.8l3.1,0c4.8,0,7.1-3.2,7.1-6.9C89.8,257,87.4,253.8,82.7,253.8 M82,262.7
		l-2.4,0l0-3.9l2.4,0c1.1,0,1.9,0.7,1.9,1.9C83.8,262,83.1,262.7,82,262.7"/>
	<path class="st7" d="M70.9,253.8l0,13.1c0,5-3.2,8-8.4,8c-5.2,0-8.5-2.9-8.5-7.9l0-13.1l5.9,0l0,13.2c0,1.7,0.8,2.8,2.5,2.8
		c1.7,0,2.5-1.1,2.5-2.8l0-13.2L70.9,253.8z"/>
	<path class="st7" d="M51.7,268c0,4.2-3,6.9-7.8,6.9c-3.6,0-6.1-1-7.9-2.7l2.7-4.5c1.2,1.3,3.1,2.2,5.1,2.2c1.1,0,1.9-0.5,1.9-1.3
		c0-0.9-0.9-1.4-2.6-1.9c-2.7-0.9-6.6-1.9-6.6-6.6c0-3.4,2.6-6.6,7.7-6.6c2.7,0,5.2,0.8,7,2.4l-2.7,4.4c-1.4-1.2-3.1-1.7-4.4-1.7
		c-1.3,0-1.7,0.6-1.7,1.2c0,0.9,0.9,1.3,2.6,1.9C47.9,262.5,51.6,263.7,51.7,268"/>
	<path class="st7" d="M53.7,283.6l-16.9,0l0.1,38.9l11,0l0-12.7l5.8,0c8.9,0,13.4-6,13.3-13C67.1,289.7,62.7,283.6,53.7,283.6
		 M52.4,300.4l-4.5,0l0-7.4l4.5,0c2,0,3.5,1.4,3.5,3.7C55.9,299,54.5,300.4,52.4,300.4"/>
</g>
</svg>
