<?xml version="1.0" encoding="utf-8"?>
<!-- Generator: Adobe Illustrator 22.0.1, SVG Export Plug-In . SVG Version: 6.00 Build 0)  -->
<svg version="1.1" id="Layer_1" xmlns="http://www.w3.org/2000/svg" xmlns:xlink="http://www.w3.org/1999/xlink" x="0px" y="0px"
	 viewBox="0 0 386.9 79.5" style="enable-background:new 0 0 386.9 79.5;" xml:space="preserve">
<style type="text/css">
	.st0{fill:#023C81;}
	.st1{fill:#BBBDC0;}
	.st2{fill:#FCFCFD;}
	.st3{fill:#FEFEFF;}
	.st4{fill:#006CB7;}
	.st5{fill:#7FBFE9;}
</style>
<g>
	<path class="st0" d="M160,71.7c-3.3,1.2-6.8,1.7-10.3,2c-2.7,0.2-5.5,0.1-8.2,0.1c-18.7,0-37.4,0-56.2,0c-1.1,0-2.1,0.4-3.1,0.7
		c-6.2,1.8-12.4,3.3-18.8,4.2c-2.4,0.3-4.8,0.6-7.2,0.7c-0.1,0-0.2,0-0.3,0.1c-4.2,0-8.4,0-12.6,0c-0.1-0.1-0.2-0.1-0.3-0.1
		c-4-0.3-8-0.8-11.9-1.7c-5.1-1.1-10.1-2.6-14.8-5c-4.3-2.3-8-5.3-11.1-9.1c-0.1-0.1-0.4-0.3-0.3-0.5c0.3,0.1,0.4,0.4,0.6,0.6
		c3.3,3.4,7.1,6.2,11.4,8.1c8.1,3.5,16.7,5.1,25.5,5.7c3.4,0.2,6.8,0.2,10.2,0c3.7-0.2,7.3-0.5,11-1.1c7.5-1.2,14.8-3,22-5.5
		c8-2.8,15.5-6.3,22.4-11.2c5.8-4.2,10.8-9.2,14.2-15.6c2.7-5.2,4.6-10.6,4.4-16.5c-0.1-3.1-0.8-6.1-2.3-8.9c-0.8-1.6-2-2.9-3.1-4.3
		c0.2,0,0.5,0,0.7,0c15.7,0,31.4,0,47,0c2.3,0,4.6,0,6.8,0.2c1.8,0.2,3.6,0.5,5.3,1.3c1.6,0.7,2.7,1.8,2.9,3.6
		c0.2,1,0.1,2.1-0.1,3.1c-0.7,3.1-2.3,5.9-3.9,8.6c-1.2,2-2.6,3.8-4.4,5.4c-2.7,2.4-6,3.6-9.5,4.1c-0.4,0.1-0.5,0.2-0.6,0.6
		c1.3,0.1,2.5,0.3,3.7,0.7c2,0.8,2.9,2.1,2.8,4.2c0,0.7-0.2,1.5-0.4,2.2c-1.7,4.8-4.2,9.2-7.6,13c-2.8,3.1-6.4,5.1-10.5,6.1
		c-2.7,0.6-5.4,0.9-8.1,1c-5.3,0.1-10.6,0-15.9,0c-0.2,0-0.3,0.1-0.5-0.1c0.1-0.2,0.2-0.4,0.3-0.6c2.1-3.5,4.1-7.1,6.1-10.6
		c0.2-0.4,0.5-0.5,0.9-0.5c3.4,0,6.9,0.1,10.3-0.1c4.4-0.3,8.2-3.7,8.9-8.1c0.2-1-0.2-1.6-1.2-2c-0.8-0.3-1.6-0.4-2.4-0.4
		c-5.1,0-10.3,0-15.4,0c-0.4,0-0.5,0.2-0.6,0.5c-3.8,7.1-7.5,14.3-11.3,21.4c-0.2,0.4-0.4,0.5-0.9,0.5c-8.5,0-17,0-25.5,0
		c-0.2,0-0.5,0-0.7,0.1c-1.6,0.7-3.1,1.4-4.7,2.1c-1.3,0.5-2.5,1-3.8,1.4c0,0,0,0.1,0,0.1c0.2,0,0.5,0,0.7,0c17.4,0,34.9,0,52.3,0
		c3.1,0,6.3-0.1,9.4-0.5c3.3-0.4,6.5-1.2,9.5-2.8c0.1-0.1,0.2-0.2,0.4,0C161,69.8,160.7,70.8,160,71.7z M149.4,36
		C149.4,36,149.4,35.9,149.4,36c2.4,0,4.9,0,7.3-0.1c1.9-0.1,3.7-0.4,5.1-1.8c1.6-1.6,2.7-3.5,3.3-5.7c0.3-1-0.1-1.6-1-1.9
		c-0.8-0.3-1.6-0.3-2.5-0.3c-4.9,0-9.7,0-14.6,0c-0.4,0-0.6,0.1-0.8,0.5c-1.5,2.9-3.1,5.9-4.6,8.8c-0.2,0.5-0.1,0.5,0.3,0.5
		C144.4,36,146.9,36,149.4,36z"/>
	<path class="st1" d="M121.3,14.4c1.1,1.4,2.2,2.8,3.1,4.3c1.5,2.8,2.2,5.7,2.3,8.9c0.2,6-1.6,11.3-4.4,16.5
		c-3.4,6.4-8.4,11.4-14.2,15.6c-6.9,4.9-14.4,8.5-22.4,11.2c-7.2,2.5-14.5,4.3-22,5.5c-3.6,0.6-7.3,0.9-11,1.1
		c-3.4,0.2-6.8,0.2-10.2,0c-8.8-0.6-17.3-2.2-25.5-5.7C12.7,69.8,9,67,5.6,63.7c-0.2-0.2-0.4-0.5-0.6-0.6l0,0C5,63,5,63,4.9,63l0,0
		c0-0.1,0-0.1-0.1-0.1l0,0c0-0.1-0.1-0.1-0.2-0.1c-0.4-0.5-0.7-1-1.1-1.6c-1.3-1.8-2.2-3.8-2.9-5.9c-0.3-1-0.4-2.1-0.7-3.1
		c0-1.7,0-3.4,0-5c0.2-0.5,0.2-1.1,0.3-1.6c0.5-2.6,1.3-5.1,1.9-7.7c0.5-2.5,1.4-4.9,2.8-7.1c2.1-3.2,4.7-6,7.6-8.6
		c2.8-2.5,5.8-4.8,9-6.7c3.5-2.1,7.1-3.9,10.9-5.6c3.6-1.6,7.2-3.2,10.9-4.5c4.5-1.6,9.2-2.6,13.9-3.4c4-0.7,8.1-1.3,12.2-1.7
		c0.1,0,0.3,0,0.3-0.2c0.1,0,0.2,0,0.2,0c0.3,0.2,0.6,0.1,0.9,0c3.7,0,7.4,0,11.1,0c0.6,0.2,1.2,0.2,1.8,0c0.1,0,0.2,0,0.4,0
		c0,0.4,0.3,0.2,0.5,0.2c5.2,0.3,10.4,0.9,15.4,2.2c5.4,1.5,10.5,3.4,15.2,6.6c0.6,0.4,1.3,0.9,1.9,1.4c0.3,0.3,0.6,0.4,1.1,0.4
		c17.9,0,35.8,0,53.7,0c3.2,0,6.4,0.1,9.5,1c2.7,0.8,5,2,6.4,4.6c0.1,0.2,0.2,0.4,0.3,0.6c0.1,0.2,0.1,0.4,0.4,0.7
		c0.2-0.3,0.4-0.6,0.5-0.9c0.9-1.7,1.8-3.5,2.7-5.2c0.2-0.4,0.4-0.5,0.8-0.5c7.7,0,15.3,0,23,0c0.6,0,0.6,0,0.3,0.6
		c-0.2,0.3-0.3,0.6-0.5,0.9c-1.2,2.3-2.4,4.6-3.6,6.9c-5.4,10.2-10.7,20.4-16.1,30.6c-0.5,0.9-0.9,1.8-1.4,2.8c0.8,0,1.6,0,2.3,0
		c4.3,0,8.7,0,13,0c0.4,0,0.6-0.1,0.7-0.5c3.3-7.2,7.2-14,10.9-21.1c1.5-3,3.1-6,4.7-9c1.9-3.6,3.8-7.3,5.7-10.9
		c0.1-0.2,0.3-0.4,0.6-0.4c7.9,0,15.7,0,23.6,0c0,0,0.1,0,0.2,0c-0.2,0.5-0.4,1-0.6,1.5c-0.2,0.1-0.2,0.3-0.3,0.5
		c-0.7,1.4-1.5,2.8-2.2,4.2c-5.3,10.1-10.6,20.2-15.9,30.3c-0.8,1.6-1.6,3.1-2.5,4.7c-0.1,0.1-0.4,0.5,0,0.5c0.7,0,1.4,0.2,2,0
		c0.1,0,0.1,0.1,0.2,0.1c1.9,0.1,3.9,0,5.8-0.1c2.2-0.2,3.6-1.5,4.6-3.3c1.5-2.9,3.1-5.7,4.6-8.6c3.4-6.4,6.7-12.9,10.1-19.3
		c1.7-3.3,3.5-6.6,5.2-10c0.2-0.5,0.5-0.5,1-0.5c19.1,0,38.3,0,57.4,0c5.1,0,10.1,0,15.2,0c0.2,0,0.3,0,0.6,0c0,0.3-0.3,0.4-0.4,0.6
		c0,0,0,0-0.1,0.1c0,0,0,0,0.1-0.1c1.1-0.1,2.1-0.4,3.2-0.5c1.5-0.2,3-0.4,4.5-0.5c5.2-0.4,10.4-0.3,15.6-0.2
		c4.1,0.1,8.3,0,12.4,0.1c3.1,0.1,6.2,0,9.3,0.1c0.1,0,0.3,0,0.5,0c-0.3,0.6-1,1-1.3,1.5c-0.2,0.2-0.4,0.3-0.6,0.5
		c-4,4-8,8.1-12.1,12.1c-1.2,1.2-2.5,2.5-3.8,3.6c-0.8,0.6-1.6,1-2.6,1c-2.1,0-4.1,0-6.2,0.1c-3.7,0.1-7.5-0.1-11.2,0.1
		c-1.1,0.1-2.3,0.2-3.4,0.6c-0.5,0.2-1,0.5-1.3,1c-0.1,0.1-0.2,0.3,0.1,0.3c1.1,0,2.1,0.3,3.2,0.1c0.3,0.2,0.6,0.2,0.9,0.2
		c2.3,0.2,4.6,0.3,7,0.5c3.2,0.3,6.5,0.7,9.6,1.8c2,0.7,3.6,1.8,4.9,3.5c0,0.1,0,0.2,0.1,0.1l0,0c-0.1,0.2,0.1,0.4,0.2,0.5
		c0.3,0.6,0.6,1.3,0.8,2c0.5,2.2,0.1,4.4-0.6,6.5c-1.8,5.2-4.2,10-7,14.7c-3,4.9-7.5,7.9-13.1,9.3c-4.4,1.1-8.9,1.5-13.4,1.6
		c-2.9,0.1-5.8,0-8.8,0c-3.3-0.1-6.6-0.1-9.9-0.1c-14.1,0-28.3,0-42.4,0.1c-5.7,0-11.5,0.1-17.2,0.1c-0.6,0-1.2,0-1.8,0
		c-0.5,0-0.5-0.1-0.3-0.5c0.3-0.5,0.5-1,0.8-1.6c0.1-0.2,0.2-0.3,0.2-0.5l0,0c0-0.1,0.1-0.1,0.1-0.2c0.8-1.2,1.4-2.5,2-3.8
		c-0.2,0.1-0.3,0.2-0.5,0.3c-1.9,1.3-3.8,2.5-5.9,3.4c-5.4,2.3-11.1,3-16.9,3.2c-4.2,0.1-8.4,0.1-12.6-0.2c-3.2-0.3-6.4-0.7-9.3-2.1
		c-0.3-0.1-0.4-0.1-0.6,0.2c-0.2,0.4-0.5,0.8-0.7,1.3c-0.2,0.5-0.5,0.6-1.1,0.6c-16.1,0-32.3,0-48.4,0c-0.3,0-0.5-0.1-0.8,0.1
		c-0.5-0.3-1-0.1-1.5-0.1c-0.4,0-0.8,0-0.4-0.6c0-0.1,0-0.1,0-0.2c0.7-0.8,1-1.9,1.6-2.8c-0.2-0.1-0.3,0-0.4,0
		c-3,1.6-6.2,2.4-9.5,2.8c-3.1,0.4-6.3,0.5-9.4,0.5c-17.4,0-34.9,0-52.3,0c-0.2,0-0.5,0-0.7,0c0,0,0-0.1,0-0.1
		c1.3-0.5,2.5-1,3.8-1.4c0.3,0,0.7,0,1,0c12.8,0,25.6,0,38.3,0c5,0,10.1,0.1,15.1-0.1c2.2-0.1,4.3-0.4,6.5-0.8
		c3.5-0.8,6.8-2.2,9.6-4.5c0.6-0.5,1.2-1,1.8-1.5c0.1,0.3-0.1,0.4-0.2,0.6c-1.1,2.1-2.1,4.1-3.2,6.2c-0.2,0.3-0.1,0.5,0.3,0.4
		c0.1,0,0.2,0,0.3,0c15.8,0,31.6,0,47.4,0c0.1,0,0.2,0,0.3,0c0.3,0,0.5-0.1,0.6-0.4c0.4-0.7,0.8-1.3,1.2-2c0.1-0.2,0.2-0.4,0.5-0.2
		c2,1.3,4.2,1.9,6.5,2.3c3.4,0.6,6.9,0.6,10.4,0.7c1.4,0,2.8,0,4.1-0.1c1.6-0.1,3.2-0.1,4.8-0.2c3.2-0.3,6.4-0.8,9.6-1.7
		c5.4-1.6,10.1-4.4,13.8-8.7c0.5-0.6,0.9-1.2,1.5-1.6c0,0,0,0,0.1,0c-0.1,0.2-0.2,0.4-0.3,0.6c-1.8,3.5-3.5,7-5.3,10.6
		c-0.1,0.2-0.3,0.3-0.2,0.6c0.2,0,0.4,0,0.6,0c3.8,0,7.7,0,11.5-0.1c6.5-0.1,12.9-0.1,19.4-0.1c11.6-0.1,23.2-0.1,34.9,0
		c5.4,0.1,10.8,0.2,16.3-0.2c3.2-0.2,6.3-0.7,9.4-1.6c4-1.2,7.4-3.4,10-6.7c2.1-2.7,3.6-5.8,5.1-8.9c1.2-2.5,2.5-5.1,3.2-7.8
		c0.4-1.6,0.7-3.3,0.3-5c-0.6-2.5-2.2-4-4.4-4.9c-3-1.2-6.2-1.6-9.4-1.9c-1.6-0.1-3.2-0.2-4.8-0.4c-1.7-0.1-3.4-0.2-5.1-0.4
		c-1.2-0.1-2.4-0.1-3.6-0.3c-0.4-0.1-0.4-0.2-0.3-0.4c0.3-0.6,0.6-1.2,0.9-1.8c0.6-1,1.5-1.6,2.6-1.9c1.3-0.4,2.6-0.5,3.9-0.6
		c2.7-0.1,5.5-0.1,8.2-0.1c2.7,0,5.3,0,8,0c0.9,0,1.8,0,2.5-0.6c0.3-0.3,0.6-0.5,0.9-0.8c2.2-2,4.2-4.1,6.3-6.1
		c1.9-1.9,3.8-3.7,5.7-5.5c0.8-0.7,1.5-1.4,2.1-2.2c0.1-0.1,0.2-0.3,0.2-0.4c-0.1-0.2-0.3-0.1-0.4-0.1c-1.9,0-3.8-0.1-5.7-0.1
		c-2.8-0.1-5.7,0-8.5-0.1c-3.1-0.1-6.1,0-9.2-0.1c-1.5-0.1-3.1,0-4.6,0c-2.7,0.1-5.5,0.2-8.2,0.5c-3,0.3-5.9,1-8.7,2.1
		c-0.7,0.3-1.4,0.7-2.2,0.9l0,0c0.8-0.9,1.7-1.8,2.6-2.7c-0.3,0-0.6,0-0.8,0c-22.7,0-45.3,0-68,0c-0.6,0-0.9,0.2-1.1,0.7
		c-1.2,2.4-2.5,4.8-3.8,7.3C259.8,27,256.4,33.5,253,40c-1.7,3.2-3.3,6.4-5,9.6c-0.7,1.3-1.5,2.5-2.6,3.5c-1.4,1.1-3.1,1.4-4.8,1.4
		c-2,0.1-4,0-6,0c-0.8,0-1.5-0.1-2.3-0.2c-0.7-0.1-0.7-0.2-0.5-0.9c0.2-0.6,0.4-1.2,0.7-1.7c1.2-2.2,2.3-4.4,3.5-6.6
		c2.4-4.7,4.9-9.3,7.3-14c3.1-5.9,6.2-11.8,9.3-17.7c0.1-0.2,0.2-0.4,0.2-0.6c-0.1,0-0.2,0-0.3,0c-6.6,0-13.3,0-19.9,0
		c-0.4,0-0.6,0.2-0.8,0.5c-1.8,3.5-3.7,7-5.5,10.5c-3.1,5.9-6.2,11.9-9.3,17.8c-2.1,4.1-4.5,8.1-6.2,12.4c-0.2,0.4-0.3,0.5-0.7,0.5
		c-6,0-12.1,0-18.1,0c-0.5,0-0.6-0.1-0.3-0.5c0.8-1.5,1.6-3,2.4-4.5c2.3-4.3,4.5-8.6,6.8-12.9c4.1-7.7,8.1-15.4,12.2-23.1
		c0.3-0.6,0.3-0.6-0.4-0.6c-6.5,0-13.1,0-19.6,0c-0.4,0-0.6,0.1-0.8,0.5c-1.7,3.3-3.4,6.5-5.1,9.8c-0.1,0.2-0.1,0.3-0.3,0.4l0,0
		c0-0.5,0.1-1,0.2-1.5c0.2-1.7,0-3.4-0.9-4.9c-1-1.8-2.7-2.8-4.5-3.4c-2.9-1-5.8-1.2-8.8-1.2c-17.6,0-35.1,0-52.7,0
		c-0.2,0-0.3-0.1-0.6,0.2C119.9,13.1,120.6,13.8,121.3,14.4z M47.8,76.2c3.4,0,6.5-0.2,9.6-0.5c3.5-0.3,6.9-0.8,10.3-1.5
		c5.9-1.1,11.7-2.7,17.4-4.6c5.9-2,11.5-4.5,16.9-7.7c4.8-2.8,9.2-6.1,13.1-10.2c3.5-3.7,6.1-7.9,8-12.7c1.8-4.4,2.6-8.9,2-13.6
		c-0.3-2.1-0.9-4.1-1.9-6c-1.3-2.4-3.1-4.4-5.1-6.3c-2.5-2.4-5.4-4.2-8.4-5.7C103.6,4.7,97.1,3,90.4,2.2c-3-0.3-6-0.6-9.1-0.7
		c-2.7-0.1-5.5-0.2-8.2-0.1c-2.3,0.1-4.7,0.4-7,0.7C62.8,2.6,59.4,3.1,56,3.7c-4.4,0.9-8.8,1.8-13,3.4c-7,2.6-13.7,5.6-20.2,9.4
		C16.9,20,11.7,24.4,7.4,30c-1.5,2-2.8,4.1-3.3,6.6c-0.5,2.2-1,4.3-1.6,6.5c-0.8,2.9-1.2,5.8-0.9,8.8c0.3,2.6,1.1,5.1,2.4,7.3
		c1.2,2,2.7,3.6,4.4,5.1c3.2,3,6.9,5.3,10.9,6.9c6.2,2.5,12.6,3.8,19.2,4.5C41.7,76.1,44.9,76.2,47.8,76.2z"/>
	<path class="st0" d="M257.6,72.5c5.7,0,11.5-0.1,17.2-0.1c14.1-0.1,28.3-0.1,42.4-0.1c3.3,0,6.6,0,9.9,0.1c2.9,0.1,5.8,0.1,8.8,0
		c4.5-0.1,9-0.5,13.4-1.6c5.6-1.4,10-4.4,13.1-9.3c2.9-4.6,5.3-9.5,7-14.7c0.7-2.1,1.1-4.3,0.6-6.5c-0.2-0.7-0.4-1.4-0.8-2
		c-0.1-0.2-0.3-0.3-0.2-0.5c1.5,1.2,2.3,2.8,2.6,4.6c0.4,2.1,0,4.2-0.7,6.1c-1.9,5.4-4.4,10.6-7.5,15.4c-3.1,4.6-7.5,7.3-12.8,8.6
		c-3.6,0.9-7.2,1.2-10.8,1.4c-4.8,0.2-9.5,0.1-14.3,0c-4.7-0.1-9.4-0.1-14.1-0.1c-6.5,0-13,0-19.5,0c-5.5,0-11,0.1-16.6,0.1
		c-5.9,0-11.9,0.1-17.8,0.1c-0.2,0-0.4,0-0.6,0C257.1,73.4,257.4,73,257.6,72.5z"/>
	<path class="st0" d="M161.9,72.6c0.2-0.2,0.5-0.1,0.8-0.1c16.1,0,32.3,0,48.4,0c0.5,0,0.8-0.1,1.1-0.6c0.2-0.4,0.5-0.8,0.7-1.3
		c0.1-0.3,0.3-0.3,0.6-0.2c2.9,1.4,6.1,1.9,9.3,2.1c4.2,0.3,8.4,0.3,12.6,0.2c5.8-0.2,11.5-0.9,16.9-3.2c2.1-0.9,4.1-2,5.9-3.4
		c0.1-0.1,0.3-0.2,0.5-0.3c-0.6,1.3-1.2,2.6-2,3.8c-0.1,0-0.2,0-0.1,0.2l0,0c-1.2,0.5-2.3,1.1-3.5,1.6c-3.6,1.4-7.3,2.1-11.1,2.6
		c-4.4,0.5-8.9,0.5-13.3,0.4c-3.5,0-6.9-0.1-10.3-0.9c-1.2-0.3-2.4-0.6-3.6-1.2c-0.3-0.2-0.5-0.2-0.6,0.2c-0.4,1.3-1.2,1.5-2.5,1.5
		c-16.5,0-33.1,0-49.6,0c-0.1,0-0.3,0-0.4,0c-0.3,0-0.4-0.1-0.2-0.4C161.6,73.3,161.7,72.9,161.9,72.6z"/>
	<path class="st0" d="M196.4,52.9c-0.7,0-1.5,0-2.3,0c0.5-1,1-1.9,1.4-2.8c5.4-10.2,10.7-20.4,16.1-30.6c1.2-2.3,2.4-4.6,3.6-6.9
		c0.7,0,1.4,0,2.2,0c0,0.3-0.2,0.5-0.3,0.8c-6.9,13-13.7,26-20.6,39.1C196.5,52.6,196.4,52.7,196.4,52.9z"/>
	<path class="st0" d="M236.2,52.9c-0.7,0.2-1.4,0-2,0c-0.4,0-0.1-0.3,0-0.5c0.8-1.6,1.6-3.1,2.5-4.7c5.3-10.1,10.6-20.2,15.9-30.3
		c0.7-1.4,1.5-2.8,2.2-4.2c0.1-0.2,0.2-0.4,0.3-0.5c0.6,0,1.1,0,1.7,0c0.5,0,0.5,0.1,0.3,0.5c-1.8,3.4-3.6,6.8-5.3,10.2
		c-5.1,9.8-10.3,19.6-15.4,29.4C236.2,52.8,236.2,52.8,236.2,52.9z"/>
	<path class="st0" d="M346.5,31.6c-1.1,0.2-2.1-0.1-3.2-0.1c-0.3,0-0.2-0.2-0.1-0.3c0.4-0.5,0.8-0.8,1.3-1c1.1-0.4,2.2-0.5,3.4-0.6
		c3.7-0.2,7.5-0.1,11.2-0.1c2.1,0,4.1-0.1,6.2-0.1c1,0,1.9-0.4,2.6-1c1.3-1.1,2.6-2.4,3.8-3.6c4-4,8-8.1,12.1-12.1
		c0.2-0.2,0.4-0.3,0.6-0.5c0.8,0,1.5,0,2.4,0c-0.9,1-1.6,1.8-2.4,2.6c-4.7,5-9.4,10-14.4,14.7c-1.1,1.1-2.4,1.5-4,1.5
		c-5.4,0-10.7,0.1-16.1,0.2C348.9,31.2,347.7,31.3,346.5,31.6z"/>
	<path class="st0" d="M374.3,33.1c-0.2,0.6-0.5,1.2-0.7,1.9c-0.1,0.2-0.1,0.4-0.4,0.4c-0.3,0-0.3-0.2-0.4-0.4
		c-0.2-0.6-0.4-1.1-0.8-1.7c0,0.6,0,1.1,0,1.7c0,0.2,0.1,0.4-0.3,0.4c-0.3,0-0.2-0.2-0.2-0.4c0-0.7,0-1.5,0-2.2
		c0-0.2-0.1-0.4,0.2-0.4c0.2,0,0.5-0.1,0.6,0.3c0.2,0.7,0.5,1.3,0.8,2.1c0.3-0.8,0.5-1.4,0.7-2c0.1-0.4,0.3-0.4,0.7-0.4
		c0.4,0,0.2,0.4,0.2,0.5c0,0.7,0,1.4,0,2.1c0,0.2,0.1,0.4-0.2,0.4c-0.3,0-0.2-0.2-0.2-0.4C374.4,34.4,374.4,33.7,374.3,33.1
		C374.4,33.1,374.4,33.1,374.3,33.1z"/>
	<path class="st0" d="M369.8,34c0-0.2,0-0.4,0-0.5c0-0.5,0-0.9-0.7-0.8c-0.1,0-0.3,0-0.3-0.2c0-0.2,0.1-0.2,0.3-0.2
		c0.6,0,1.2,0,1.8,0c0.1,0,0.3,0,0.3,0.2c0,0.2-0.2,0.2-0.3,0.2c-0.6-0.1-0.6,0.2-0.6,0.7c0,0.5,0,1,0,1.5c0,0.2,0.1,0.5-0.2,0.5
		c-0.4,0-0.2-0.3-0.3-0.5C369.8,34.6,369.8,34.3,369.8,34z"/>
	<path class="st0" d="M369,37.7c-0.1,0.1-0.1,0-0.1-0.1C369,37.6,369,37.6,369,37.7z"/>
	<path class="st2" d="M334.3,15.3c0.8-0.2,1.4-0.6,2.2-0.9c2.8-1.1,5.7-1.7,8.7-2.1c2.7-0.3,5.5-0.4,8.2-0.5c1.5,0,3.1-0.1,4.6,0
		c3.1,0.1,6.1,0,9.2,0.1c2.8,0.1,5.7,0,8.5,0.1c1.9,0,3.8,0.1,5.7,0.1c0.1,0,0.3-0.1,0.4,0.1c0,0.2-0.1,0.3-0.2,0.4
		c-0.6,0.8-1.4,1.5-2.1,2.2c-1.9,1.8-3.8,3.6-5.7,5.5c-2.1,2.1-4.1,4.2-6.3,6.1c-0.3,0.3-0.6,0.5-0.9,0.8c-0.7,0.6-1.6,0.6-2.5,0.6
		c-2.7,0-5.3,0-8,0c-2.7,0-5.5,0-8.2,0.1c-1.3,0-2.6,0.2-3.9,0.6c-1.1,0.3-2,0.9-2.6,1.9c-0.3,0.6-0.6,1.2-0.9,1.8
		c-0.1,0.3-0.1,0.4,0.3,0.4c1.2,0.2,2.4,0.2,3.6,0.3c1.7,0.2,3.4,0.3,5.1,0.4c1.6,0.1,3.2,0.2,4.8,0.4c3.2,0.3,6.4,0.6,9.4,1.9
		c2.2,0.9,3.9,2.4,4.4,4.9c0.4,1.7,0.1,3.4-0.3,5c-0.8,2.7-2,5.3-3.2,7.8c-1.5,3.1-3,6.2-5.1,8.9c-2.6,3.3-5.9,5.5-10,6.7
		c-3.1,0.9-6.2,1.3-9.4,1.6c-5.4,0.4-10.8,0.3-16.3,0.2c-11.6-0.2-23.2-0.1-34.9,0c-6.5,0-12.9,0-19.4,0.1
		c-3.8,0.1-7.7,0.1-11.5,0.1c-0.2,0-0.4,0-0.6,0c-0.1-0.3,0.1-0.4,0.2-0.6c1.8-3.5,3.5-7,5.3-10.6c0.1-0.2,0.2-0.4,0.3-0.6
		c0.1-0.1,0.1-0.1,0.1-0.2c0,0,0.1-0.1,0.1-0.1c0,0,0,0-0.1,0c0,0,0,0.1,0,0.1c-0.1,0-0.1,0.1-0.2,0.2c-0.6,0.5-1,1.1-1.5,1.6
		c-3.7,4.3-8.4,7.1-13.8,8.7c-3.1,0.9-6.3,1.4-9.6,1.7c-1.6,0.1-3.2,0.2-4.8,0.2c-1.4,0.1-2.8,0.1-4.1,0.1c-3.5-0.1-7-0.1-10.4-0.7
		c-2.3-0.4-4.5-1-6.5-2.3c-0.3-0.2-0.4-0.1-0.5,0.2c-0.4,0.7-0.8,1.3-1.2,2c-0.1,0.3-0.3,0.4-0.6,0.4c-0.1,0-0.2,0-0.3,0
		c-15.8,0-31.6,0-47.4,0c-0.1,0-0.2,0-0.3,0c-0.4,0-0.5-0.1-0.3-0.4c1.1-2.1,2.2-4.1,3.2-6.2c0.1-0.2,0.2-0.3,0.2-0.6
		c-0.6,0.5-1.2,1-1.8,1.5c-2.8,2.3-6.1,3.7-9.6,4.5c-2.1,0.5-4.3,0.7-6.5,0.8c-5,0.3-10.1,0.1-15.1,0.1c-12.8,0-25.5,0-38.3,0
		c-0.3,0-0.7,0-1,0c1.6-0.7,3.1-1.4,4.7-2.1c0.2-0.1,0.5-0.1,0.7-0.1c8.5,0,17,0,25.5,0c0.4,0,0.7-0.1,0.9-0.5
		c3.7-7.2,7.5-14.3,11.3-21.4c0.1-0.3,0.3-0.5,0.6-0.5c5.1,0,10.3,0,15.4,0c0.8,0,1.6,0.1,2.4,0.4c1,0.3,1.3,1,1.2,2
		c-0.7,4.4-4.5,7.8-8.9,8.1c-3.4,0.2-6.9,0.1-10.3,0.1c-0.5,0-0.7,0.1-0.9,0.5c-2,3.5-4.1,7.1-6.1,10.6c-0.1,0.2-0.2,0.4-0.3,0.6
		c0.1,0.2,0.3,0.1,0.5,0.1c5.3,0,10.6,0,15.9,0c2.7,0,5.4-0.3,8.1-1c4.1-1,7.6-3,10.5-6.1c3.4-3.8,5.9-8.2,7.6-13
		c0.2-0.7,0.4-1.4,0.4-2.2c0.1-2.1-0.8-3.5-2.8-4.2c-1.2-0.4-2.4-0.6-3.7-0.7c0.1-0.4,0.2-0.5,0.6-0.6c3.5-0.5,6.8-1.7,9.5-4.1
		c1.8-1.5,3.2-3.4,4.4-5.4c1.6-2.7,3.2-5.5,3.9-8.6c0.2-1,0.3-2.1,0.1-3.1c-0.3-1.7-1.4-2.9-2.9-3.6c-1.7-0.8-3.5-1.1-5.3-1.3
		c-2.3-0.2-4.6-0.2-6.8-0.2c-15.7,0-31.4,0-47,0c-0.2,0-0.5,0-0.7,0c-0.7-0.6-1.4-1.3-2.1-1.9c0.3-0.3,0.4-0.2,0.6-0.2
		c17.6,0,35.1,0,52.7,0c3,0,6,0.2,8.8,1.2c1.9,0.6,3.5,1.6,4.5,3.4c0.9,1.5,1.1,3.2,0.9,4.9c-0.1,0.5-0.2,1-0.2,1.5
		c0,0-0.1,0.1-0.1,0.1c0,0,0,0,0.1,0c0,0,0-0.1,0-0.2c0.2-0.1,0.2-0.3,0.3-0.4c1.7-3.3,3.4-6.5,5.1-9.8c0.2-0.4,0.4-0.5,0.8-0.5
		c6.5,0,13.1,0,19.6,0c0.7,0,0.7,0,0.4,0.6c-4.1,7.7-8.1,15.4-12.2,23.1c-2.3,4.3-4.5,8.6-6.8,12.9c-0.8,1.5-1.6,3-2.4,4.5
		c-0.2,0.4-0.2,0.5,0.3,0.5c6,0,12.1,0,18.1,0c0.4,0,0.6-0.1,0.7-0.5c1.8-4.3,4.1-8.3,6.2-12.4c3.1-6,6.2-11.9,9.3-17.8
		c1.8-3.5,3.7-7,5.5-10.5c0.2-0.3,0.3-0.5,0.8-0.5c6.6,0,13.3,0,19.9,0c0.1,0,0.2,0,0.3,0c0,0.3-0.1,0.4-0.2,0.6
		c-3.1,5.9-6.2,11.8-9.3,17.7c-2.4,4.7-4.9,9.3-7.3,14c-1.2,2.2-2.3,4.4-3.5,6.6c-0.3,0.6-0.5,1.1-0.7,1.7c-0.2,0.6-0.1,0.8,0.5,0.9
		c0.7,0.1,1.5,0.2,2.3,0.2c2,0,4,0.1,6,0c1.7-0.1,3.4-0.3,4.8-1.4c1.2-0.9,2-2.2,2.6-3.5c1.7-3.2,3.4-6.4,5-9.6
		c3.4-6.5,6.8-12.9,10.2-19.4c1.3-2.4,2.5-4.8,3.8-7.3c0.3-0.5,0.5-0.7,1.1-0.7c22.7,0,45.3,0,68,0c0.2,0,0.4,0,0.8,0
		C336,13.6,335.1,14.5,334.3,15.3C334.3,15.3,334.3,15.3,334.3,15.3C334.2,15.4,334.2,15.4,334.3,15.3
		C334.2,15.4,334.3,15.4,334.3,15.3z M179.9,35.9c-0.1,0.1-0.2,0.2-0.3,0.3c-1.8,2.1-4,3.8-6.5,5c-0.4,0.2-0.2,0.2,0,0.4
		c0.8,0.8,1.3,1.8,1.6,2.9c0.1,0.4,0.1,0.8,0.2,1.4c1.5-2.9,3-5.6,4.4-8.4C179.4,37,179.8,36.5,179.9,35.9
		C180,35.9,180,35.9,179.9,35.9C179.9,35.9,179.9,35.9,179.9,35.9z M322.3,27.3c-0.2,0.2-0.4,0.3-0.5,0.5c-0.4,0.6-1,0.7-1.7,0.7
		c-6.4,0-12.8,0-19.2,0c-0.4,0-0.7,0.1-0.9,0.5c-0.6,1.2-1.3,2.4-1.9,3.6c-0.2,0.4-0.5,0.8-0.6,1.3c0.1,0,0.1,0,0.2,0
		c7,0,14.1,0,21.1,0c0.4,0,0.5-0.2,0.6-0.5c0.6-1.6,1.4-3.2,2.2-4.8C321.9,28.3,322.2,27.8,322.3,27.3
		C322.4,27.3,322.5,27.2,322.3,27.3C322.4,27.2,322.3,27.2,322.3,27.3z M376.1,14.2c-0.2,0-0.3,0-0.4,0c-5.6,0-11.2-0.1-16.8-0.2
		c-2.7,0-5.5,0-8.2,0.1c-3.4,0.1-6.8,0.4-10.2,1.2c-4.8,1.1-8.9,3.4-12.2,7c-2.5,2.6-4.4,5.7-6,8.9c-1.2,2.4-2.3,4.9-2.7,7.6
		c-0.4,2.7,0.6,4.8,3,6c0.7,0.3,1.4,0.6,2.1,0.8c2.9,0.8,5.8,1,8.8,1.2c3.3,0.2,6.6,0.4,10,0.6c1.1,0.1,2.1,0.1,3.2,0.5
		c1,0.3,1.3,0.8,1,1.8c-0.5,1.6-1.3,3-2.2,4.4c-1,1.5-2.5,2.3-4.3,2.6c-1.3,0.2-2.6,0.3-4,0.3c-3.8,0-7.7,0-11.5,0
		c-12.2,0-24.3-0.1-36.5-0.1c-2,0-4,0-6,0c-0.1,0-0.3,0.1-0.4-0.1c0.1-0.2,0.1-0.3,0.2-0.5c1.6-3.1,3.3-6.2,4.9-9.4
		c0.2-0.4,0.4-0.5,0.9-0.5c6.9,0,13.7,0,20.6,0c0.4,0,0.6-0.1,0.8-0.4c1.2-2,2.5-4,3.7-6c0.7-1.2,1.4-2.3,2.2-3.6
		c-7.6,0-15,0-22.6,0c0.1-0.1,0.1-0.2,0.1-0.3c1.6-3,3.1-5.9,4.6-8.9c0.2-0.5,0.5-0.6,1-0.6c6.6,0,13.3,0,20,0c0.3,0,0.6,0,0.8-0.3
		c3-3.1,5.9-6.1,8.9-9.2c0.7-0.8,1.5-1.5,2.3-2.4c-0.2,0-0.3,0-0.3,0c-13.9,0-27.8,0-41.7,0c-0.3,0-0.5,0.1-0.6,0.4
		c-3.2,6.2-6.5,12.4-9.7,18.6c-5.6,10.8-11.2,21.5-16.8,32.3c-0.5,1-1,2-1.5,3c2.7,0,5.3,0,7.9,0c7,0,13.9-0.1,20.9-0.1
		c2.5,0,4.9,0,7.4,0c8.8,0,17.6-0.1,26.4,0.1c4.1,0.1,8.2,0.2,12.3,0.1c3.7-0.1,7.4-0.4,11-1.2c5.5-1.2,9.7-4,12.5-8.9
		c1.7-2.9,3.2-6,4.6-9.1c0.9-2,1.7-4,2-6.2c0.4-2.6-0.5-4.4-2.8-5.5c-1.9-0.9-3.9-1.2-5.9-1.5c-4.8-0.7-9.6-0.8-14.4-1.2
		c-1.1-0.1-2.2-0.1-3.3-0.4c-1.2-0.4-1.6-1-1.3-2.2c0.1-0.6,0.4-1.1,0.6-1.6c0.9-2,2.2-3.6,4.4-4.2c0.8-0.2,1.6-0.4,2.5-0.5
		c2.4-0.4,4.9-0.2,7.4-0.3c3.6-0.1,7.2-0.1,10.8-0.1c0.9,0,1.5-0.3,2.2-0.9c2.7-2.6,5.3-5.2,7.9-7.9
		C374.3,16.1,375.2,15.2,376.1,14.2z M211.3,64.5c0.5,0.9,1.1,1.6,1.9,2.1c1.3,0.9,2.8,1.4,4.3,1.7c3.7,0.8,7.4,0.8,11.1,0.9
		c2.6,0.1,5.3,0,7.9-0.2c3.3-0.2,6.5-0.7,9.7-1.5c4.7-1.3,8.8-3.5,12.2-7c2.6-2.6,4.7-5.7,6.4-8.9c2-3.8,4-7.6,6-11.4
		c4.4-8.3,8.7-16.6,13.1-24.9c0.3-0.6,0.3-0.6-0.3-0.6c-4.9,0-9.8,0-14.6,0c-0.5,0-0.8,0.2-1,0.6c-5.4,10.3-10.8,20.6-16.2,30.9
		c-1.1,2.1-2.1,4.2-3.4,6.2c-1.7,2.6-4.1,3.9-7.2,4.1c-2.4,0.2-4.8,0.1-7.2,0.1c-1.2,0-2.3-0.1-3.4-0.5c-1.2-0.5-1.6-1.2-1.5-2.4
		c0.1-1.1,0.6-2.2,1.1-3.2c6.1-11.7,12.3-23.4,18.4-35.1c0.3-0.6,0.3-0.6-0.3-0.6c-4.8,0-9.6,0-14.5,0c-0.6,0-1,0.2-1.2,0.8
		c-4.8,9.1-9.6,18.2-14.3,27.4c-2.3,4.4-4.8,8.7-6.6,13.3c-0.1,0.3-0.4,0.3-0.6,0.3c-7.8,0-15.6,0-23.4,0c-0.1,0-0.3,0.1-0.5-0.1
		c0.1-0.2,0.2-0.5,0.3-0.7c7.1-13.5,14.2-27,21.3-40.4c0.3-0.6,0.3-0.6-0.4-0.6c-4.8,0-9.7,0-14.5,0c-0.6,0-0.9,0.2-1.1,0.7
		c-4.6,8.8-9.2,17.6-13.8,26.4c-4.6,8.8-9.2,17.6-13.8,26.4c-0.2,0.4-0.3,0.5,0.3,0.5c14.3,0,28.6,0,43,0c0.4,0,0.6-0.1,0.7-0.4
		C209.8,67,210.5,65.8,211.3,64.5z M318,37.8c-0.3,0.1-0.4,0.4-0.5,0.5c-1.9,3.1-3.9,6.3-5.8,9.4c-0.3,0.4-0.5,0.6-1,0.6
		c-6.8,0-13.5,0-20.3,0c-0.5,0-0.7,0.1-0.9,0.5c-0.8,1.7-1.7,3.3-2.6,5c-0.4,0.7-0.3,0.7,0.4,0.7c16.5,0,33,0.1,49.6,0.1
		c1.3,0,2.6-0.1,4-0.2c1.3-0.2,2.5-0.7,3.3-1.9c0.5-0.8,0.9-1.6,1.3-2.4c0.2-0.5,0.1-0.6-0.4-0.6c-2.1-0.1-4.2-0.3-6.3-0.4
		c-3.3-0.2-6.6-0.4-9.8-0.7c-2.1-0.2-4.2-0.6-6.2-1.4c-3-1.2-5-3.7-4.9-7.2C317.9,39.2,317.9,38.5,318,37.8z M145.6,48.3
		C145.6,48.3,145.6,48.3,145.6,48.3c-2.4,0-4.7,0-7.1,0c-0.3,0-0.5,0.1-0.7,0.4c-0.9,1.8-1.9,3.6-2.8,5.4c-0.2,0.3-0.2,0.4,0.2,0.4
		c4-0.1,8,0.2,12-0.1c1.7-0.1,3.2-0.6,4.4-2c0.7-0.8,1.2-1.7,1.7-2.6c0.7-1.5,1-1.4-0.9-1.5C150.2,48.3,147.9,48.3,145.6,48.3z"/>
	<path class="st2" d="M149.4,36c-2.5,0-4.9,0-7.4,0c-0.5,0-0.6-0.1-0.3-0.5c1.6-2.9,3.1-5.8,4.6-8.8c0.2-0.3,0.4-0.5,0.8-0.5
		c4.9,0,9.7,0,14.6,0c0.8,0,1.7,0.1,2.5,0.3c1,0.3,1.4,0.9,1,1.9c-0.7,2.1-1.7,4.1-3.3,5.7c-1.4,1.4-3.3,1.7-5.1,1.8
		C154.2,36,151.8,35.9,149.4,36C149.4,35.9,149.4,36,149.4,36z M155.5,28.5c-2.2,0-4.4,0-6.7,0c-0.3,0-0.5,0.1-0.7,0.4
		c-0.8,1.5-1.6,3-2.4,4.5c-0.2,0.4,0,0.5,0.3,0.5c1.8,0,3.5,0,5.3,0c2.2,0,4.5,0.1,6.7-0.1c1.4-0.2,2.6-0.7,3.4-1.9
		c0.6-0.9,1.1-1.8,1.6-2.8c0.2-0.4,0.1-0.5-0.3-0.5c-0.4,0-0.8-0.1-1.2-0.1C159.6,28.5,157.5,28.5,155.5,28.5z"/>
	<path class="st2" d="M47.8,76.2c-2.9,0-6.1-0.1-9.3-0.5c-6.6-0.8-13-2.1-19.2-4.5c-4.1-1.6-7.7-3.9-10.9-6.9
		c-1.7-1.6-3.2-3.2-4.4-5.1c-1.3-2.3-2.1-4.7-2.4-7.3c-0.3-3,0.1-5.9,0.9-8.8c0.6-2.1,1.1-4.3,1.6-6.5c0.6-2.5,1.8-4.6,3.3-6.6
		c4.2-5.5,9.4-9.9,15.4-13.4c6.4-3.8,13.2-6.8,20.2-9.4c4.2-1.6,8.6-2.5,13-3.4c3.4-0.7,6.8-1.2,10.2-1.6c2.3-0.3,4.6-0.5,7-0.7
		c2.8-0.1,5.5,0,8.2,0.1c3,0.1,6.1,0.3,9.1,0.7c6.7,0.8,13.1,2.4,19.2,5.4c3.1,1.5,6,3.3,8.4,5.7c2,1.9,3.7,3.9,5.1,6.3
		c1,1.9,1.6,3.9,1.9,6c0.7,4.7-0.2,9.2-2,13.6c-1.9,4.7-4.5,8.9-8,12.7c-3.8,4.1-8.3,7.4-13.1,10.2c-5.4,3.2-11,5.6-16.9,7.7
		c-5.7,2-11.5,3.5-17.4,4.6c-3.4,0.7-6.9,1.2-10.3,1.5C54.3,76,51.3,76.2,47.8,76.2z M11.6,36.6c-0.2,0.1-0.4,0.1-0.7,0.2
		c-0.9,0.2-1.2-0.1-0.9-1c0.3-1,0.8-1.9,1.3-2.8c1.6-2.6,3.8-4.6,6.1-6.4c4.3-3.4,9-5.9,14-8.1c11.1-4.9,22.8-7.9,34.9-9
		c5.5-0.5,10.9-0.5,16.4-0.2c5,0.3,9.9,1,14.8,2.1c4.9,1.1,9.7,2.7,14.1,5.2c3,1.7,5.6,3.7,7.6,6.5c1.6,2.3,2.4,4.9,2.1,7.8
		c-0.1,1.2-0.4,2.4-0.8,3.5c-0.1,0.3-0.2,0.5,0.1,0.8c0.3,0.2,0.6,0.1,0.8,0c0.4-0.2,0.6-0.5,0.7-0.9c1-3,1.4-6,0.7-9.1
		c-0.8-4.2-3.1-7.5-6.2-10.3c-3.9-3.5-8.4-5.7-13.3-7.4c-5.8-2-11.7-3-17.8-3.5c-5.5-0.5-10.9-0.4-16.3,0C64,4.5,58.7,5.3,53.5,6.6
		c-9.8,2.3-19.1,5.8-27.8,10.9C19.6,21,14,25.2,9.6,30.9c-1.8,2.2-3.1,4.7-3.5,7.5c-0.3,1.8,0.4,2.4,1.9,2.4c35.2,0,70.3,0,105.5,0
		c0.3,0,0.5,0,0.8,0c1.5-0.1,1.9,0.3,1.4,1.8c-0.1,0.2-0.2,0.5-0.3,0.7c-0.8,2.1-2.2,3.8-3.8,5.3c-3.8,3.7-8.2,6.6-13,8.9
		c-8.6,4.2-17.6,7.2-26.9,9.1c-7.5,1.5-15,2.2-22.6,2.1c-5.9-0.1-11.7-0.6-17.5-1.8c-5.2-1-10.2-2.5-15-4.9
		c-3.2-1.6-6.1-3.6-8.4-6.4c-2.2-2.7-3.2-5.8-2.6-9.4c0.1-0.9,0.4-1.8,0.7-2.6c0.1-0.3,0.2-0.6-0.1-0.7c-0.2-0.2-0.5-0.1-0.8,0
		c-0.3,0.2-0.6,0.5-0.7,0.9c-0.6,1.8-1,3.6-1,5.5C3.6,53.3,5,56.9,7.6,60c2.6,3.3,6,5.6,9.7,7.5c6.7,3.4,13.9,5,21.3,5.8
		c4.7,0.5,9.3,0.7,14,0.5c5.9-0.2,11.8-1,17.5-2.2c10.2-2.2,20-5.6,29.1-10.7c6.4-3.6,12.4-7.9,17-13.8c1.8-2.2,3.1-4.7,3.7-7.5
		c0.2-1.1-0.2-1.7-1.3-1.9c-2.5-0.5-5-1-7.6-1.5c0.8-0.4,1.6-0.3,2.4-0.4c1.4-0.2,2.8-0.4,4.1-0.6c0.2,0,0.4-0.1,0.4-0.4
		c0-0.3-0.3-0.2-0.4-0.2c-1.1-0.1-2.2-0.2-3.2-0.3c-2.3-0.2-4.6-0.4-6.8-0.6c-1.3-0.1-2.6-0.2-3.8-0.3c-1.7-0.1-3.3-0.2-5-0.4
		c-1.6-0.5-3.1-1.2-4.7-1.8c0.8-0.3,1.6-0.3,2.4-0.3c1.9-0.2,3.9-0.4,5.8-0.7c1.6-0.2,3.2-0.3,4.8-0.5c1.9-0.2,3.9-0.4,5.8-0.7
		c1.6-0.2,3.2-0.3,4.9-0.5c-1.6-0.2-3-0.2-4.5-0.3c-1.6-0.1-3.1-0.1-4.7-0.2c-2.6-0.1-5.2-0.2-7.9-0.4c-2.2-0.1-4.5-0.1-6.7-0.3
		c-0.9-0.1-1.8-0.1-2.7-0.1c-1.7-0.1-3.4-0.3-5.1-0.2c-0.3-0.2-0.6-0.3-0.8-0.6c1-0.1,1.9-0.3,2.9-0.4c2.8-0.4,5.6-0.8,8.4-1.2
		c2.6-0.4,5.1-0.7,7.7-1.1s5.1-0.8,7.7-1.1c0.7-0.1,1.3-0.2,2-0.3c-0.1-0.1-0.2-0.1-0.2-0.1c-2.1,0-4.3,0-6.4-0.1c-2-0.1-4,0-6-0.1
		c-2.1-0.1-4.1,0-6.2-0.1c-2.5-0.1-5-0.1-7.5-0.1c-2.6-0.1-5.1-0.1-7.7-0.1c-0.3,0-0.5-0.1-0.7-0.2c9.3-1.4,18.7-2.8,28-4.1
		c-2.9-0.1-5.8-0.2-8.8-0.3c-1.5,0-3,0-4.4-0.1c-3.2-0.1-6.5-0.1-9.7-0.3c-1.5-0.1-3,0-4.5-0.1c-2.1-0.1-4.2-0.1-6.3-0.1
		c-1.7,0-3.3-0.1-5-0.1c0,0,0-0.1,0-0.1c9-1.1,17.9-2.2,27-3.3c-0.2-0.1-0.2-0.1-0.2-0.1c-5.7-1.4-11.4-1.9-17.2-2
		c-1.8,0-3.6,0-5.4,0.1c-1.8,0.1-3.6,0.2-5.4,0.4c-3.2,0.3-6.4,0.8-9.6,1.4c-5.7,1.1-11.3,2.5-16.8,4.4c-5.5,1.9-10.8,4.1-15.8,7
		c-4.1,2.4-8,5.2-11.1,8.9C13,34.1,12.2,35.2,11.6,36.6z M39.8,46.4C39.8,46.4,39.8,46.5,39.8,46.4C29.5,47.3,19.3,48.1,9,49
		c0,0,0,0.1,0,0.1c11.3,0.7,22.5,1.4,33.8,2.2c0,0,0,0.1,0,0.1c-10,1.3-20,2.6-30,3.8c0,0.1,0,0.1,0,0.2C24.4,55.6,36,55.8,47.6,56
		c0,0,0,0.1,0,0.1c-9.5,1.4-19,2.8-28.6,4.2c0,0,0,0.1,0,0.1c12.7,0.3,25.5,0.6,38.2,1c0,0.1,0,0.1,0,0.2
		c-8.8,1.1-17.6,2.1-26.4,3.2c5.3,1.4,10.7,1.9,16.2,2.1c6.4,0.2,12.7-0.2,19-1.2c9-1.5,17.9-3.7,26.4-7.2c5.3-2.2,10.5-4.7,15-8.3
		c2.5-1.9,4.6-4.1,6.1-6.9c0.2-0.3,0.3-0.5,0.4-0.9c-0.2,0-0.5,0-0.7,0c-6.4,0-12.8,0-19.1,0c-7.3,0.1-14.6,0-21.8,0.1
		c-7.5,0-15.1,0-22.6,0.1c-9.1,0-18.2,0-27.3,0c-4.5,0-8.9,0-13.4,0c-0.2,0-0.3,0-0.5,0c-0.2,0-0.3,0.2-0.3,0.4
		C8.2,43,8.4,43,8.5,43C8.7,43,8.9,43,9,43.1c4.1,0.4,8.2,0.9,12.3,1.3C27.5,45.1,33.6,45.7,39.8,46.4z"/>
	<path class="st0" d="M4.8,62.9c-0.1,0-0.1-0.1-0.2-0.1C4.7,62.7,4.8,62.8,4.8,62.9z"/>
	<path class="st0" d="M4.9,63c-0.1,0.1-0.1,0-0.1-0.1C4.9,62.8,4.9,62.9,4.9,63z"/>
	<path class="st0" d="M5,63.1c-0.1,0.1-0.2,0-0.1-0.1C5,63,5,63,5,63.1z"/>
	<path class="st3" d="M340.4,11.7C340.3,11.7,340.3,11.8,340.4,11.7C340.3,11.7,340.3,11.7,340.4,11.7L340.4,11.7z"/>
	<path class="st3" d="M256.5,69.9c-0.1-0.1,0.1-0.1,0.1-0.2C256.6,69.8,256.6,69.8,256.5,69.9z"/>
	<path class="st0" d="M376.1,14.2c-0.9,1-1.8,1.9-2.6,2.8c-2.6,2.6-5.2,5.3-7.9,7.9c-0.6,0.6-1.3,0.9-2.2,0.9c-3.6,0-7.2,0-10.8,0.1
		c-2.5,0-4.9-0.1-7.4,0.3c-0.8,0.1-1.6,0.3-2.5,0.5c-2.2,0.6-3.4,2.2-4.4,4.2c-0.2,0.5-0.5,1.1-0.6,1.6c-0.3,1.2,0.1,1.9,1.3,2.2
		c1.1,0.3,2.2,0.4,3.3,0.4c4.8,0.4,9.6,0.5,14.4,1.2c2,0.3,4,0.6,5.9,1.5c2.4,1.1,3.2,2.9,2.8,5.5c-0.3,2.2-1.1,4.2-2,6.2
		c-1.4,3.1-2.9,6.1-4.6,9.1c-2.8,4.9-7,7.7-12.5,8.9c-3.6,0.8-7.3,1-11,1.2c-4.1,0.1-8.2,0-12.3-0.1c-8.8-0.1-17.6,0-26.4-0.1
		c-2.5,0-4.9,0-7.4,0c-7,0-13.9,0.1-20.9,0.1c-2.6,0-5.3,0-7.9,0c0.5-1,1-2,1.5-3c5.6-10.8,11.2-21.5,16.8-32.3
		c3.2-6.2,6.5-12.4,9.7-18.6c0.1-0.3,0.3-0.4,0.6-0.4c13.9,0,27.8,0,41.7,0c0.1,0,0.1,0,0.3,0c-0.8,0.8-1.5,1.6-2.3,2.4
		c-3,3.1-6,6.1-8.9,9.2c-0.3,0.3-0.5,0.3-0.8,0.3c-6.7,0-13.3,0-20,0c-0.5,0-0.8,0.2-1,0.6c-1.5,3-3.1,5.9-4.6,8.9
		c0,0.1-0.1,0.1-0.1,0.3c7.5,0,15,0,22.6,0c-0.8,1.3-1.5,2.4-2.2,3.6c-1.2,2-2.5,4-3.7,6c-0.2,0.3-0.4,0.4-0.8,0.4
		c-6.9,0-13.7,0-20.6,0c-0.5,0-0.7,0.1-0.9,0.5c-1.6,3.1-3.3,6.2-4.9,9.4c-0.1,0.2-0.1,0.3-0.2,0.5c0.1,0.2,0.3,0.1,0.4,0.1
		c2,0,4,0,6,0c12.2,0,24.3,0.1,36.5,0.1c3.8,0,7.7,0,11.5,0c1.3,0,2.6-0.1,4-0.3c1.8-0.3,3.3-1.1,4.3-2.6c0.9-1.4,1.7-2.8,2.2-4.4
		c0.3-1,0-1.5-1-1.8c-1-0.3-2.1-0.4-3.2-0.5c-3.3-0.2-6.6-0.4-10-0.6c-3-0.2-5.9-0.4-8.8-1.2c-0.7-0.2-1.4-0.4-2.1-0.8
		c-2.4-1.2-3.4-3.2-3-6c0.4-2.7,1.5-5.2,2.7-7.6c1.6-3.2,3.5-6.2,6-8.9c3.4-3.6,7.5-5.9,12.2-7c3.4-0.8,6.8-1,10.2-1.2
		c2.7-0.1,5.5-0.1,8.2-0.1c5.6,0.1,11.2,0.2,16.8,0.2C375.8,14.2,375.9,14.2,376.1,14.2z"/>
	<path class="st0" d="M211.3,64.5c-0.8,1.3-1.5,2.6-2.2,3.8c-0.2,0.3-0.4,0.4-0.7,0.4c-14.3,0-28.6,0-43,0c-0.6,0-0.5-0.2-0.3-0.5
		c4.6-8.8,9.2-17.6,13.8-26.4c4.6-8.8,9.2-17.6,13.8-26.4c0.3-0.5,0.5-0.7,1.1-0.7c4.8,0,9.7,0,14.5,0c0.7,0,0.7,0,0.4,0.6
		c-7.1,13.5-14.2,27-21.3,40.4c-0.1,0.2-0.2,0.4-0.3,0.7c0.2,0.1,0.3,0.1,0.5,0.1c7.8,0,15.6,0,23.4,0c0.3,0,0.5,0,0.6-0.3
		c1.8-4.7,4.3-8.9,6.6-13.3c4.8-9.1,9.6-18.2,14.3-27.4c0.3-0.6,0.6-0.8,1.2-0.8c4.8,0,9.6,0,14.5,0c0.6,0,0.6,0,0.3,0.6
		c-6.1,11.7-12.3,23.4-18.4,35.1c-0.5,1-1,2-1.1,3.2c-0.1,1.3,0.3,2,1.5,2.4c1.1,0.4,2.3,0.5,3.4,0.5c2.4,0,4.8,0.1,7.2-0.1
		c3.1-0.2,5.5-1.5,7.2-4.1c1.3-2,2.3-4.1,3.4-6.2c5.4-10.3,10.8-20.6,16.2-30.9c0.2-0.4,0.5-0.6,1-0.6c4.9,0,9.8,0,14.6,0
		c0.6,0,0.6,0,0.3,0.6c-4.4,8.3-8.7,16.6-13.1,24.9c-2,3.8-4,7.6-6,11.4c-1.7,3.3-3.8,6.3-6.4,8.9c-3.4,3.4-7.5,5.7-12.2,7
		c-3.2,0.9-6.4,1.3-9.7,1.5c-2.6,0.2-5.3,0.2-7.9,0.2c-3.7-0.1-7.4-0.1-11.1-0.9c-1.5-0.3-3-0.8-4.3-1.7
		C212.4,66,211.8,65.4,211.3,64.5z"/>
	<path class="st1" d="M318,37.8c-0.1,0.7-0.1,1.3-0.2,1.9c-0.1,3.5,1.9,5.9,4.9,7.2c2,0.8,4.1,1.2,6.2,1.4c3.3,0.4,6.5,0.5,9.8,0.7
		c2.1,0.1,4.2,0.3,6.3,0.4c0.4,0,0.6,0.1,0.4,0.6c-0.4,0.8-0.8,1.6-1.3,2.4c-0.7,1.2-1.9,1.7-3.3,1.9c-1.3,0.2-2.6,0.2-4,0.2
		c-16.5,0-33-0.1-49.6-0.1c-0.8,0-0.8,0-0.4-0.7c0.9-1.7,1.8-3.3,2.6-5c0.2-0.4,0.4-0.5,0.9-0.5c6.8,0,13.5,0,20.3,0
		c0.5,0,0.8-0.1,1-0.6c1.9-3.1,3.8-6.3,5.8-9.4C317.7,38.2,317.7,38,318,37.8z M320.7,47.4c0-0.1-0.1-0.1-0.2-0.1
		c-0.3,0-0.4-0.3-0.6-0.4c-0.7-0.7-1.3-1.3-1.9-2c-0.4-0.8-0.8-1.5-1-2.4c-1.4,2.3-2.7,4.5-4.1,6.6c-0.3,0.5-0.6,0.6-1.1,0.6
		c-4.4,0-8.8,0-13.2,0c-2.4,0-4.8,0-7.1,0c-0.3,0-0.6,0-0.7,0.3c-0.4,0.8-0.9,1.7-1.3,2.5c-0.2,0.3-0.1,0.4,0.2,0.4c0.5,0,1,0,1.5,0
		c5,0.1,10,0,15,0.1c10.7,0.1,21.4,0,32.2,0.1c0.9,0,1.8,0,2.6-0.1c0.4-0.1,0.9-0.1,1.2-0.5c0.7-0.1,0.9-0.7,1.2-1.2
		c0.2-0.3,0.1-0.4-0.2-0.4c-0.8,0-1.5-0.1-2.3-0.1c-4.2-0.3-8.4-0.4-12.5-1c-2.6-0.3-5.2-0.8-7.5-2.2
		C320.9,47.4,320.8,47.3,320.7,47.4L320.7,47.4z"/>
	<path class="st1" d="M322.4,27.3c-0.1,0.5-0.5,1-0.7,1.4c-0.8,1.5-1.6,3.1-2.2,4.8c-0.1,0.3-0.3,0.5-0.6,0.5c-7,0-14.1,0-21.1,0
		c0,0-0.1,0-0.2,0c0.1-0.5,0.4-0.9,0.6-1.3c0.6-1.2,1.3-2.4,1.9-3.6c0.2-0.4,0.4-0.5,0.9-0.5c6.4,0,12.8,0,19.2,0
		c0.7,0,1.2-0.1,1.7-0.7C321.9,27.6,322.1,27.4,322.4,27.3C322.3,27.3,322.4,27.3,322.4,27.3z M302.3,32.8c5.2,0,10.5,0,15.7,0
		c0.3,0,0.5-0.1,0.6-0.4c0-0.2,0.1-0.4,0.2-0.6c0.4-0.5,0.5-1.1,0.8-1.7c-0.6,0-1.2,0-1.7,0c-5.4,0-10.8,0-16.2,0
		c-0.2,0-0.5-0.1-0.6,0.2c-0.4,0.8-0.8,1.7-1.3,2.5C300.7,32.8,301.5,32.8,302.3,32.8z"/>
	<path class="st1" d="M145.6,48.3c2.3,0,4.6-0.1,6.8,0c1.9,0.1,1.6,0,0.9,1.5c-0.4,0.9-1,1.8-1.7,2.6c-1.2,1.3-2.7,1.8-4.4,2
		c-4,0.3-8,0.1-12,0.1c-0.4,0-0.4-0.1-0.2-0.4c1-1.8,1.9-3.6,2.8-5.4c0.2-0.3,0.4-0.4,0.7-0.4C140.9,48.3,143.3,48.3,145.6,48.3
		C145.6,48.3,145.6,48.3,145.6,48.3z M151.1,51.4c0.3-0.3,0.6-0.7,0.8-1.1c0.2-0.3,0.2-0.4-0.2-0.4c-4,0-8,0-12,0
		c-0.2,0-0.4,0-0.5,0.2c-0.5,0.9-0.9,1.8-1.4,2.6c-0.1,0.1-0.2,0.4,0.1,0.3c0.7,0,1.5,0.2,2.2-0.1c0.1,0.1,0.2,0.1,0.3,0.1
		c2.5,0,5.1,0.1,7.6-0.1C149.2,52.8,150.3,52.4,151.1,51.4z"/>
	<path class="st1" d="M179.9,35.9c-0.1,0.6-0.5,1.1-0.7,1.6c-1.4,2.8-2.9,5.5-4.4,8.4c-0.1-0.6-0.1-1-0.2-1.4
		c-0.2-1.1-0.7-2.1-1.6-2.9c-0.2-0.2-0.3-0.3,0-0.4c2.5-1.2,4.7-2.8,6.5-5C179.7,36.1,179.8,36,179.9,35.9L179.9,35.9z"/>
	<path class="st1" d="M186.6,23.3c0,0,0,0.1,0,0.2c0,0,0,0-0.1,0C186.5,23.4,186.5,23.3,186.6,23.3L186.6,23.3z"/>
	<path class="st1" d="M263.3,58.9c0,0,0-0.1,0-0.1c0,0,0,0,0.1,0C263.4,58.8,263.4,58.8,263.3,58.9L263.3,58.9z"/>
	<path class="st1" d="M263.2,59.1c0-0.1,0-0.2,0.2-0.2l0,0C263.4,59,263.3,59.1,263.2,59.1C263.2,59.1,263.2,59.1,263.2,59.1z"/>
	<path class="st1" d="M179.9,35.9C179.9,35.9,179.9,35.9,179.9,35.9C180,35.9,180,35.9,179.9,35.9L179.9,35.9z"/>
	<path class="st1" d="M322.3,27.3C322.3,27.2,322.4,27.2,322.3,27.3C322.5,27.2,322.4,27.3,322.3,27.3
		C322.4,27.3,322.3,27.3,322.3,27.3z"/>
	<path class="st1" d="M334.3,15.3C334.3,15.4,334.2,15.4,334.3,15.3C334.2,15.4,334.2,15.4,334.3,15.3
		C334.2,15.3,334.3,15.3,334.3,15.3L334.3,15.3z"/>
	<path class="st1" d="M155.5,28.5c2,0,4.1,0,6.1,0c0.4,0,0.8,0,1.2,0.1c0.4,0,0.5,0.1,0.3,0.5c-0.5,1-1,1.9-1.6,2.8
		c-0.9,1.2-2,1.7-3.4,1.9c-2.2,0.3-4.5,0.1-6.7,0.1c-1.8,0-3.6,0-5.3,0c-0.3,0-0.5,0-0.3-0.5c0.8-1.5,1.6-3,2.4-4.5
		c0.2-0.3,0.4-0.4,0.7-0.4C151,28.5,153.3,28.5,155.5,28.5z M150.7,32.3c0.1,0.1,0.3,0.1,0.4,0.1c1.9,0,3.8,0,5.7,0
		c0.8,0,1.6,0,2.4-0.3c0.3-0.1,0.7-0.1,0.8-0.5c0.8-0.2,0.9-0.9,1.4-1.6c-3.9,0-7.7,0-11.5,0c-0.2,0-0.3,0-0.4,0.2
		c-0.3,0.6-0.7,1.3-1,1.9c-0.1,0.1-0.1,0.3,0.1,0.3C149.3,32.4,150,32.5,150.7,32.3z"/>
	<path class="st0" d="M85.3,26.6c0.2,0.3,0.5,0.4,0.8,0.6c0.4,0.5,1,0.8,1.5,1.2c2,1.2,4.1,2.1,6.2,3c1.5,0.6,3.1,1.3,4.7,1.8
		c1.7,0.7,3.4,1.5,5.2,1.8c2.4,0.4,4.9,0.9,7.3,1.3c2.5,0.5,5,1,7.6,1.5c1.1,0.2,1.5,0.8,1.3,1.9c-0.5,2.8-1.9,5.3-3.7,7.5
		c-4.7,5.8-10.6,10.2-17,13.8c-9.1,5.1-18.9,8.5-29.1,10.7c-5.8,1.2-11.6,2-17.5,2.2c-4.7,0.2-9.4,0.1-14-0.5
		c-7.4-0.8-14.6-2.5-21.3-5.8c-3.7-1.9-7-4.2-9.7-7.5C5,56.9,3.6,53.3,3.7,49.2c0-1.9,0.4-3.8,1-5.5c0.1-0.4,0.4-0.7,0.7-0.9
		c0.2-0.1,0.5-0.2,0.8,0c0.3,0.2,0.2,0.5,0.1,0.7c-0.3,0.8-0.5,1.7-0.7,2.6c-0.6,3.5,0.4,6.6,2.6,9.4c2.3,2.8,5.2,4.8,8.4,6.4
		c4.7,2.4,9.8,3.9,15,4.9c5.8,1.1,11.6,1.7,17.5,1.8c7.6,0.1,15.1-0.6,22.6-2.1c9.4-1.9,18.4-4.9,26.9-9.1c4.7-2.3,9.1-5.2,13-8.9
		c1.6-1.5,3-3.3,3.8-5.3c0.1-0.2,0.2-0.5,0.3-0.7c0.5-1.5,0.1-1.9-1.4-1.8c-0.3,0-0.5,0-0.8,0c-35.2,0-70.3,0-105.5,0
		c-1.5,0-2.2-0.6-1.9-2.4c0.5-2.8,1.8-5.2,3.5-7.5c4.4-5.6,10-9.8,16.1-13.4c8.7-5.1,18-8.5,27.8-10.9C58.7,5.3,64,4.5,69.3,4
		c5.4-0.5,10.9-0.5,16.3,0c6.1,0.5,12,1.5,17.8,3.5c4.9,1.7,9.4,3.9,13.3,7.4c3.1,2.8,5.4,6.1,6.2,10.3c0.6,3.1,0.3,6.1-0.7,9.1
		c-0.1,0.4-0.4,0.7-0.7,0.9c-0.3,0.1-0.6,0.2-0.8,0c-0.3-0.2-0.2-0.5-0.1-0.8c0.4-1.1,0.7-2.3,0.8-3.5c0.3-2.9-0.5-5.4-2.1-7.8
		c-2-2.8-4.7-4.9-7.6-6.5c-4.4-2.5-9.2-4.1-14.1-5.2c-4.9-1.1-9.8-1.8-14.8-2.1c-5.5-0.4-10.9-0.3-16.4,0.2
		c-12.1,1.1-23.7,4.1-34.9,9c-5,2.2-9.7,4.8-14,8.1c-2.4,1.8-4.6,3.8-6.1,6.4c-0.5,0.9-1,1.8-1.3,2.8c-0.3,0.9,0,1.2,0.9,1
		c0.2,0,0.5-0.1,0.7-0.2c0.2,0,0.4-0.1,0.6-0.1c4.9-1,9.8-2.1,14.7-3.1c3-0.7,6-1.1,8.9-2.1c2.1-0.7,4.2-1.4,6.3-1.8
		c2.9-0.6,5.6-1.8,8.2-3.2c2.8-1.4,5.5-2.9,8.2-4.4c1.3-0.8,2.6-1,4-0.3c0.3,0.2,0.6,0.1,0.9-0.1c1.2-1,2.5-1.8,3.8-2.7
		c0.9-0.6,1.6-0.8,2.6-0.4c0.5,0.2,1.1,0.4,1.7,0.3c1.4-0.2,2.7-0.5,4.1-0.7c0.3-0.1,0.4,0,0.6,0.3c0.4,0.7,0.9,1.3,1.2,2.1
		c0.4,0.8,1,1.1,1.8,1.3c0.2,0.2,0.5,0.2,0.7,0.2c1.5,0.4,2.6,1.4,3.2,2.7C83.6,25.4,84.3,26.1,85.3,26.6z"/>
	<path class="st4" d="M39.8,46.4c-6.1-0.7-12.3-1.3-18.4-2c-4.1-0.4-8.2-0.9-12.3-1.3c-0.2,0-0.4,0-0.5-0.1c-0.1,0-0.3,0.1-0.3-0.2
		c0-0.2,0-0.4,0.3-0.4c0.2,0,0.3,0,0.5,0c4.5,0,8.9,0,13.4,0c9.1,0,18.2,0,27.3,0c7.5,0,15.1,0,22.6-0.1c7.3,0,14.6,0,21.8-0.1
		c6.4-0.1,12.8,0,19.1,0c0.2,0,0.4,0,0.7,0c0,0.4-0.2,0.6-0.4,0.9c-1.5,2.8-3.7,5-6.1,6.9c-4.6,3.6-9.7,6.2-15,8.3
		c-8.5,3.4-17.3,5.7-26.4,7.2c-6.3,1-12.7,1.4-19,1.2c-5.5-0.1-10.9-0.7-16.2-2.1c8.8-1.1,17.6-2.1,26.4-3.2c0-0.1,0-0.1,0-0.2
		C44.5,61,31.8,60.7,19,60.4c0,0,0-0.1,0-0.1c9.5-1.4,19-2.8,28.6-4.2c0,0,0-0.1,0-0.1c-11.6-0.2-23.2-0.4-34.8-0.7
		c0-0.1,0-0.1,0-0.2c10-1.3,20-2.6,30-3.8c0,0,0-0.1,0-0.1C31.5,50.5,20.2,49.8,9,49.1c0,0,0-0.1,0-0.1
		C19.3,48.1,29.5,47.3,39.8,46.4C39.8,46.5,39.8,46.4,39.8,46.4z"/>
	<path class="st5" d="M79.1,21.4c-0.8-0.2-1.4-0.5-1.8-1.3c-0.3-0.7-0.8-1.4-1.2-2.1c-0.1-0.2-0.3-0.3-0.6-0.3
		c-1.4,0.3-2.7,0.5-4.1,0.7c-0.6,0.1-1.1-0.1-1.7-0.3c-1-0.4-1.8-0.1-2.6,0.4c-1.3,0.9-2.6,1.7-3.8,2.7c-0.3,0.2-0.6,0.3-0.9,0.1
		c-1.4-0.7-2.6-0.5-4,0.3c-2.7,1.6-5.5,3-8.2,4.4c-2.6,1.4-5.2,2.6-8.2,3.2c-2.1,0.4-4.2,1.1-6.3,1.8c-2.9,1-5.9,1.4-8.9,2.1
		c-4.9,1.1-9.8,2.1-14.7,3.1c-0.2,0-0.4,0.1-0.6,0.1c0.6-1.3,1.4-2.5,2.3-3.6c3.1-3.7,6.9-6.5,11.1-8.9c5-2.9,10.3-5.2,15.8-7
		c5.5-1.9,11.1-3.4,16.8-4.4c3.2-0.6,6.4-1.1,9.6-1.4c1.8-0.2,3.6-0.3,5.4-0.4c1.8-0.1,3.6-0.1,5.4-0.1c5.8,0.1,11.6,0.6,17.2,2
		c0,0,0.1,0,0.2,0.1c-9.1,1.1-18.1,2.2-27,3.3c0,0,0,0.1,0,0.1c1.7,0,3.3,0.1,5,0.1c2.1,0,4.2,0,6.3,0.1c1.5,0.1,3,0,4.5,0.1
		c3.2,0.1,6.5,0.2,9.7,0.3c1.5,0,3,0,4.4,0.1c2.9,0.1,5.8,0.2,8.8,0.3C97.8,18.7,88.4,20,79.1,21.4z"/>
	<path class="st5" d="M85.3,26.6c-0.9-0.5-1.7-1.2-2.2-2.2c-0.7-1.3-1.7-2.3-3.2-2.7c2.6,0,5.1,0,7.7,0.1c2.5,0.1,5,0,7.5,0.1
		c2.1,0.1,4.1,0,6.2,0.1c2,0.1,4,0,6,0.1c2.1,0.1,4.3,0.1,6.4,0.1c0.1,0,0.1,0,0.2,0.1c-0.7,0.1-1.3,0.2-2,0.3
		c-2.6,0.4-5.1,0.8-7.7,1.1c-2.6,0.4-5.1,0.7-7.7,1.1c-2.8,0.4-5.6,0.8-8.4,1.2C87.2,26.3,86.2,26.5,85.3,26.6z"/>
	<path class="st5" d="M93.9,31.3c-2.1-0.9-4.2-1.9-6.2-3c-0.6-0.3-1.1-0.7-1.5-1.2c1.7-0.1,3.4,0.1,5.1,0.2c0.9,0.1,1.8,0.1,2.7,0.1
		c2.2,0.1,4.5,0.2,6.7,0.3c2.6,0.1,5.2,0.2,7.9,0.4c1.6,0.1,3.1,0.1,4.7,0.2c1.4,0.1,2.9,0,4.5,0.3c-1.8,0.2-3.4,0.3-4.9,0.5
		c-1.9,0.2-3.9,0.4-5.8,0.7c-1.6,0.2-3.2,0.3-4.8,0.5c-1.9,0.2-3.9,0.4-5.8,0.7C95.5,31.1,94.6,31,93.9,31.3z"/>
	<path class="st5" d="M111,36.2c-2.4-0.4-4.9-0.9-7.3-1.3c-1.8-0.3-3.5-1.1-5.2-1.8c1.7,0.1,3.3,0.2,5,0.4c1.3,0.1,2.6,0.2,3.8,0.3
		c2.3,0.2,4.6,0.4,6.8,0.6c1.1,0.1,2.2,0.2,3.2,0.3c0.2,0,0.4-0.1,0.4,0.2c0,0.2-0.2,0.3-0.4,0.4c-1.4,0.2-2.8,0.4-4.1,0.6
		C112.5,35.9,111.7,35.9,111,36.2z"/>
	<path class="st0" d="M318.1,44.8c-1.2,2-2.5,3.9-3.8,5.8c-0.2,0.3-0.5,0.5-0.9,0.5c-6.9,0-13.7,0-20.6,0c-0.4,0-0.7,0.1-0.8,0.5
		c-0.2,0.5-0.4,0.9-0.7,1.4c-0.5,0-1,0-1.5,0c-0.4,0-0.4-0.1-0.2-0.4c0.4-0.8,0.9-1.6,1.3-2.5c0.2-0.3,0.4-0.3,0.7-0.3
		c2.4,0,4.8,0,7.1,0c4.4,0,8.8,0,13.2,0c0.5,0,0.8-0.2,1.1-0.6c1.3-2.2,2.7-4.4,4.1-6.6C317.3,43.4,317.7,44.1,318.1,44.8z"/>
	<path class="st0" d="M342.4,52.4c-2.9-0.2-5.7-0.3-8.5-0.6c-3.6-0.4-7.2-0.9-10.5-2.6c-0.9-0.5-1.8-1-2.6-1.7
		c0.1-0.1,0.2,0,0.3,0.1c2.3,1.3,4.9,1.8,7.5,2.2c4.1,0.5,8.3,0.7,12.5,1c0.8,0,1.5,0.1,2.3,0.1c0.3,0,0.4,0.1,0.2,0.4
		C343.2,51.6,343,52.2,342.4,52.4z"/>
	<path class="st0" d="M320.7,47.4c-0.1,0-0.1,0-0.2-0.1C320.6,47.3,320.7,47.3,320.7,47.4z"/>
	<path class="st0" d="M302.3,32.8c-0.8,0-1.6,0-2.5,0c0.4-0.9,0.9-1.7,1.3-2.5c0.1-0.3,0.4-0.2,0.6-0.2c5.4,0,10.8,0,16.2,0
		c0.5,0,1.1,0,1.7,0c-0.3,0.6-0.4,1.2-0.8,1.7c-0.2,0-0.4,0-0.6,0c-4.9,0-9.8,0-14.6,0c-0.6,0-1,0.2-1.1,0.8
		C302.4,32.6,302.3,32.7,302.3,32.8z"/>
	<path class="st0" d="M140.1,52.9c-0.7,0.3-1.4,0.1-2.2,0.1c-0.3,0-0.1-0.2-0.1-0.3c0.5-0.9,0.9-1.8,1.4-2.6
		c0.1-0.2,0.3-0.2,0.5-0.2c4,0,8,0,12,0c0.4,0,0.4,0.2,0.2,0.4c-0.2,0.4-0.5,0.8-0.8,1.1c-2.8,0-5.7,0.1-8.5-0.1
		C141.2,51.3,140.4,51.6,140.1,52.9z"/>
	<path class="st0" d="M150.7,32.3c-0.7,0.2-1.4,0.1-2.1,0.1c-0.3,0-0.2-0.2-0.1-0.3c0.3-0.6,0.7-1.3,1-1.9c0.1-0.2,0.2-0.2,0.4-0.2
		c3.8,0,7.6,0,11.5,0c-0.5,0.6-0.6,1.3-1.4,1.6c-2.7,0-5.3,0-8,0C151.3,31.5,150.9,31.6,150.7,32.3z"/>
</g>
</svg>
