<?xml version="1.0" encoding="utf-8"?>
<!-- Generator: Adobe Illustrator 22.0.1, SVG Export Plug-In . SVG Version: 6.00 Build 0)  -->
<svg version="1.1" id="Layer_1" xmlns="http://www.w3.org/2000/svg" xmlns:xlink="http://www.w3.org/1999/xlink" x="0px" y="0px"
	 viewBox="0 0 228.7 235.5" style="enable-background:new 0 0 228.7 235.5;" xml:space="preserve">
<style type="text/css">
	.st0{fill:#A7A9AC;}
	.st1{fill:#FFC222;}
	.st2{fill:#002B54;}
</style>
<g>
	<g>
		<path class="st0" d="M101.5,134.8l28.4-21.1l10.6,11l12.9,6.3l20-20.7l21.9,25.2l12.3,13.2l18.5,13h-48.6l-1.8-2.1l0.5,2.1H2.4
			l15.7-18.6l26-25.8l14.7,12.5l15.8-15.7l16.2,13.9L101.5,134.8z M118.3,128.4L101.4,140l9,1.3L118.3,128.4z M42.8,123.1l-11.9,13
			l-6.6,8.3l14.1-11.9L42.8,123.1z M70.1,122.9L61.8,133l-10.6,10.7l11.9-4.9l6.6-10.7L70.1,122.9z"/>
	</g>
	<g>
		<rect y="166.4" class="st1" width="228.7" height="12.1"/>
		<path class="st1" d="M114.6,2.3c1.1-0.5,8.5-3.2,13.9-2c2.2,0.5,2.8,0.7,4.7,1.8c0,0-2.6,0.5-3.3,0.8c5.8,1.6,9.8,4.7,10.8,6.1
			c0,0-3.1-0.7-3.8-0.6c2.8,1.2,8.1,5.3,11,7.8c0,0-3-0.8-4.5-0.9c2.7,1.8,0,0,0.9,0.6c4.4,2.9,7.7,6.4,10,9.1c0,0-3.6-1.1-4.7-1.3
			c1.3,1.3,4,5.8,5.5,9.2c0,0-2-0.7-3.4-1.1c1.6,2.8,3,5.4,4.3,9.4c0,0-0.7-0.4-2.1-0.8c1.8,2.3,3.5,6.2,5,9.5l-2.4-0.4
			c0.4,0.7,1.6,2.4,2.7,3.5c1.3,1.3,3.6,2.7,3.6,2.7s-2.6,0.7-4.6,0.5c-1.5-0.1-3.5-0.7-4.2-1c1.1,1.3,3.8,4.2,8.3,6.3
			c0,0-2.8,2.5-10.4,0.8c-0.1,0.3,6.1,5.2,6.1,5.2c-4.7,1.3-11.5-1.8-12.9-2.7c0.4,0.9,1.2,2.2,1.5,2.8c3.7,6,6.5,8.2,9.8,10.8
			c1.8,1.5,3.8,3,5.9,5.3c7.6,7.9,10.7,13.1,14.2,23.4c5.2,3.5,10.4,7.2,11.7,15.2c0.3,1.6,0.4,3,0.4,4.3c0,1.8-0.2,3.3-0.4,4.7
			c-0.1,1.3-0.3,2.5-0.3,3.8c0,2.3,0.2,5.7,1.8,9.9l1.9,4.6c0,0-3-0.9-4.6-1.9c-1-0.7-2.2-1.8-2.4-2c0.5,1.8,0.9,4.4,1.7,7.1
			c0.5,1.6,1.7,3.9,1.7,3.9c-3.4-1-6.6-2.3-8.1-3.7c0.5,5,4.1,12,4.1,12c-2.9-0.7-6.8-3.1-7.6-4c0.7,2.2,1.4,4.7,2.7,7.4
			c0.8,1.7,2.4,4.3,2.4,4.3c-7.2-2-9-4.9-11.7-8c-0.2,1.8,1,5.8,1,5.8c-7.8-6.7-10.3-13.3-10.3-19.1c0-2.3,0.3-4.7,1-7.3
			c1.1-4.2,3.1-6.7,4.9-8.9c1.7-2.1,3.2-4.1,4.3-7.6c0.6-2.2,1-5.2,1.1-7.9c-2.1,3.4-5.1,7.4-8.6,10.1c-2.5,2-7.4,4.5-10.6,6.1
			l-1.3,0.7c-0.1,1.2-0.1,2.4-0.1,3.6c0,1.6,0,3.2-0.2,4.9c-0.2,2.2-2.1,3.6-4.7,5.5c-2,1.5-4.6,3.3-6.7,5.9l-1.1,1.3
			c-0.5,0.6-0.9,1-1.1,1.3c-0.3,0.4-0.6,1.1-1.3,2.6l-0.6,1.3l-3.8,1.4l-1.6,6.9l-1.6,0.4c-2.8,0.8-11.4,1.2-14.7,0.4l-7.7,0
			l4.7-4.7c4.3-4.2,6.8-6.7,11.1-10.9c1.9-1.9,3.6-3.3,5.2-4.8c2.7-2.3,3.2-2.5,6-5.7c1-1.2,1.8-4.7-0.8-10.1
			c-2.3-4.9-3.4-7.1-4.9-12.9c-0.6-2.2-0.8-4.5-0.8-6.7c0-3.3,0.6-6.4,1.4-9.4l-0.2-0.2c-0.5-0.4-12.4-10.1-19.3-17.1
			c-7.4-7.5-10.2-11.2-14.1-20.8l-0.2-0.5c-2-0.5-3.7-1.2-5.4-1.9l-0.2-0.1c-3.9-1.6-6.5-3.7-8.9-5.7c-2-1.6-3.9-3.2-6.6-4.6
			c-1.4-0.7-2.7-1.4-3.9-2.1c-1.4-0.8-2.7-1.5-4-2.1l-1.1,0.5l-10.6,4.3l-1.2,5.1L51,62.3c-2.2,0.8-3.5,1.2-5.8,1.5
			c-2.5,0.3-6.2,0-6.6,0l-4.9-0.4l8.8-12l0.6-0.8l0.8-0.3c0,0,2-0.8,4.1-1.6l-1.6-1.1l-5.8,2.6l-1-0.4c-2.1-0.7-3.4-1.4-5.2-2.7
			c-2.1-1.5-3.2-2.6-4.7-4.7L27,38.8l4.5-0.6c7.6-1.1,12.2-1.2,19.8-0.3c6.2,0.7,9.6,1.7,15.4,3.3l0.3,0.1c2.3,0.6,4,1.3,5.7,2
			c1.9,0.8,3.7,1.5,6.2,2c4.3,1,7,1.3,11,1.4c1.1-2,2.1-3.5,3.8-5.5c2.2-2.6,4.3-4,6.4-5.4c1.2-0.8,2.5-1.6,3.8-2.7
			c2.5-2.1,4-3.4,6.3-5.5l0-0.1l-3.3,1.1l-6.7-0.5l-0.6,0.2L96.7,32l-9.2-6.1l-1.6-4.1l2.7-6.2l2.9-1.2c4.4-3.4,7.2-5.1,12.2-7.5
			c3.3-1.6,6.2-2.7,8.3-3.6L114.6,2.3z"/>
	</g>
	<g>
		<path class="st1" d="M206.4,181.6c1.4-0.3,2.7-0.3,3.7-0.3h17.6v15H225c3.1,2,3.6,5,3.6,8.3v5.5c-0.1,3.8-0.6,7.2-4.4,9.2
			c-1.9,1.1-4,1.2-6.1,1.2h-16h-1.9H175h-2.6h-16.3v-1.8c-2.4,1.8-5.5,1.8-8.4,1.8h-17h-2.6h-13.4v-11.2l-5.5,10l-5.8-10.4v11.5
			H87.7V214c-0.2,1-0.6,2-1.2,2.9c-2.1,3.1-5.3,3.7-8.8,3.7h-8.1c-2.6-0.1-5-0.3-7.2-2.2c-0.5-0.4-0.8-0.8-1.1-1.2v3.4h-8.9
			c-4.3-0.1-7.3-0.9-7.4-6v-8h-0.4v14H28.1v-1.9c-2.4,1.9-5.6,1.9-8.5,1.9H0v-12.1h2.3v-15.2H0v-12.1h19.5c3.7,0,6.6,0.4,8.6,1.9
			v-1.9l20.4,0c4.4,0.1,7.3,1.1,8.9,3.3v-3.3h16.5h13.8h2.7h12.2l6.8,12.5l6.7-12.5h12.1h2.6h16.9c3.7,0,6.6,0.4,8.5,1.8v-1.8h16.3
			h2.6h26.6v3.2c0.2-0.2,0.3-0.4,0.5-0.6C203.4,182.6,204.9,181.9,206.4,181.6 M202.2,205.2h1.7c-0.5-0.3-1-0.7-1.5-1.2
			c-1.9-1.9-2.4-4-2.5-6.5h-4v6.6h6.3V205.2z M214.4,193.4H214v1.4h0.4V193.4z M214,208.5h0.4v-2H214V208.5z M158.5,202.2v-3.8
			c-0.3,0.7-0.8,1.4-1.3,2C157.7,201,158.1,201.6,158.5,202.2 M88.1,208.5H90v-15.2h-1.9V208.5z M30.3,198.3
			c-0.3,0.8-0.8,1.5-1.4,2.1c0.6,0.6,1,1.2,1.4,1.9V198.3z M59.7,208.5v-15.2h-0.5c-0.1,2.6-0.4,5.3-2.4,7.3
			c0.1,0.1,0.2,0.3,0.4,0.4c1.7,2.1,1.8,4.6,1.9,6.1v1.3H59.7z M130.5,193.4h-2v15.2h2V193.4z M188.9,195l-0.1-1.6L188.9,195
			L188.9,195z M174.7,193.4h-2v15.2h2V193.4z"/>
		<path class="st2" d="M19.4,211H14v-7.3h5.4V211z M19.4,197.4H14v-6.5h5.4V197.4z M2.5,190.9h2.3V211H2.5v7.2h17.1
			c3.1,0,5.8,0,7.5-1.9c1.3-1.5,1.7-3.6,1.7-8.4c0-4.1-0.5-6.2-5.3-7.5c4.6-0.8,5.3-3.3,5.3-8.4c0-2.4-0.1-4.5-1.3-6
			c-1.8-2.2-5.2-2.2-8-2.2h-17V190.9z"/>
		<path class="st2" d="M47.5,197.7h-5.3v-6.8h5.3V197.7z M30.6,190.9h2.2V211h-2.2v7.2h11.6v-14h5.3v10.4c0,3.2,1.4,3.5,5,3.6h6.5
			V211h-2.3v-3.7c-0.1-1.6-0.1-3.2-1.3-4.6c-1-1.2-2.2-1.5-3.5-1.8c4.9-1.6,4.9-4.6,4.9-9.1c0-2.2,0-4.5-1.8-6.2
			c-1.8-1.7-4.3-1.7-6.4-1.7H30.6V190.9z"/>
		<path class="st2" d="M59.9,190.9h2.2v18.9c0,3,0.1,5.1,1.9,6.7c1.7,1.5,3.7,1.5,5.6,1.6h8c2.2,0,5,0,6.7-2.6
			c1.3-1.9,1.3-4.6,1.3-6.7v-17.9h2.2v-7.1H76.4V211h-4.8v-27.2H59.9L59.9,190.9L59.9,190.9z"/>
		<path class="st2" d="M90.2,183.8v7.1h2.3V211h-2.3v7.2h11v-16.3c0-1.2-0.1-1.4-0.1-2.4l8.3,14.9l8-14.7c-0.1,1.1-0.1,1.4-0.1,2.6
			v15.9h11.1V211h-2.2v-20.1h2.2v-7.1h-10.8l-6.7,12.6c-0.7,1.3-0.9,1.7-1.5,3.1c-0.6-1.5-0.7-1.8-1.4-3.1l-6.9-12.6H90.2z"/>
		<path class="st2" d="M147.6,211h-5.5v-7.3h5.5V211z M147.6,197.4h-5.5v-6.5h5.5V197.4z M130.7,190.9h2.3V211h-2.3v7.2h17.1
			c3.1,0,5.8,0,7.5-1.9c1.3-1.5,1.6-3.6,1.6-8.4c0-4.1-0.5-6.2-5.3-7.5c4.6-0.8,5.3-3.3,5.3-8.4c0-2.4-0.1-4.5-1.3-6
			c-1.7-2.2-5.2-2.2-8-2.2h-17L130.7,190.9L130.7,190.9z"/>
		<polygon class="st2" points="158.7,190.9 160.9,190.9 160.9,211 158.7,211 158.7,218.1 172.6,218.1 172.6,211 170.3,211 
			170.3,190.9 172.6,190.9 172.6,183.8 158.7,183.8 		"/>
		<polygon class="st2" points="174.9,190.9 177.2,190.9 177.2,211 174.9,211 174.9,218.1 199.7,218.1 199.7,206.5 191.3,206.5 
			191.3,211 186.4,211 186.4,203.8 193.4,203.8 193.4,197.4 186.4,197.4 186.4,190.9 191.3,190.9 191.3,195 199.2,195 199.2,183.8 
			174.9,183.8 		"/>
		<path class="st2" d="M210,183.8c-1.9,0-4.3,0-6.1,1.9c-1.6,1.6-1.6,3.4-1.6,5.2v5.7c0,1.9,0.1,3.9,1.9,5.6
			c1.8,1.8,3.9,1.8,5.9,1.9h6.9v6.9h-5.3v-3.4h-8.9v10.5h15.4c1.7,0,3.3,0,4.9-0.9c3.1-1.6,3.1-4.8,3.2-7.1v-5.5c0-2,0-4.6-2.5-6.2
			c-1.8-1.2-3.9-1.2-5.8-1.2h-6.3v-6.3h5.3v3h8.3v-10.1L210,183.8L210,183.8z"/>
		<g>
			<path class="st2" d="M177.4,168.9c-2.6-3.7-3.8-6.6-4.5-11.4c-0.8-5-0.5-8.2,1.2-13c-0.4,3.6-0.1,5.8,1.1,9.1
				c1.4,3.9,2.9,6,6.1,8.6c-2.6-3.8-3.6-6.6-3.8-11.2c-0.2-4,0.3-6.4,1.9-10.1c-0.4,3.4,0.1,5.6,1.9,8.5c1.1,1.9,2,2.9,3.8,4.1
				c-2.7-4.8-3.6-8.3-3.3-13.8c0.1-2.3,0.3-3.6,0.9-5.8c-0.3,3-0.2,4.9,1,6.8c1.2,1.9,1.9,2.6,3.8,4.1c-4.6-12-0.5-13.8-1.9-22.6
				c-1.1-6.8-5.5-10-11.3-13.8c-2.2-6.6-4.2-11.1-7.3-15.5h0c-1.7-2.5-3.9-5-6.6-7.8c-5.8-6.1-9.8-6.6-16-16.5
				c-3.5-5.6-4.4-9.5-5.2-16c0.9,3.7,2.2,5.8,5,8.3c2.4,2.1,4.1,3.1,7.2,3.8c-2.3-1.7-3.5-2.9-5.3-5.3c-2.1-2.9-3-4.8-4-8.3
				c1.8,3.1,3.3,4.7,6.3,6.6c3,2,5.1,2.7,8.7,3.1c-3.4-2.1-5.2-3.7-7.8-6.8c-2-2.4-3-3.9-4.4-6.7c1.8,1.8,3.1,2.7,5.4,3.9
				c2.5,1.3,4.2,1.8,7,2.3c-2.9-2.5-4.9-4.2-7.2-6.8c-2.8-3.3-2.9-4.1-6.3-7c1.5,0.6,2.3,1.1,3.8,1.8c3.3,1.8,5,3,7.9,5.4
				c-2-3.5-3.4-5.4-6.2-8.2c-2.8-2.8-4.7-4.2-8.1-6.1c1.4,0.2,2.1,0.3,3.5,0.8c3.5,1.1,5.6,2.4,8,5.2c-1.6-4.5-3.2-6.8-7-9.4
				c-2.7-1.9-4.7-2.7-8-3.1c1.6-0.4,2.6-0.5,4.2-0.4c3.8,0.2,6.1,1.3,8.9,3.9c-2.3-3.6-4.2-5.5-7.9-7.8c-3.2-2-5.4-2.2-8.9-2.8
				c0,0,2.9-0.8,4.8-0.5c4.4,0.6,10.2,4.4,10.2,4.4c-2.2-2.3-3.5-3.4-6.1-5.2c-4.4-2.9-7.3-4.1-12.4-5.2c1.7-0.3,2.7-0.3,4.4-0.2
				c2.8,0.2,4.4,0.7,6.8,1.9c-2.7-1.9-4.4-2.9-7.5-4.2c-3.2-1.4-4.4-1-7.8-1.7c1.1-0.7,2.3-1.1,3.5-1.3c2.2-0.4,3.2,0,5.4,0.4
				c-3.1-1.6-4.9-2.5-8-2.6c-1.6,0-2.9,0.5-4.6,0.6c0.2-0.1,0.6-0.7,2-1.5c1.4-0.8,3.4-1.4,3.4-1.4c-5.4-0.8-10.4,0.9-12.4,1.8
				c-2.1,0.9-6,2.2-10.8,4.6c-5,2.4-7.7,4.1-12.1,7.5l-2.3,0.9l-1.8,4.1l0.9,2.3l6.3,4.2l1.8-2.4l1.9-0.7l6.8,0.5l8.2-2.7l-2.3,6.1
				c-2.6,2.4-4.1,3.7-6.8,6c-3.8,3.1-6.7,4-9.9,7.8c-1.9,2.3-2.9,3.8-4.2,6.5c-5.2,0-8.2-0.3-13.3-1.5c-4.8-1.1-7.2-2.7-12-4
				c-5.9-1.7-9.2-2.6-15.2-3.3c-7.4-0.8-11.7-0.7-19.1,0.3c1.3,1.8,2.2,2.7,4,4c1.6,1.2,2.6,1.7,4.5,2.3l6.2-2.8l4.7,3.4
				c2.3-0.5,3.6-0.6,6-0.6c7.2,0.1,10.8,3.2,17.2,6.4c6.4,3.3,8.8,7.4,15.4,10.2c2.5,1.1,4.8,2,8,2.4c2.9,0.3,5.2,0,7.3-0.4
				c-2.5,1.3-4.1,1.8-6.9,2c-0.4,0-0.8,0-1.1,0c3.7,9.1,6.1,12.4,13.5,19.9c1.7,1.7,3.6,3.6,5.7,5.4v0c6.4,5.8,13.3,11.5,13.3,11.5
				s1.6-4.7,3.6-7.2c1.4-1.8,2.2-2.6,4.3-4c-2.5,3.4-10.5,16.4-7.3,28.8c3.3,13.1,8.7,16.6,6.7,23.2c-1.3,4.5-5.9,7.3-10.5,11.8
				c-4.4,4.2-7.8,7.3-11.9,11.8H2.5v7.2h223.8v-7.2H177.4z M177,168.9h-49.4l0.3-0.1l1.5-6.8l4.1-1.5c0.9-1.9,1.2-2.7,1.6-3.3
				c0.5-0.7,1-1.3,2.4-2.9c4.6-5.5,10.6-7.8,10.8-9.9c0.3-3.3,0.1-6.5,0.4-10c0-0.3,9.4-4.4,12.9-7.2c6.5-5.3,11.4-15.6,11.4-15.6
				c2.2-2.7,2.2,10.2,0.4,16.3c-2.3,8-7.1,9.1-9.1,16.5c-2.1,8-0.5,13.8,3.9,20.9c-1.1-4.3-1.3-6.9-0.8-11.3
				c0.2-2.3,0.5-3.6,1.1-5.8c-0.2,4.4,0.2,7,1.8,11C172,163.5,173.7,166.1,177,168.9L177,168.9z"/>
			<path class="st2" d="M50.1,59.6l1.2-5.1l11.9-4.9l0.6-0.3c-1.6-0.6-2.6-0.9-4.4-1c-1.6-0.2-4.2,0.1-4.2,0.1c-1,0.4-2,0.9-3.1,1.4
				c-2.8,1.2-7.2,2.9-7.2,2.9l-0.1,0.1l-5.9,8c0,0,3.7,0.3,6,0C46.9,60.6,48.1,60.3,50.1,59.6z"/>
		</g>
		<rect y="223.4" class="st1" width="69.2" height="12.1"/>
		<rect x="2.5" y="225.9" class="st2" width="64.3" height="7.2"/>
		<rect x="159.2" y="223.4" class="st1" width="69.3" height="12.1"/>
		<rect x="161.6" y="225.9" class="st2" width="64.4" height="7.2"/>
		<path class="st2" d="M83,228.3h-1.8v-2.4H83V228.3z M77,225.9h0.8v7H77v2.5h4.1v-4.9H83v3.7c0,1.1,0.5,1.2,1.7,1.2H87V233h-0.8
			v-1.3c0-0.5-0.1-1.1-0.5-1.6c-0.4-0.4-0.8-0.5-1.2-0.6c1.7-0.6,1.7-1.6,1.7-3.2c0-0.8,0-1.6-0.7-2.2c-0.6-0.6-1.5-0.6-2.2-0.6H77
			L77,225.9L77,225.9z"/>
		<path class="st2" d="M93.6,225.9h0.8v6.6c0,1.1,0,1.8,0.7,2.4c0.6,0.5,1.3,0.5,2,0.5h2.8c0.8,0,1.8,0,2.4-0.9
			c0.5-0.7,0.4-1.6,0.4-2.4v-6.3h0.8v-2.5h-4.1v9.5h-1.7v-9.5h-4.1L93.6,225.9L93.6,225.9z"/>
		<path class="st2" d="M113.5,223.4c-1,0-2,0-2.6,0.9c-0.4,0.6-0.4,1.4-0.4,2.1v6.2c0,1,0,1.9,0.9,2.4c0.6,0.4,1.3,0.4,2,0.4h5.4
			v-7.3h-4.1v2.5h1v2.3h-1.9v-7h1.9v1h3v-3.5L113.5,223.4L113.5,223.4z"/>
		<path class="st2" d="M132.3,233h-1.9v-2.5h1.9V233z M132.3,228.2h-1.9v-2.3h1.9V228.2z M126.4,225.9h0.8v7h-0.8v2.5h6
			c1.1,0,2,0,2.6-0.6c0.5-0.5,0.6-1.3,0.6-3c0-1.4-0.2-2.2-1.8-2.6c1.6-0.3,1.8-1.1,1.8-3c0-0.9,0-1.6-0.5-2.1
			c-0.6-0.8-1.8-0.8-2.8-0.8h-6L126.4,225.9L126.4,225.9z"/>
		<path class="st2" d="M142.4,226h0.9l2.1,4.5v2.4h-0.8v2.5h4.9V233h-0.8v-2.4l2.1-4.5h0.9v-2.6h-3.1l-1.2,3
			c-0.2,0.5-0.2,0.6-0.3,1.2c-0.1-0.4-0.1-0.5-0.2-1l-1.2-3.2h-3.2L142.4,226L142.4,226z"/>
	</g>
</g>
</svg>
