<?xml version="1.0" encoding="UTF-8"?>
<!-- Generator: Adobe Illustrator 16.0.5, SVG Export Plug-In . SVG Version: 6.00 Build 0)  -->
<!DOCTYPE svg PUBLIC "-//W3C//DTD SVG 1.1//EN" "http://www.w3.org/Graphics/SVG/1.1/DTD/svg11.dtd">
<svg version="1.1" id="Layer_1" xmlns="http://www.w3.org/2000/svg" xmlns:xlink="http://www.w3.org/1999/xlink" x="0px" y="0px" width="313.485px" height="343.483px" viewBox="0 0 313.485 343.483" enable-background="new 0 0 313.485 343.483" xml:space="preserve">
<path fill="#D04745" d="M179.956,21.687c0.102,1.863,0.006,3.333,0.006,3.333s2.334,3.167,3.834,4.667s0,6,0,6v1.667  c0,0,1.833,5.667,0.5,7s0,3.833,0,9.667s-1.334,15.833-1.334,15.833l7.501,4c1-2.833,12.333-8.833,12.333-8.833l15.167,0.167  c0,0,8.667,4.833,13.833,7.833s8.833,19.333,8.833,19.333s18.334,4.167,20.334,4.167s12.333,12.333,14,14s2.5,6.167,2.5,8.167  s1,4.167,1.833,8.833c0,7.5-2.666,10-2.666,12.667s3.666,11.5,3.666,18.167s-1.833,9.5-1.833,12s0.833,9.166,1.5,11.333  s-0.667,10.5-0.667,14.5s2.333,14.833,2.333,19.667s-5.333,16.833-5.333,16.833h15v-211H179.956z M20.795,232.687h17.247  c-0.383-4.646-0.581-10.992-0.581-18.333c0-14.333-5.5-35.667-5.5-45.667s6.334-24.667,7.168-27.667c0.833-3,0-7.667-0.834-11.167  s-0.5-5,1-8.667s3.75-12.583,4.834-13.667c1.083-1.083,5.5-5.5,8.333-8.333s8.999-5,8.999-5l36-6l30.334-16.833v-9h-0.834  c-1.166,1.167-2.166,11.167-6.5,9.667c-4.333-1.5,0.834-12,2.668-15.5c1.833-3.5,3-8.667,3-10.667s0.25-5.25,1.166-6.167  s1.5-3.333,1.5-6s0.834-4.333,2.166-5.667c1.231-1.23,1.327-0.206,1.991-6.333H20.795V232.687z"/>
<path fill="none" d="M228.314,199.213c-0.203,1.049-0.42,2.093-0.65,3.131c0.456-0.682,0.872-1.241,1.222-1.686  C228.739,200.241,228.541,199.743,228.314,199.213z"/>
<path d="M278.789,274.415c-3.004-2.671-6.743-5.994-6.743-7.728c0-1.052,1.415-1.721,1.85-1.9c2.628-1.089,7.02-0.699,10.447,2.729  l5.121,5.121l1.707,1.707v-2.414v-7.242v-14.625v-1.365v-0.455l-0.343-0.299l-1.029-0.897c-0.513-0.446-5.346-4.358-17.128-4.358  c-9.812,0-20.136,3.604-24.375,13.033v-6.449v-3v-1h-1h-3H208.42h-3h-1v1v3v73.583v3v1h1h3h18.125h3h1v-1v-3v-27.792h11.375h3h1v-1  v-3v-14.624v-3v-1h-1h-3h-11.375v-5.751h13.75h2.036c0.379,11.422,8.015,18.734,14.199,24.629c3.326,3.17,6.765,6.448,6.765,8.621  c0,1.338-0.557,2.257-1.701,2.81c-1.057,0.511-2.31,0.565-2.799,0.565c-2.46,0-7.57-2.704-10.413-4.624  c0.065,0.048-4.712-3.774-4.712-3.774l-1.625-1.3v2.081v6.242v16v1.364v0.455l0.343,0.299l1.028,0.896  c0.286,0.249,7.162,6.11,20.504,6.11c15.161,0,25.75-11.411,25.75-27.75C293.67,287.648,285.42,280.311,278.789,274.415z   M244.295,262.687h-17.75v13.751h15.375v14.624h-15.375v31.792H208.42v-73.583h35.875V262.687z M267.92,323.062  c-12,0-17.875-5.125-17.875-5.125v-16c0,0,7.875,5.375,12.75,5.375s8.5-2.75,8.5-7.375c0-9.25-21-16.5-21-34.125  c0-14.375,11.75-19.125,22.375-19.125s14.5,3.375,14.5,3.375v14.625c-7.562-7.562-19.125-4.5-19.125,2  c0,8.5,21.625,15.75,21.625,32.625C289.67,314.187,279.92,323.062,267.92,323.062z M122.086,245.271H105.17h-3h-1v1v3v22.084h-5.75  v-22.084v-3v-1h-0.418l-4.462,3.19c-0.373,0.266-0.801,0.443-1.252,0.519l-1.747,0.291h3.878v26.084h13.75v-26.084h16.916v72.917  H105.17v-32.25H91.42v32.25H74.086v-0.334v-70.341l-3.798,0.633c-0.067,0.011-0.135,0.005-0.202,0.011v69.697v0.334v3v1h1h3H91.42h3  h1v-1v-3v-28.25h5.75v28.25v3v1h1h3h16.916h3h1v-1v-3v-72.917v-3v-1h-1H122.086z M60.349,302.686  c-0.674,0.101-2.152,0.251-5.012,0.251c-3.919,0-9.75-4.993-9.75-18.75c0-8.091,1.584-13.951,4.58-16.946  c2.304-2.304,4.944-2.304,5.812-2.304c2.644,0,5.414,0.638,5.442,0.644c-0.002,0,2.968,0.697,3.57,0.839l0.394,0.196l0.474-0.293  c0.477-0.294,0.477-0.294,0.477-4.636v-9.684c-1.259-0.067-2.649-0.14-4-0.208v9.892c0,0-3.166-0.75-6.332-0.75  c-2.168,0-14.417-0.083-14.417,23.25c0,15.667,7.333,22.75,13.75,22.75s7.125-0.708,7.125-0.708v14.875  c0,0-4.208,1.583-10.375,1.583c-4.167,0-29.667-2.251-29.667-38.167c0-17.771,7.13-31.517,19.575-36.443  c-0.958-1.161-1.908-2.302-2.7-3.237c-13.001,5.729-20.875,20.1-20.875,39.681c0,41.688,32.292,42.167,33.667,42.167  c6.872,0,11.589-1.766,11.786-1.841c-0.004,0.002,1.94-0.729,1.94-0.729l0.648-0.244v-0.692v-2.077v-14.875v-7.242v-2.414  l-1.707,1.707L60.349,302.686z M198.17,245.271h-34.166h-3h-1v1v3v73.583v3v1h1h3h34.166h3h1v-1v-3v-0.666v-17.334v-3v-1h-1h-3  h-12.084v-6.25h10h3h1v-1v-3v-14.166v-3v-1h-1h-3h-10v-5.917h12.084h3h1v-1v-3v-13.25v-3v-1h-1H198.17z M198.17,262.521h-16.084  v13.917h14v14.166h-14v14.25h16.084v17.334v0.666h-34.166v-73.583h34.166V262.521z M152.233,245.271h-18.125h-3h-1v1v3v72.917v3v1h1  h3h18.125h3h1v-1v-3v-72.917v-3v-1h-1H152.233z M152.233,322.188h-18.125v-72.917h18.125V322.188z"/>
<path fill="#FFFFFF" d="M266.781,199.048c-0.003,0.033-0.012,0.064-0.016,0.098c-0.003,0.021-0.002,0.038-0.005,0.06  C266.769,199.154,266.775,199.101,266.781,199.048z"/>
<path fill="#F4B939" d="M41.587,284.187c0-23.333,12.249-23.25,14.417-23.25c3.166,0,6.332,0.75,6.332,0.75v-9.892  c-2.917-0.147-5.636-0.274-6.374-0.274c-0.925,0-4.792,0.74-7.843,1.427c-1.112,0.25-2.271-0.152-2.989-1.038  c-0.89-1.098-2.016-2.478-3.135-3.833C29.55,253.003,22.42,266.749,22.42,284.52c0,35.916,25.5,38.167,29.667,38.167  c6.167,0,10.375-1.583,10.375-1.583v-14.875c0,0-0.708,0.708-7.125,0.708S41.587,299.854,41.587,284.187z M134.108,322.188h18.125  v-72.917h-18.125V322.188z M164.004,322.854h34.166v-18h-16.084v-14.25h14v-14.166h-14v-13.917h16.084v-13.25h-34.166V322.854z   M208.42,322.854h18.125v-31.792h15.375v-14.624h-15.375v-13.751h17.75v-13.416H208.42V322.854z M105.17,275.355H91.42v-26.084  h-3.878l-13.456,2.242v70.675H91.42v-32.25h13.75v32.25h16.916v-72.917H105.17V275.355z M268.045,266.687  c0-6.5,11.562-9.562,19.125-2v-14.625c0,0-3.875-3.375-14.5-3.375s-22.375,4.75-22.375,19.125c0,17.625,21,24.875,21,34.125  c0,4.625-3.625,7.375-8.5,7.375s-12.75-5.375-12.75-5.375v16c0,0,5.875,5.125,17.875,5.125s21.75-8.875,21.75-23.75  C289.67,282.437,268.045,275.187,268.045,266.687z"/>
<path fill="none" d="M227.664,202.344c0.456-0.682,0.872-1.241,1.222-1.686c-0.146-0.418-0.345-0.916-0.571-1.445  C228.111,200.262,227.894,201.306,227.664,202.344z"/>
<path fill="#FFFFFF" d="M283.344,204.713c-0.516-3.367-1.049-6.85-1.049-8.526c0-1.441,0.206-3.679,0.406-5.842  c0.438-4.75,0.679-7.753,0.128-9.541c-0.536-1.744-1.367-8.092-1.367-10.451c0-0.559,0.217-1.378,0.492-2.416  c0.565-2.135,1.341-5.059,1.341-9.584c0-4.498-1.416-9.538-2.554-13.587c-0.494-1.759-1.109-3.949-1.112-4.58  c0-0.442,0.297-1.218,0.641-2.116c0.807-2.11,2.025-5.298,2.025-10.55c0-0.177-0.016-0.353-0.047-0.527  c-0.402-2.257-0.839-3.944-1.189-5.299c-0.347-1.339-0.597-2.308-0.597-3.007c0-1.459-0.573-7.483-3.379-10.288  c-0.328-0.328-1.268-1.387-2.263-2.507c-9.465-10.665-11.663-12.371-13.858-12.371c-1.251-0.068-9.752-1.859-17.853-3.681  c-1.262-4.994-4.645-16.415-9.808-19.413c-5.13-2.979-13.792-7.811-13.879-7.859c-0.437-0.244-0.928-0.374-1.428-0.38l-15.167-0.167  c-0.501-0.005-0.994,0.114-1.437,0.349c-4.121,2.181-8.938,5.032-11.69,7.68l-3.507-1.87c0.396-3.29,1.101-9.77,1.101-14.158  c0-2.56-0.24-4.538-0.416-5.982c-0.083-0.689-0.184-1.522-0.178-1.925c1.391-1.759,1.425-4.841,0.094-9.186v-0.782  c0.635-2.104,1.462-6.239-0.879-8.58c-0.836-0.836-2.096-2.424-2.92-3.502c0.011-0.659,0.008-1.548-0.046-2.54  c-0.232-4.219-1.17-7.094-2.868-8.792l-0.592-0.606c-3.079-3.173-10.29-10.606-22.361-10.606c-13.366,0-25.975,8.5-26.984,18.189  c0-0.002-0.176,1.657-0.176,1.657c-0.098,0.905-0.342,3.148-0.531,3.988c-0.163,0.137-0.36,0.305-0.598,0.543  c-2.05,2.051-3.045,4.599-3.045,7.789c0,2.227-0.473,3.648-0.689,3.955c0,0,0.021-0.03,0.067-0.076  c-1.356,1.357-2.044,4.146-2.044,8.288c0,1.442-1.035,6.176-2.658,9.275c-6.15,11.737-4.692,15.415-4.213,16.623  c0.289,0.729,0.715,1.362,1.246,1.882L96.458,85.313l-35.49,5.915c-0.17,0.028-0.338,0.071-0.501,0.128  c-0.697,0.245-6.903,2.486-10.126,5.709l-4.822,4.823l-3.511,3.511c-1.068,1.067-1.765,3.101-3.486,8.641  c-0.707,2.275-1.437,4.628-2.003,6.01c-1.601,3.913-2.192,6.088-1.142,10.498c1.354,5.681,1.216,8.394,0.862,9.668  c-0.144,0.519-0.578,1.706-1.08,3.081c-2.166,5.931-6.197,16.97-6.197,25.389c0,4.797,1.176,11.918,2.421,19.457  c1.443,8.74,3.079,18.646,3.079,26.21c0,7.46,0.205,13.885,0.591,18.579c0.554,6.735,1.351,8.772,2.457,9.877  c0.308,0.308,0.961,1.058,1.785,2.029c0.792,0.936,1.742,2.076,2.7,3.237c1.119,1.355,2.246,2.735,3.135,3.833  c0.718,0.886,1.877,1.288,2.989,1.038c3.051-0.687,6.917-1.427,7.843-1.427c0.738,0,3.458,0.127,6.374,0.274  c1.351,0.068,2.741,0.141,4,0.208c1.308,0.069,2.473,0.133,3.293,0.179c0.153,0.009,0.305-0.01,0.457-0.025  c0.067-0.006,0.135,0,0.202-0.011l3.798-0.633l13.456-2.242l1.747-0.291c0.451-0.075,0.879-0.253,1.252-0.519l4.462-3.19  l14.186-10.144l12.807-9.157l0.958-0.05l2.304,2.305c0.562,0.562,1.326,0.879,2.122,0.879h18.917c0.257,0,0.514-0.033,0.762-0.099  c1.015-0.267,9.875-2.611,13.133-4.012c1.455-0.176,6.806,1.837,11.533,4.344c0.447,0.237,0.947,0.357,1.453,0.35l20.832-0.333  c0.628-0.011,1.236-0.217,1.74-0.591l11-8.167c1.188-0.882,1.556-2.497,0.867-3.806s-2.229-1.921-3.627-1.441l-11.692,4.005h-16.612  l-8.343-5.423c-0.886-2.908-1.782-6.088-1.883-6.871c-0.001-0.067-0.002-0.137-0.004-0.201c-0.025-0.86-0.078-2.65,5.417-3.728  c6.328-1.24,11.952-0.912,15.313-0.715c0.98,0.058,1.756,0.102,2.4,0.104c1.638,0.108,10.621,3.104,18.009,5.817  c1.411,0.519,2.988-0.089,3.688-1.419c0.701-1.331,0.308-2.975-0.919-3.845l-14.334-10.167c-0.6-0.426-1.336-0.615-2.066-0.534  c-1.023,0.113-2.494,0.272-4.171,0.447c2.764-2.22,4.688-5.185,5.285-8.475c2.668-1.338,5.765-4.353,6.297-9.946  c1.836-1.339,4.574-4.091,5.141-8.788c1.253-0.825,2.615-1.924,3.533-3.223l6.574,0.117c0.517,0.48,1.672,2.017,1.672,6.181  c0,7.41-3.406,42.581-10.986,56.933c-0.038,0.074-0.074,0.149-0.106,0.226c-1.02,2.394-1.13,4.516-0.329,6.307  c0.705,1.579,2.058,2.746,3.911,3.376c0.311,0.105,0.637,0.159,0.965,0.159h2.317c0.861,0,1.681-0.37,2.25-1.016  c1.404-1.593,3.957-6.539,6.542-13.235c-0.057,3.554,0.368,7.49,1.542,11.791c0.238,0.87,0.854,1.588,1.68,1.953  c0.065,0.028,0.414,0.181,0.911,0.349c0.31,0.104,0.634,0.158,0.961,0.158h3.101c0.678,0,1.336-0.229,1.867-0.651  c0.889-0.707,1.285-1.544,1.415-1.87c0.19-0.482,0.253-1.005,0.182-1.519c-0.658-4.755-1.257-18.521,3.66-23.418  c1.335,0.503,3.013,1.089,4.544,1.488c-0.914,4.225-2.089,11.435-0.836,16.447c0.306,1.225,1.346,2.127,2.602,2.257  s2.458-0.54,3.009-1.677c3.23-6.671,7.271-14.553,8.186-15.704c0.287-0.29,0.56-0.578,0.798-0.832  c0.353-0.377,0.813-0.863,1.061-1.043c2.998-0.219,9.521-3.616,10.226-10.02c0.445-3.063-1.201-4.264-1.937-4.636  c-2.605-1.32-5.347,0.998-6.404,2.056c-1.417,1.417-3.444,2.146-6.021,2.178c-13.636-1.721-21.179-15.657-21.271-39.288  c0.274-0.823,0.789-1.986,1.283-2.48c1.2-1.2,2.333-2.598,2.982-4.571c4.244,0.976,12.151,2.45,21.229,2.45  c0.702,0,1.382-0.246,1.921-0.695l1-0.833c0.886-0.739,1.27-1.919,0.988-3.038c-0.282-1.118-1.18-1.976-2.31-2.207  c-12.002-2.453-22.933-7.328-22.933-10.227c0-1.76,0.942-3.732,2.034-6.016c1.471-3.075,3.3-6.902,3.3-11.651  c0-4.024-0.672-8.933-4.971-11.74c2.457-0.997,4.759-2.87,6.044-6.344c6.14,0.651,22.521,3.856,25.048,19.56  c2.445,16.749-4.904,23.759-5.219,24.05c-0.842,0.778-1.178,1.978-0.849,3.075s1.244,1.922,2.375,2.108  c0.333,0.055,2.469,0.345,4.957-0.614c1.837,5.613,3.465,13.727,0.659,16.533c-0.662,0.661-0.977,1.593-0.853,2.521  c1.062,7.911,2.298,22.016,1.092,26.184c-0.028,0.098-0.052,0.197-0.069,0.297c-0.636,3.493,0.217,5.801,1.041,8.032  c0.775,2.1,1.577,4.271,1.577,8.338c0,4.025-1.371,6.896-2.823,9.938c-1.48,3.099-3.011,6.304-3.011,10.562c0,1.657,1.343,3,3,3  h7.667c1.186,0,2.26-0.698,2.741-1.781c0.572-1.288,5.592-12.734,5.592-18.052C284.628,213.094,283.976,208.833,283.344,204.713z   M227.664,202.344c0.23-1.038,0.447-2.082,0.65-3.131c0.227,0.529,0.425,1.027,0.571,1.445  C228.536,201.103,228.12,201.663,227.664,202.344z"/>
<path fill="#2B1716" d="M279.295,196.187c0-4,1.334-12.333,0.667-14.5s-1.5-8.833-1.5-11.333s1.833-5.333,1.833-12  s-3.666-15.5-3.666-18.167s2.666-5.167,2.666-12.667c-0.833-4.667-1.833-6.833-1.833-8.833s-0.833-6.5-2.5-8.167s-12-14-14-14  s-20.334-4.167-20.334-4.167s-3.667-16.333-8.833-19.333s-13.833-7.833-13.833-7.833l-15.167-0.167c0,0-11.333,6-12.333,8.833  l-7.501-4c0,0,1.334-10,1.334-15.833s-1.333-8.333,0-9.667s-0.5-7-0.5-7v-1.667c0,0,1.5-4.5,0-6s-3.834-4.667-3.834-4.667  s0.096-1.471-0.006-3.333c-0.132-2.391-0.589-5.428-1.994-6.833c-2.5-2.5-9.166-10.333-20.832-10.333c-11.668,0-23.167,7.5-24,15.5  c-0.064,0.614-0.122,1.157-0.177,1.667c-0.664,6.127-0.76,5.103-1.991,6.333c-1.332,1.333-2.166,3-2.166,5.667s-0.584,5.083-1.5,6  s-1.166,4.167-1.166,6.167s-1.167,7.167-3,10.667c-1.834,3.5-7.001,14-2.668,15.5c4.334,1.5,5.334-8.5,6.5-9.667h0.834v9  L97.461,88.187l-36,6c0,0-6.166,2.167-8.999,5s-7.25,7.25-8.333,8.333c-1.084,1.083-3.334,10-4.834,13.667s-1.834,5.167-1,8.667  s1.667,8.167,0.834,11.167c-0.834,3-7.168,17.667-7.168,27.667s5.5,31.334,5.5,45.667c0,7.341,0.198,13.687,0.581,18.333  c0.364,4.425,0.896,7.31,1.587,8c1.416,1.416,7.832,9.334,7.832,9.334s6.668-1.5,8.501-1.5s13.833,0.666,13.833,0.666l19-3.166  l18.647-13.334l13.52-9.667l3.167-0.166l3.249,3.25h18.917c0,0,9.834-2.584,12.834-3.917s14,4.5,14,4.5l20.832-0.333l11-8.167  l-12.166,4.167h-18l-10-6.5c0,0-2.334-7.501-2.334-8.667s-0.666-5.334,7.834-7s15.667-0.666,18.334-0.666c2.666,0,19,6,19,6  l-14.334-10.167c0,0-15,1.667-18.834,1.667c-3.832,0-10.999,0.5-9.832-7.5c0,0,1.25-0.417,2,0.333s2.666,4,10.5,4  c7.832,0,14.166-5.501,14.166-11.667c0,0,6.166-1.167,6.166-9.5c0,0,5.168-2.333,5.168-8.833c0,0,4.5-2.5,4.5-4.5l9.333,0.167  c0,0,3.833,1.167,3.833,9.167s-3.5,43.501-11.333,58.334c-1.582,3.715,0.2,5.127,1.787,5.666h2.317  c2.302-2.61,10.7-20.716,13.229-39.666c0,0,1.25-0.709,2.25,0.291s4.062,7.688,3.5,8.25s-10.938,11.875-5.75,30.875  c0,0,0.265,0.117,0.657,0.25h3.101c0.357-0.284,0.492-0.625,0.492-0.625s-3-21.5,6.125-27.25c0,0,5.875,2.375,7.875,2.375h0.875  c0,0-3.25,11.75-1.625,18.25c0,0,7.281-15.031,8.688-16.438s2.375-2.812,3.75-2.812s7.062-2.438,7.562-7.438  c0.5-3.25-2.562-0.75-3.25-0.062s-3.125,3.062-8.312,3.062c-7.604-0.896-24.104-6.396-24.104-42.729c0,0,0.75-2.75,2.167-4.167  s2.667-3,2.667-6.167c0,0,10.666,3.167,23.666,3.167l1-0.833c0,0-25.333-5.167-25.333-13.167c0-5.333,5.334-10.167,5.334-17.667  c0-6.333-1.668-11-11.334-11c-1.916,0-3.416-2.75-0.166-2.75s11.666,1.583,13.333-7.5c0,0,26.75,0.5,30.25,22.25  c2.75,18.833-6.167,26.75-6.167,26.75s3.291,0.542,6-2.167c0,0,7.25,17.167,1.25,23.167c0,0,2.833,21.084,1,27.417  c-1,5.499,2.667,6.833,2.667,15.833s-5.834,13-5.834,20.5h7.667c0,0,5.333-11.999,5.333-16.833S279.295,200.187,279.295,196.187z"/>
<path fill="#FFFFFF" d="M208.962,227.021c7.833-14.833,11.333-50.334,11.333-58.334s-3.833-9.167-3.833-9.167l-9.333-0.167  c0,2-4.5,4.5-4.5,4.5c0,6.5-5.168,8.833-5.168,8.833c0,8.333-6.166,9.5-6.166,9.5c0,6.166-6.334,11.667-14.166,11.667  c-7.834,0-9.75-3.25-10.5-4s-2-0.333-2-0.333c-1.167,8,6,7.5,9.832,7.5c3.834,0,18.834-1.667,18.834-1.667l14.334,10.167  c0,0-16.334-6-19-6c-2.667,0-9.834-1-18.334,0.666s-7.834,5.834-7.834,7s2.334,8.667,2.334,8.667l10,6.5h18l12.166-4.167l-11,8.167  l-20.832,0.333c0,0-11-5.833-14-4.5s-12.834,3.917-12.834,3.917h-18.917l-3.249-3.25l-3.167,0.166l-13.52,9.667H210.75  C209.163,232.148,207.38,230.736,208.962,227.021z"/>
<path fill="#FFFFFF" d="M271.795,196.354c1.833-6.333-1-27.417-1-27.417c6-6-1.25-23.167-1.25-23.167c-2.709,2.708-6,2.167-6,2.167  s8.917-7.917,6.167-26.75c-3.5-21.75-30.25-22.25-30.25-22.25c-1.667,9.083-10.083,7.5-13.333,7.5s-1.75,2.75,0.166,2.75  c9.666,0,11.334,4.667,11.334,11c0,7.5-5.334,12.333-5.334,17.667c0,8,25.333,13.167,25.333,13.167l-1,0.833  c-13,0-23.666-3.167-23.666-3.167c0,3.167-1.25,4.75-2.667,6.167s-2.167,4.167-2.167,4.167c0,36.333,16.5,41.833,24.104,42.729  c5.188,0,7.625-2.375,8.312-3.062s3.75-3.188,3.25,0.062c-0.5,5-6.188,7.438-7.562,7.438s-2.344,1.406-3.75,2.812  s-8.688,16.438-8.688,16.438c-1.625-6.5,1.625-18.25,1.625-18.25h-0.875c-2,0-7.875-2.375-7.875-2.375  c-9.125,5.75-6.125,27.25-6.125,27.25s-0.135,0.341-0.492,0.625h38.575c0-7.5,5.834-11.5,5.834-20.5  S270.795,201.853,271.795,196.354z"/>
<path fill="#2B1716" d="M212.629,233.021c0.1,0,0.251-0.122,0.438-0.334h-2.317C211.726,233.019,212.629,233.021,212.629,233.021z"/>
<path fill="#2B1716" d="M228.92,233.062c0.519,0,0.88-0.174,1.133-0.375h-3.101C227.468,232.861,228.21,233.062,228.92,233.062z"/>
<path fill="#FFFFFF" d="M124.42,219.062c0,0,2.25,2.5,13.75,2.5s9.375-0.25,9.375-0.25l9.125-5.875c0,0,1.25-1.375,1.25-6  s-2.25-10.25-17.5-10.25h-3.25L124.42,219.062z"/>
<path fill="#FFFFFF" d="M139.795,194.812c0-0.75,6.75-9,8.625-10.875s8.125-3.375,8.125,4.375s-1.5,8-8.75,8  S139.795,194.812,139.795,194.812z"/>
<path fill="#FFFFFF" d="M178.045,180.562c-3.236,0.306-9.375,0.625-9.375,4s4.125,5,8.125,5s10-2,10-4.625  S182.78,180.115,178.045,180.562z"/>
<path fill="#FFFFFF" d="M212.545,147.937c0,0,2.875,1.875,5.75,1.875s4.875-2.5,4.875-4.125S217.545,147.937,212.545,147.937z"/>
<path fill="#FFFFFF" d="M179.295,169.562c0,0,7.375,6.75,9.875,7.75s4.25,0,3.375-2.625s-9.875-8.875-9.875-10.25s0-4.875,0-4.875  s8.25,7,10.375,7.625s4.625,1,4.625-1.875c0-1.375-10-8.875-10.625-9.5s-0.625-4.5-0.625-4.5s9.75,6.375,11.75,7s4.25,0,4.25-1.625  s-10.938-8.688-12.75-10.5s-1.812-5.5-1.812-5.5s9.938,6.875,12.688,8.125s5.125,0.875,4.5-1.75c-1.5-3.5-14.875-12.75-14.875-12.75  l-1.25-1.25c0,0-2.5-0.625-5.5-0.625s-17.688,10.438-26.125,18.875s-35.375,22.25-43.625,25.75  c-20.125,8.625-33.625,11.75-40.75,17.75s-13.625,14.375-13.625,14.375s-1.375,0.875-1.375-2.5c0-7.125,4.375-8.5,4.375-11  s-6.125-4.25-6.125-12s0-11.25,1.75-9.5s3.5,13.5,8.75,13.5s21.125-6.375,21.125-11.625s0.75-21.25,0.75-21.25  s-6.375-7.625-6.375-11.75c0,0-17.25,4.375-23.25,3c0,0,18.75-7.75,21.25-11.5s4.5-13.125,6.75-15.375s8.5-11.75,10.25-11.75  c0.875,0.875-1.625,4.875-2.75,8.5s-4.75,16.5-4.75,20.125s3.875,10.625,26,9s34-3.625,35.625-22.25l1-10.625  c0,0-4.75-8.875-16.375-8.875c-9.875,0-14.062-4.562-14.875-5.375s31.312,1.188,36.75,6.625c0,0,0.375,0.75,1.875-0.75  s4.125-3.25,5.875-3.25s4.25-0.625,4.25-2.5s11.125-15.5,19-7.625c3.062,3.062,2.25,0,2.25,0c-1.625-1.625-5.75-3.75-5.75-5.875  s1-7.125-2-7.125c-1.625,0-1,5.125-1,5.125v2.875h-1.25c0,0-2.875-3.25-3.875-7.5s0.125-14.25-4.25-17.625s-3,1.75-3,4.625  s-0.625,9.375-5,12.375c-2.812,1.438-3.25,11.375-3.25,11.375l-1,1l-0.625-0.625V76.187l-0.688-0.688v-0.812v-0.875  c0,0,4.312-3.75,4.312-10.375s-0.25-11.75-8.375-11.75s-10.625,13.25-6.75,22.75v0.75h-0.625c0,0-6.375-3.5-6.375-14.5v-2.125  l-0.5-0.5c0,0-3.875,4.75-5.375,10.625s-5.375,22.75-5.375,22.75l-0.75,0.75h-0.625l-0.375-0.375l-0.5-0.5v-10.75  c0,0-14.375,5.375-20.625,8.75s-19.875,7.25-31.25,8.25s-12.375,2.5-12.375,2.5l-12.5,10.25c0,0-4.25,12.125-3.25,19.875  c1,4.003,7.562,14.312,7.562,14.312l-7.438,0.062c0,0-2.125,4-5.125,17.25s-1,18.5-1,18.5s1.5,23.375,1.5,33.375  s1.062,21.562,4,24.5s5.5,4.25,8.875,4.25s9.25,0,12.375,0s10.75-1.875,13-1.875s5.25,0,5.25,0s25-17.625,28.875-23  s17.438-28.562,23.75-34.875s10.875-7.5,17.5-5.875S166.17,180.312,179.295,169.562z"/>
<path fill="#FFFFFF" d="M156.545,7.562c-5.5,0-17.375,1.625-20.125,11v1.25h0.875c0,0,5.5-4.5,11.5-4.5s5.375,1.875,5.375,2.5  s-2.625,4.625-8.125,4.625s-12.125,3.125-12.125,5.25s2.625,6.5,11.5,2.125c0,0,0.5,1.5-0.375,1.5s-12.625,6.125-12.625,21.125  c-0.312,6.938,3.125,3.5,3.125,3.5s10.25-13.375,20.375-13.375s21.125,13.625,21.125,13.625l1.25,1.25c0,0,1.875,0.625,1.875-5.5  s-4.875-16.375-13.125-21l-0.5-0.5L166.983,30c0,0,2.562,2.562,7.062,1.938s4-2.375,4-3.875s-4.875-6-11.375-6  s-8.375-3.875-8.375-4.625s-0.125-2.25,6.25-2.25s7.938,4.562,9.125,4.25s1.375,0,1.375-1S172.045,7.562,156.545,7.562z"/>
<path fill="#0B0B0C" d="M163.295,28.521c-1.668-3.167-6.584-7.333-6.584-7.333s-4.916,4.167-6.582,7.333c0,0-0.25,1.458,1.458,1.458  s5.124,0,5.124,0s3.417,0,5.125,0S163.295,28.521,163.295,28.521z"/>
<path d="M140.961,44.187h0.834c0,0,6.166-6,7.5-6.333h12.916l8.25,5.583l0.25-0.25l-7.832-8.833h-12  C150.879,34.354,144.836,38.312,140.961,44.187z"/>
<path fill="#FFFFFF" d="M125.879,55.771l0.958,0.958c0,0-2.25,9.583-3.792,11.125s-2.25,0.25-2.25-0.917  S123.879,56.604,125.879,55.771z"/>
<path fill="#FFFFFF" d="M129.711,39.604c0,0-1.499,2.167-1.082,3.5C129.045,44.437,130.976,42.136,129.711,39.604z"/>
<path fill="#FFFFFF" d="M181.462,39.687c0,0-0.583,3.5,0.667,3.5S184.129,41.604,181.462,39.687z"/>
<path fill="#FFFFFF" d="M171.312,131.287c0,0-7.72-8.938-7.178-20.314v-1.354h-0.677l-2.031,2.032l0.812,19.636l4.198,4.198  L171.312,131.287z"/>
<path fill="#FFFFFF" d="M153.707,145.101l0.136,1.219l-9.345,6.636l-46.315,22.21h-1.761c0,0-3.521-10.021,2.302-18.418  C98.723,156.748,122.422,158.914,153.707,145.101z"/>
<path fill="#F4B939" d="M227.045,101.187c3.75,0,7.062,0.625,7.062-3.312s1.812-15.812-3.938-20.188s-13.375-8-17.875-8  s-9,0.25-9,0.25s-6.188,2.438-8.375,6.5s-3.875,7.125-0.5,10.5s5,5.25,3.375,6.875s-8,6.125-11.125,3.875  c-3.125-3.125-10.25-5.75-15.25,8.375c-3.75,10.75,2.875,21.375,7.5,21.375c4,0,8.75-1.625,10.25-1.625s11.938,10.438,11.938,10.438  s5.062,6.188,9.688,6.188s20.812-5.562,21.125-26c0-2.125-3.75-2-7.625-2s-6.5-2.875-6.5-7.125S221.92,101.187,227.045,101.187z"/>
<path fill="#2B1716" d="M222.589,232.715c0,0-1.21-8.094-0.745-9.676h-0.557l-3.536,8.839v0.558l0.058,0.221  C217.809,232.657,218.938,233.93,222.589,232.715z"/>
<polygon fill="#2B1716" points="227.433,198.559 228.379,198.946 229.456,200.667 228.982,201.958 227.26,204.368 226.895,204.734   226.486,203.851 "/>
<g>
</g>
<g>
</g>
<g>
</g>
<g>
</g>
<g>
</g>
<g>
</g>
<g>
</g>
<g>
</g>
<g>
</g>
<g>
</g>
<g>
</g>
<g>
</g>
</svg>