<?xml version="1.0" encoding="UTF-8"?>
<svg id="Layer_1" xmlns="http://www.w3.org/2000/svg" version="1.1" viewBox="0 0 309.7544 415.724">
  <!-- Generator: Adobe Illustrator 29.1.0, SVG Export Plug-In . SVG Version: 2.1.0 Build 142)  -->
  <defs>
    <style>
      .st0 {
        fill: #2034bc;
      }
    </style>
  </defs>
  <path class="st0" d="M184.896,304.1048h13.684l.8596-5.548h-20.9348l-4.532,28.8404h7.2508l1.8972-12.1104h12.1104l.858-5.5084h-12.1084l.9152-5.6736Z"/>
  <path class="st0" d="M203.7196,298.5568l-4.532,28.8404h7.2508l4.532-28.8404h-7.2508Z"/>
  <path class="st0" d="M236.9736,298.5568l-4.532,28.8404h7.2508l4.532-28.8404h-7.2508Z"/>
  <path class="st0" d="M256.9396,298.5568l-13.9668,28.84h7.3116l2.624-5.6516h9.6508l.7672,5.6516h7.576l-4.244-28.84h-9.7188ZM261.8344,316.56h-6.5556l5.0788-10.914,1.4768,10.914Z"/>
  <path class="st0" d="M297.2912,298.5568l-2.9396,18.7184-7.3092-18.7184h-8.1588l-4.532,28.8404h6.928l2.9392-18.7188,7.3096,18.7188h8.1584l4.5324-28.8404h-6.928Z"/>
  <path class="st0" d="M218.0604,327.5576c-.216,0-.4352-.0028-.658-.0088-2.8228-.0728-5.4788-1.0996-6.4492-1.5176l.8232-5.1336c1.0332.4448,2.9676,1.2044,4.208,1.2432.0968.0032.1924.0048.2864.0048,2.4572,0,3.6976-1.2588,4.282-4.3444.5664-2.9932,2.5624-16.4316,2.9712-19.1936h7.1804c-.3712,2.5852-1.764,12.1956-2.984,19.3624-1.3648,8.0188-4.5756,9.5876-9.66,9.5876Z"/>
  <path class="st0" d="M44.584,335.756H12.3739L.1562,413.504h32.2101c27.9892,0,41.762-11.66,46.0936-38.874,4.3316-27.212-5.8868-38.874-33.876-38.874ZM55.1356,374.63c-2.5548,16.3272-8.9968,23.3248-21.4365,23.3248h-8.8855l7.3306-46.6492h8.8854c12.44,0,16.6604,6.9972,14.106,23.3244Z"/>
  <path class="st0" d="M132.3276,335.756h-36.6532l-5.8468,37.2084,23.6736-9.164,1.9436-12.4948h13.3284c6.6644,0,9.33,4.4428,8.4412,9.9964-.8696,5.4348-4.7248,9.7944-11.1352,9.9784l-36.584,3.8004-6.038,38.4232h22.2136l4.3316-27.7672h9.108l10.9956,27.7672h23.3248l-12.8844-29.9884c11.4404-3.7764,17.216-11.8844,18.882-22.2136,2.1104-13.3288-4.8872-25.546-27.1008-25.546Z"/>
  <path class="st0" d="M241.7264,335.756h-22.214l-7.6636,48.8704c-1.666,10.1072-5.9976,14.4388-14.55,14.4388s-11.5512-4.3316-9.8852-14.4388l7.6636-48.8704h-22.2136l-7.664,48.8704c-3.4432,21.7696,5.3316,31.0976,29.4336,31.0976s35.9864-9.328,39.4296-31.0976l7.6636-48.8704Z"/>
  <path class="st0" d="M299.4828,335.756h-31.0996l-24.0032,50.9168,25.508-9.7644,9.9356-22.604,3.2212,30.322h-.184l-39.4484,4.0976-11.682,24.78h22.214l6.22-14.4388h24.324l1.5552,14.4388h23.4356l-9.9964-77.748Z"/>
  <path class="st0" d="M224.8804,131.0016l-172.56,18.3516c12.5312,4.4696,47.346,15.8852,103.9004,26.8948,97.318,18.9448,153.034,13.0396,153.034,13.0396,0,0-13.5312-53.2312-52.004-100.326C190.114,6.779,139.7264,0,139.7264,0c0,0,1.8888,11.6214-2.7228,32.6502l36.1876,3.8411,1.4008,1.0778-39.8484,4.164c-1.3968,5.0356-3.1428,10.4868-5.3212,16.3344l59.8148,5.4776,1.4024,1.0928-66.7812,7.0192c-2.6468,5.94-5.7188,12.2068-9.274,18.7796l90.7904,4.6772,1.4012,1.0816-103.3472,10.8624c-6.084,7.3028-13.0128,13.612-19.8828,18.9276l139.9344,3.9472,1.4,1.0688Z"/>
  <path class="st0" d="M0,233.02l.3677,3.4984c7.2628,6.1292,35.7079,27.0184,84.0147,21.9412l147.7552-15.53c48.3064-5.0772,71.7868-31.4236,77.6168-38.9292l-.368-3.4984L0,233.02Z"/>
  <path class="st0" d="M34.3281,274.6012l.237,2.2544c4.6804,3.95,23.0109,17.4112,54.1409,14.1392l95.1952-10.0052c31.13-3.272,46.2612-20.25,50.018-25.0868l-.2368-2.2544-199.3543,20.9528Z"/>
</svg>