<?xml version="1.0" encoding="utf-8"?>
<!-- Generator: Adobe Illustrator 22.0.1, SVG Export Plug-In . SVG Version: 6.00 Build 0)  -->
<svg version="1.1" id="Layer_1" xmlns="http://www.w3.org/2000/svg" xmlns:xlink="http://www.w3.org/1999/xlink" x="0px" y="0px"
	 viewBox="0 0 518.3 660.5" style="enable-background:new 0 0 518.3 660.5;" xml:space="preserve">
<style type="text/css">
	.st0{fill:#010102;}
	.st1{fill:#FBB040;}
</style>
<path class="st0" d="M0,321.6c4,12.2,9.1,22.1,15.6,31.4c17.1,24.5,40.5,39,69.9,43.9c22.5,3.8,44.7,1.3,66.6-4.1c0-0.5,0-1,0-1.5
	c-6,0-12,0.4-18-0.1c-31.3-2.2-60.8-10.5-86.8-28.5c-36.1-25.1-49-59.9-41.8-102.7c4.2-24.6,14.2-46.9,27-68.3
	c-1.9,6.6-3.9,13.1-5.6,19.7c-5.8,22.9-8.8,45.9-1.9,69.1c7.1,23.7,22.5,40,46.1,47.3c29,9,58.6,7.2,88.1,2c3.1-0.5,6.2-1.1,9.3-1.8
	c5.4-1.1,5.5-1.3,2.4-5.8c-10.2-14.6-16.2-30.9-19-48.4c-4.4-28.1-0.6-55.5,8.4-82.2c11.4-33.8,27.3-65.1,51.1-92
	c9.6-10.8,19.9-20.6,33.8-25.9c6.5-2.5,13.2-3.1,20.6-3.2c-1.7,3.5-4.3,5.3-7.6,6.1c-1.5,0.3-3,0.4-4.4,0.9c-1.8,0.7-3.3,2-2.8,4.1
	c0.5,2.4,2.3,3.1,4.5,3c2.4-0.1,4.3-1.6,6.2-2.9c6.1-4,9.9-2.4,10.4,4.8c0.3,4.9,2,4.5,4.9,2c2.4-2.1,5-3.9,7.2-6.2
	c6.3-6.5,5.4-9.7-4.3-12.7c13.7-3.4,26.4-6.5,39.7-9.8c-2.1,5.1-5.2,8.9-8.1,12.8c-11.8,16.1-24.8,30.9-42.1,41.4
	c-9.5,5.8-19.7,8.9-30.9,7.6c-2.4-0.3-3.8,0.3-4.9,2.4c-16.4,31.1-28.4,63.3-25.7,99.2c1.1,15.2,5.2,29.5,13.9,42.3
	c7,10.3,17.4,15.8,28.6,19.9c19.9,7.4,40.3,7.5,60.6,2.4c58.1-14.7,106.1-45.1,141.1-94.3c19.5-27.5,31.6-58.2,34.6-92
	c1.2-13.8,0.7-27.6-3.9-41c-0.4-1.1-0.7-1.9,0.4-2.5c1.1-0.6,1.3,0.8,1.7,1.3c6.1,7.5,9.7,16.2,12.6,25.3c8,25.6,7.1,51.6,2.2,77.6
	c-7.2,38.3-26.8,69.9-52.6,98.2c-13.8,15.2-29,28.9-44.6,42.3c-1.1,0.9-2.6,1.6-2.7,4.8c31.9-15.2,57.6-36.6,78.4-64
	c20.9-27.6,33.6-58.8,39.6-92.9c1.4,13.8,0.5,27.4-2.1,40.9c-7,36.7-24.8,68-49,95.9c-28,32.2-61.6,57.2-98.8,77.8
	c-0.6,0.3-1.1,0.7-1.8,1.3c2.6,1.1,4.8,0.7,7.1,0c25.8-7.4,47.9-21.4,68.7-37.8c1.3-1.1,2.3-3.1,4.9-2.1
	c-10.1,14.8-22.6,27.4-35.7,39.3c-41.4,37.7-89.6,63.9-142.5,81.7c-33.8,11.4-68.5,17.1-104.2,15.5c-35.9-1.6-69.8-10-100.3-29.8
	c-1-0.6-2-1.2-2.7-3.8c42.7,13.6,84.9,13.9,128,0.8c-2.9-1.5-4.8-0.9-6.7-0.8c-33.3,1.7-66.3,0.9-98.7-8.2
	C58,414.2,35,402,18.8,379.6C6.6,362.8,1.1,343.7,0,321.6z"/>
<path class="st0" d="M129.2,191.6c-2.9,15.7-9.1,30.3-16.4,44.3c-11.6,22.3-26.4,42.4-43.6,60.7c-2.8,3-4.3,3-6.9-0.1
	c-13.2-15.2-19.7-33.2-20.9-53c-2.4-38.8,8.2-73.7,33.2-103.9c26.7-32.4,57-60.6,92.8-82.7c7-4.3,14.1-8.7,22.4-12.2
	c-0.9,5.2-3.6,8.8-6,12.5c-14.8,23.1-32.9,43.5-51.4,63.6c-13.1,14.2-26.5,28.1-40.2,42.7c2.9,0,4.8-1.2,6.8-2.5
	c18.6-12.3,35.1-26.9,51.1-42.3c1.6-1.6,3-3.6,5.6-4.6c0.5,3.5-1.1,6.3-2.1,9.1c-9.6,26.2-25.1,48.7-42.2,70.4
	c-12.1,15.3-25.2,29.6-39.1,43.4c2.5,1.4,3.7-0.5,5-1.5c17-13.1,33.8-26.4,48.8-41.8c0.9-0.9,1.7-2.1,3.3-2L129.2,191.6z"/>
<path class="st0" d="M418.2,212.6c2.3-8.7,7-16.4,10-24.9c10.3-28.8,17.5-58.1,14.3-89c-4.2-39.9-25.9-66.8-62.2-82.5
	c-17.4-7.5-35.7-11.8-54.5-13.9c-1.8-0.2-3.6-0.5-5.4-0.8c0-0.6,0-1.1,0-1.7c6.8,0,13.6,0,20.4,0c25.1,0,49.8,2.5,73.6,11.3
	c35.8,13.2,55.8,41.4,56.7,79.5c0.7,31.4-9.7,59.5-25.2,86.1c-6.7,11.4-14.5,22-23.4,31.7c-1.3,1.5-2.5,3.1-4.4,3.9L418.2,212.6z"/>
<g>
	<polygon class="st1" points="65.2,588.2 104.7,588.2 109,566.1 41.7,566.1 34.5,603.3 21.4,603.3 17.2,624.2 30.4,624.2 
		23.6,659.2 51.4,659.2 58.2,624.3 88.5,624.3 92.5,603.4 62.3,603.4 	"/>
	<path class="st1" d="M152.2,566.3c-27.9,0-47.7,20-53,47.4c-5.1,26,6.9,46.9,34.6,46.9c27.8,0,47.8-20.8,52.9-46.9
		C192.1,586.3,180.1,566.3,152.2,566.3z M156.7,613.8c-1.7,8.8-5.9,25.8-18.7,25.8c-12.8,0-10.5-17-8.7-25.8
		c1.7-8.9,6.6-26.8,18.9-26.8C160.6,587,158.5,604.9,156.7,613.8z"/>
	<path class="st1" d="M279.7,595.1c1.7-8.9-0.3-17.1-7-21.9c-5.9-4.5-14.6-5.6-22.5-5.6h-46.6l-17.8,91.5h28.4l6.8-35h8.8l6.5,35
		h31.2l-8.8-39.9C270.6,614.4,277.3,607.1,279.7,595.1z M250.3,595.8c-1.5,7.9-9.1,8.8-15.2,8.8h-10.3l3.4-17.5h11.3
		c2.7,0,5.6,0,7.8,1.2C249.8,589.8,250.9,592.7,250.3,595.8z"/>
	<path class="st1" d="M357.8,625.8l-25.3-1.6c-1.9,7.6-6.7,15.2-15.4,15.2c-12.7,0-10.2-15.6-8.4-24.8c1.7-8.7,5.9-27.8,18.4-27.8
		c9.5,0,10.5,9.7,8.8,17.5l26.4-1.3c2.6-22.9-8.1-36.7-31.4-36.7c-28.8,0-45.8,21.9-50.9,48.3c-5.1,26,5.5,45.9,33,45.9
		C334,660.5,352,646.9,357.8,625.8L357.8,625.8z"/>
	<polygon class="st1" points="357.7,659.2 426.5,659.2 430.7,637.3 389.5,637.3 392.4,622.5 425.7,622.5 429.7,602.1 396.3,602.1 
		398.9,588.7 440.2,588.7 444.3,567.6 375.5,567.6 	"/>
	<polygon class="st1" points="53.2,553.6 71.5,513.8 74.9,553.6 81.3,553.6 103.7,502.2 98.1,502.2 80.4,543.9 80.3,543.9 
		76.7,502.2 71.5,502.2 52.6,543.9 52.4,543.9 50.3,502.2 43.7,502.2 46.7,553.6 	"/>
	<polygon class="st1" points="150,548.1 123.2,548.1 126.9,529.3 147.6,529.3 148.6,524.1 127.9,524.1 131.1,507.7 157.1,507.7 
		158.2,502.2 125.7,502.2 115.7,553.6 149,553.6 	"/>
	<path class="st1" d="M190.2,554.4c4.6,0,9.8-0.9,14.1-3.8c4.3-2.8,7.1-7,8-11.7c0.8-4-0.1-7.6-2.8-10.2c-2.2-2.2-5.4-3.2-8.6-4
		l-7.4-1.9c-4.6-1.1-8.8-2.4-7.7-8.1c1.1-5.6,7.7-8.2,12.6-8.2c5.5,0,10.8,3.5,10.8,9.1l6.1-1.6c-1.2-8.3-7.2-12.6-15.9-12.6
		c-8.9,0-18.3,4.3-20.2,14.2c-0.7,3.6,0.1,7.1,2.3,9.5c2.2,2.5,5.2,3.3,8.5,4.1l8.2,2.1c4.3,1.1,8.1,3.2,7.1,8.4
		c-0.5,2.5-2.2,5.1-4.4,6.6c-2.8,1.9-6.7,2.5-9.7,2.5c-7.2,0-12.5-3.3-13.2-10.4v0l-6,1.3C173.7,549.7,179.7,554.4,190.2,554.4z"/>
	<polygon class="st1" points="243.2,553.6 249.7,553.6 258.6,507.8 273.2,507.8 274.3,502.2 238.6,502.2 237.5,507.8 252.2,507.8 	
		"/>
	<polygon class="st1" points="320.9,548.1 294.1,548.1 297.7,529.3 318.4,529.3 319.4,524.1 298.7,524.1 301.9,507.7 328,507.7 
		329,502.2 296.5,502.2 286.5,553.6 319.8,553.6 	"/>
	<path class="st1" d="M353.9,531.4h14.3l5.2,22.3h6.8l-5.5-23.8c6.3-1.6,11-7.1,12.1-13.2c0.9-4.4-0.3-8.6-3.3-11.3
		c-2.9-2.6-6.9-3.1-11.1-3.1h-19.3l-10,51.4h6.4L353.9,531.4z M358.5,507.7h12.8c2.7,0,4.9,0.1,6.8,1.7c2.1,1.7,2.8,4.1,2.2,7.1
		c-0.5,2.5-1.8,5-3.9,6.7c-3.1,2.6-6,2.9-9.4,2.9v0H355L358.5,507.7z"/>
	<polygon class="st1" points="418.5,508.8 435.9,553.6 442.2,553.6 452.2,502.2 446.8,502.2 438.7,544.1 422.5,502.2 414.4,502.2 
		404.4,553.6 409.8,553.6 	"/>
</g>
</svg>
