<?xml version="1.0" encoding="utf-8"?>
<!-- Generator: Adobe Illustrator 26.0.1, SVG Export Plug-In . SVG Version: 6.00 Build 0)  -->
<svg version="1.1" id="Layer_1" xmlns="http://www.w3.org/2000/svg" xmlns:xlink="http://www.w3.org/1999/xlink" x="0px" y="0px"
	 viewBox="0 0 365 519.6" style="enable-background:new 0 0 365 519.6;" xml:space="preserve">
<style type="text/css">
	.st0{fill:#F5821F;}
	.st1{fill:#0CACBA;}
</style>
<g id="Group">
	<path id="Path" class="st0" d="M115.4,111.6c2.4-2.2,5-4.3,7.6-6.2c0.6-0.4,0.7-1.2,0.3-1.7c-0.4-0.6-1.2-0.7-1.7-0.3
		c-2.7,2-5.3,4.1-7.8,6.4c-0.5,0.5-0.5,1.3-0.1,1.8c0.2,0.3,0.6,0.4,0.9,0.4C114.9,111.9,115.2,111.8,115.4,111.6"/>
	<path id="Path_00000049211710978653344370000015787361253051635865_" class="st0" d="M102.2,126c1.9-2.6,4-5.1,6.2-7.5
		c0.5-0.5,0.4-1.3-0.1-1.8c-0.5-0.5-1.3-0.4-1.8,0.1c-2.2,2.5-4.4,5.1-6.4,7.7c-0.4,0.6-0.3,1.3,0.3,1.7c0.2,0.2,0.5,0.2,0.7,0.2
		C101.6,126.5,102,126.3,102.2,126"/>
	<path id="Path_00000046302286581702816880000010708091689305074609_" class="st0" d="M167.8,86.9c3.2-0.5,6.5-0.8,9.7-0.9
		c0.7,0,1.2-0.6,1.2-1.3c0-0.7-0.6-1.2-1.3-1.2c-3.3,0.2-6.7,0.5-10,1c-0.7,0.1-1.2,0.7-1.1,1.4c0.1,0.6,0.6,1.1,1.2,1.1
		C167.6,86.9,167.7,86.9,167.8,86.9"/>
	<path id="Path_00000065767929797414622730000016961351963689309836_" class="st0" d="M148.4,91.7c0.1,0,0.3,0,0.4-0.1
		c3.1-1.1,6.2-2,9.4-2.8c0.7-0.2,1.1-0.8,0.9-1.5c-0.2-0.7-0.8-1.1-1.5-0.9c-3.2,0.8-6.5,1.8-9.6,2.9c-0.7,0.2-1,0.9-0.8,1.6
		C147.4,91.3,147.9,91.7,148.4,91.7"/>
	<path id="Path_00000107553429623327622920000004161729182669462929_" class="st0" d="M84,162c0.1,0,0.2,0,0.3,0
		c0.6,0,1.1-0.4,1.2-0.9c0.8-3.1,1.7-6.3,2.8-9.4c0.2-0.6-0.1-1.4-0.8-1.6c-0.6-0.2-1.4,0.1-1.6,0.8c-1.1,3.1-2.1,6.4-2.9,9.6
		C83,161.2,83.4,161.9,84,162"/>
	<path id="Path_00000118373954430744120360000015050600373059310480_" class="st0" d="M81.2,170.3c-0.5,3.2-0.8,6.5-1,9.7
		c0,0,0,0.2,0,0.2c0,0.7,0.5,1.2,1.2,1.2c0,0,0,0,0,0c0.7,0,1.2-0.6,1.3-1.3c0.2-3.2,0.5-6.4,1-9.5c0.1-0.7-0.4-1.3-1.1-1.4
		C81.9,169.2,81.3,169.7,81.2,170.3"/>
	<path id="Path_00000144328383998548015090000009432254685602710919_" class="st0" d="M187.6,85.9c3.2,0.2,6.3,0.5,9.4,0.9
		c0.1,0,0.1,0,0.2,0c0.6,0,1.1-0.4,1.2-1.1c0.1-0.7-0.4-1.3-1.1-1.4c-3.2-0.5-6.4-0.8-9.7-1l-0.3,0c-0.7,0-1.3,0.5-1.3,1.2
		c0,0.7,0.5,1.3,1.2,1.3L187.6,85.9L187.6,85.9z"/>
	<path id="Path_00000023984418128608423630000009869550385193366948_" class="st0" d="M91,143.4c0.5,0,0.9-0.3,1.1-0.7
		c1.4-2.9,2.9-5.8,4.6-8.6c0.4-0.6,0.2-1.4-0.4-1.7c-0.6-0.4-1.4-0.2-1.7,0.4c-1.7,2.9-3.3,5.8-4.7,8.8c-0.3,0.6,0,1.4,0.6,1.7
		C90.7,143.4,90.8,143.4,91,143.4"/>
	<path id="Path_00000166654294739120928090000016213641136226686857_" class="st0" d="M182.6,98c48.2,0,87.4,39.1,87.5,87.2h5
		C275,134.4,233.5,93,182.6,93c-50.9,0-92.4,41.4-92.5,92.2h5C95.2,137.1,134.4,98,182.6,98"/>
	<path id="Path_00000111874155987391674380000016044440507793524624_" class="st0" d="M131.1,99.9c2.8-1.7,5.7-3.2,8.6-4.6
		c0.6-0.3,0.9-1,0.6-1.7c-0.3-0.6-1-0.9-1.7-0.6c-3,1.4-6,3-8.8,4.7c-0.6,0.4-0.8,1.1-0.4,1.7c0.2,0.4,0.6,0.6,1.1,0.6
		C130.7,100.1,130.9,100,131.1,99.9"/>
	<path id="Path_00000065036023768445002170000003217309900158903727_" class="st0" d="M216,91.6c0.1,0,0.3,0.1,0.4,0.1
		c0.5,0,1-0.3,1.2-0.8c0.2-0.6-0.1-1.4-0.8-1.6c-3.1-1.1-6.4-2.1-9.6-2.9c-0.7-0.2-1.3,0.2-1.5,0.9c-0.2,0.7,0.2,1.3,0.9,1.5
		C209.8,89.5,213,90.5,216,91.6"/>
	<path id="Path_00000046335873390932877420000009027612517161587841_" class="st0" d="M282.1,180.4c0,0.7,0.6,1.2,1.2,1.2
		c0,0,0,0,0.1,0c0.7,0,1.2-0.6,1.2-1.3c-0.2-3.3-0.5-6.7-1-10c-0.1-0.7-0.7-1.1-1.4-1.1c-0.7,0.1-1.2,0.7-1.1,1.4
		C281.6,173.9,282,177.2,282.1,180.4"/>
	<path id="Path_00000108293595368139644210000011230120605658975136_" class="st0" d="M104.6,185.2h13c0.1-35.7,29.2-64.8,65-64.8
		s64.9,29,65,64.8h13l-8.3-6.6c-0.1-1.5-0.3-3-0.6-4.5l6.6-8.8l-10.1-4.4c-0.5-1.5-1.1-2.9-1.8-4.3l4.1-10.2l-10.9-1.6
		c-0.9-1.3-1.8-2.5-2.8-3.7l1.3-10.9l-10.9,1.3c-1.2-1-2.5-2-3.8-2.9l-1.6-10.8l-10.1,4c-1.5-0.7-2.9-1.3-4.5-1.9l-4.3-10l-8.7,6.5
		c-1.6-0.3-3.2-0.5-4.8-0.6l-6.7-8.5l-6.7,8.5c-1.6,0.2-3.2,0.4-4.8,0.6l-8.7-6.5l-4.3,10c-1.5,0.6-3,1.2-4.5,1.9l-10.1-4l-1.6,10.8
		c-1.3,0.9-2.6,1.9-3.8,2.9l-10.9-1.3l1.3,10.9c-1,1.2-1.9,2.5-2.8,3.7l-10.9,1.6l4.1,10.2c-0.6,1.4-1.2,2.8-1.8,4.3l-10.1,4.4
		l6.6,8.8c-0.2,1.5-0.4,3-0.6,4.5L104.6,185.2L104.6,185.2z"/>
	<path id="Shape" class="st0" d="M364.5,149l-0.5-2.4c-1.1-5-2.3-10-3.8-14.8l-0.7-2.4l-3,0.9c-1-3.2-2.1-6.4-3.3-9.5l2.9-1.2
		l-0.9-2.3c-1.9-4.7-4-9.4-6.2-14l-1.1-2.2l-2.9,1.4c-1.5-3-3.1-5.9-4.8-8.8l2.7-1.6l-1.3-2.1c-2.6-4.4-5.5-8.7-8.5-12.8l-1.5-2
		l-2.6,1.9c-2-2.7-4.1-5.3-6.2-7.9l2.4-2.1l-1.6-1.9c-3.3-3.9-6.8-7.6-10.4-11.2l-1.8-1.8l-2.3,2.3c-2.4-2.3-4.9-4.6-7.4-6.8
		l2.1-2.5l-1.9-1.6c-3.9-3.3-8-6.4-12.1-9.4l-2-1.4l-1.9,2.6c-2.8-1.9-5.6-3.8-8.5-5.5L279,27l-2.2-1.3c-4.4-2.6-8.9-5-13.5-7.3
		l-2.2-1.1l-1.4,2.9c-3-1.4-6.1-2.7-9.3-4l1.2-3l-2.3-0.9c-4.8-1.8-9.6-3.5-14.5-4.9l-2.4-0.7l-0.9,3.1c-3.2-0.9-6.5-1.7-9.8-2.4
		l0.6-3.2l-2.4-0.5c-5-1-10.1-1.8-15.1-2.4L202.2,1l-0.4,3.2c-3.3-0.3-6.7-0.6-10-0.8l0.1-3.2l-2.5-0.1c-5.1-0.2-10.3-0.2-15.3,0
		l-2.5,0.1l0.1,3.3c-3.4,0.2-6.7,0.5-10,0.9l-0.4-3.3l-2.5,0.3C153.7,2.1,148.6,3,143.6,4l-2.4,0.5l0.7,3.3
		c-3.3,0.8-6.5,1.6-9.8,2.5l-1-3.2l-2.4,0.7c-4.9,1.5-9.7,3.2-14.5,5l-2.3,0.9l1.2,3.1c-3.1,1.3-6.2,2.6-9.2,4.1l-1.5-3l-2.2,1.1
		c-4.6,2.3-9.1,4.7-13.5,7.3l-2.1,1.3l1.8,2.9c-2.9,1.8-5.6,3.6-8.4,5.6l-2-2.8l-2,1.5c-4.1,3-8.2,6.2-12.1,9.5L60,46l2.3,2.6
		c-2.5,2.2-5,4.5-7.4,6.8L52.4,53l-1.8,1.8c-3.6,3.6-7.1,7.4-10.4,11.3L38.7,68l2.7,2.2c-2.1,2.6-4.2,5.3-6.1,8l-2.9-2l-1.4,2
		c-3,4.1-5.8,8.5-8.4,12.9l-1.3,2.1l3,1.8c-1.7,2.9-3.3,5.9-4.8,8.9l-3.2-1.5l-1.1,2.2c-2.2,4.6-4.3,9.3-6.1,14.1l-0.9,2.3l3.3,1.3
		c-1.2,3.1-2.2,6.3-3.2,9.5l-3.3-1l-0.7,2.4C2.8,138,1.5,143,0.5,148L0,150.4l3.4,0.7c-1.8,9.3-2.8,18.9-3.1,28.7
		c0.2-5.1,0.7-10.1,1.3-15.1c0.4,1.4,1.4,3.9,4.2,6.6c0.9-11,2.7-21.7,5.5-32.1l15.1,11.9c-1.8,8.5-3,17.2-3.4,25.9l-4.4,1.9
		c2.1,0.8,4.6,1.6,7.3,2.3l20.4-8.8c-0.4,4-0.5,7.8-0.6,11.6h-4.5c2.9,0.4,6.1,0.7,9.4,0.9v-0.1c0-5.2,0.3-10.5,1-16.1l0.1-0.5
		l0.2-1.7c0.1-0.7,0.2-1.3,0.3-1.9c0.6-0.9,1.3-1.6,2.2-2.2c0.8-0.5,1.6-0.9,2.5-1.2c-1.1,5.7-1.9,11.6-2.2,17.5
		c-0.1,2.1-0.2,4.3-0.2,6.4c0.4,0,0.7,0,1.1,0.1H57c0-2.1,0-4.2,0.2-6.3c0.3-6.2,1.1-12.2,2.3-18.1c0.5,0,1,0,1.5,0.1
		c0.4,0.1,0.7,0.2,1.1,0.3c-1.2,5.8-2,11.7-2.3,17.8c-0.1,2.1-0.2,4.1-0.2,6.2h2.5c0-2,0-4,0.2-6.1c0.3-5.8,1.1-11.4,2.1-16.9
		c2.9,1.9,4.5,5.4,3.9,9c0,0.3,0,0.5,0.1,0.7c-0.5,4.3-0.8,8.8-0.8,13.2h5c0.1-60.5,49.4-109.7,110-109.7
		c60.6,0,109.9,49.2,110,109.7h5c0-5.9-0.5-11.8-1.3-17.5c0.3,0.3,0.6,0.6,1,0.9c1.4,1,2.9,1.6,4.5,1.9c0.6,4.8,0.9,9.8,0.9,14.8
		h2.5c0-4.9-0.3-9.8-0.9-14.6c0.5,0,1,0,1.5-0.1c0.4-0.1,0.8-0.2,1.1-0.3c0.6,5,0.9,10,0.9,15.1h1.7c0.3,0,0.5,0,0.8,0
		c0-5.4-0.4-10.7-1-16c1.6-0.9,2.9-2.1,3.9-3.5c0,0.3,0.1,0.6,0.2,0.9l0.2,1.7l0.1,0.5c0.7,5.6,1,10.9,1,16.1v0.1
		c3.3-0.2,6.4-0.5,9.3-0.9h-4.3c0-3.8-0.2-7.6-0.6-11.6l20.3,8.8c2.7-0.7,5.1-1.5,7.3-2.3l-4.3-1.9c-0.4-8.7-1.6-17.4-3.4-25.8
		l15.1-11.9c2.8,10.3,4.6,21,5.5,32c2.8-2.8,3.7-5.2,4.1-6.6c0.9,6.8,1.4,13.7,1.5,20.7h0.1c0-12.2-1.2-24.1-3.5-35.7L364.5,149
		L364.5,149z M335.8,96.2l-19.1,2.2c-4.7-7.3-10.1-14.1-15.8-20.5l7.1-17.8C318.7,70.9,328.1,83,335.8,96.2 M306.9,127.6
		c-1.6-3.4-3.2-6.6-4.9-9.6l6-3.5c0.6-0.3,0.8-1.1,0.5-1.7c-0.3-0.6-1.1-0.8-1.7-0.5l-6,3.5c-1.9-3.2-4-6.5-6.3-9.7l31.2-3.7
		L306.9,127.6L306.9,127.6z M321.3,116.6c3,6,5.6,12.3,7.8,18.7l-19.6-2.9L321.3,116.6z M283.9,107.9c1-1.7,1.5-3.6,1.6-5.5
		c0.4,0.5,0.8,0.9,1.2,1.4l0.3,0.4l1,1.3c3.4,4.6,6.4,9,9,13.5c2.6,4.5,5,9.2,7.2,14.4l0.7,1.7l0.1,0.3c0.4,1,0.8,2,1.2,3
		c0,2.3-0.9,4.6-2.5,6.3C299.1,131.6,292.5,119.1,283.9,107.9 M301.5,146.4c-0.4,0.2-0.8,0.4-1.2,0.6c-0.4,0.2-0.9,0.2-1.3,0.3
		c-4.3-12.9-10.6-24.9-18.7-35.6c0.4-0.3,0.8-0.5,1.2-0.8c0.3-0.3,0.6-0.6,0.9-0.9C290.8,121.1,297.2,133.4,301.5,146.4 M285.4,82.7
		c-0.5-0.5-1.3-0.5-1.8,0l-4.8,4.8c-2.7-2.7-5.6-5.3-8.5-7.7l29.2-11.6l-11.6,29.2c-2.4-2.9-4.8-5.6-7.3-8.1l4.9-4.8
		C285.8,84,285.8,83.2,285.4,82.7 M231.3,67.5c0-2-0.5-3.9-1.5-5.6c0.7,0.3,1.5,0.6,2.2,0.9l0.7,0.3l1.3,0.6
		c5.1,2.2,10,4.6,14.5,7.2c4.6,2.7,9.2,5.7,13.5,8.9l1.3,1l0.5,0.4c0.6,0.4,1.1,0.9,1.7,1.4c1.5,2.1,1.9,4.8,1.3,7.2
		C256.1,80.3,244.2,72.8,231.3,67.5 M265.7,92.1c-0.2,0.4-0.5,0.8-0.7,1.1c-0.3,0.4-0.6,0.7-1,0.9c-10-8.9-21.4-16.3-33.9-21.5
		c0.2-0.4,0.4-0.8,0.6-1.2c0.2-0.4,0.2-0.9,0.3-1.3C243.6,75.4,255.3,82.8,265.7,92.1 M220.2,45.1c-0.7-0.2-1.4,0.2-1.5,0.9
		l-1.8,6.5c-3.6-0.9-7.2-1.7-11.1-2.4l19.5-24.6l4.5,31c-3.6-1.3-7.1-2.4-10.6-3.4l1.8-6.5C221.3,46,220.9,45.3,220.2,45.1
		 M189.1,58c-8-0.4-15.8,0-23.4,1c-0.8-1.5-1.9-2.7-3.4-3.7c-0.2-0.2-0.5-0.3-0.7-0.4c0.9-0.1,1.8-0.3,2.7-0.4l0.2,0l1.9-0.2
		c3-0.4,5.6-0.6,8-0.8c1.3-0.1,2.7-0.1,4-0.2c2.7-0.1,5.5-0.1,8.2,0c1.3,0,2.7,0.1,4,0.2c2.4,0.2,5,0.4,8,0.8l1.3,0.1l0.9,0.1
		c0.5,0.1,1,0.2,1.5,0.2c2.4,1.1,4.2,3.2,4.9,5.7C201.4,59.1,195.3,58.3,189.1,58 M207.7,62.9c0,0.5,0,0.9-0.1,1.4
		c-0.1,0.4-0.2,0.8-0.3,1.2c-6-1.2-12.2-2.1-18.5-2.4c-7.4-0.4-14.6-0.1-21.7,0.8c0-0.4,0-0.9-0.1-1.3c-0.1-0.4-0.2-0.9-0.4-1.3
		c5.1-0.7,10.4-1,15.7-1c2.2,0,4.4,0.1,6.6,0.2C195.3,60.8,201.6,61.7,207.7,62.9 M144.1,46.6l1.8,6.5c-3.5,1-6.9,2.1-10.5,3.4
		l4.5-31l19.5,24.6c-3.8,0.7-7.5,1.5-11.1,2.4l-1.8-6.5c-0.2-0.7-0.9-1.1-1.5-0.9C144.3,45.3,143.9,46,144.1,46.6 M125.2,60.7
		c-3.5,1.6-6.9,3.4-10.2,5.2l-3.4-5.9c-0.3-0.6-1.1-0.8-1.7-0.5c-0.6,0.3-0.8,1.1-0.5,1.7l3.4,5.9c-3.1,1.9-6.2,3.9-9.2,6L100,42
		L125.2,60.7L125.2,60.7z M114.3,46.5c6-2.9,12.2-5.5,18.5-7.6L130,58.1L114.3,46.5L114.3,46.5z M101.4,81l0.2-0.2l1.6-1.2
		c4.3-3.2,8.8-6.2,13.5-8.9c4.5-2.6,9.4-5,14.5-7.2l0.3-0.1l1.7-0.7c0.4-0.2,0.8-0.3,1.3-0.5c1.5-0.1,3.1,0.1,4.5,0.8
		c0.9,0.4,1.7,1,2.4,1.7c-13.4,4.6-25.8,11.2-36.8,19.7c-1.4-0.8-3-1.3-4.7-1.5c-0.2,0-0.5,0-0.7,0C99.9,82.3,100.6,81.6,101.4,81
		 M152.6,33.6c6.5-1.3,13.1-2.1,19.8-2.6l-7.7,17.8L152.6,33.6L152.6,33.6z M192.8,31c6.6,0.4,13.3,1.3,19.8,2.6l-12.1,15.2
		L192.8,31z M255.3,59.6c-0.6-0.3-1.4-0.1-1.7,0.5l-3.4,5.9c-3.2-1.8-6.6-3.6-10.2-5.2L265.2,42l-3.6,31.2c-3-2.1-6.1-4.1-9.2-6
		l3.4-5.9C256.1,60.7,255.8,60,255.3,59.6 M235.2,58.1l-2.8-19.3c6.3,2.1,12.5,4.7,18.5,7.6L235.2,58.1L235.2,58.1z M266.3,76
		l2.3-19.4c5.5,3.7,10.8,7.7,15.9,12.2L266.3,76z M311.2,99.1l-19.5,2.3l7.2-18.2C303.3,88.1,307.4,93.5,311.2,99.1 M307.5,59.7
		l-17.8,7.1c-6.4-5.8-13.3-11-20.5-15.6l2.2-19C284.6,39.7,296.7,49,307.5,59.7 M270.7,31.7l-15.4,11.4c-7.6-3.9-15.6-7.2-23.8-9.8
		l-2.8-19C243.6,18.3,257.7,24.2,270.7,31.7 M228,14.1l-11.9,15.1c-8.4-1.8-16.9-2.9-25.5-3.3L183,8.2
		C198.5,8.2,213.6,10.3,228,14.1 M195,48.7c-1.4-0.1-2.7-0.2-4-0.3c-1.4-0.1-2.8-0.2-4.2-0.2c-1,0-2,0-3-0.1v-6.7
		c0-0.7-0.6-1.2-1.3-1.2c-0.7,0-1.2,0.6-1.2,1.2v6.7c-1,0-2,0-3,0.1c-1.4,0-2.8,0.1-4.2,0.2c-1.3,0.1-2.6,0.2-4,0.3l12.4-28.8
		L195,48.7L195,48.7z M182.2,8.2l-7.6,17.7c-8.6,0.4-17.1,1.5-25.5,3.3l-11.9-15.1C151.5,10.3,166.6,8.2,182.2,8.2 M136.4,14.3
		l-2.8,19c-8.2,2.6-16.2,5.9-23.8,9.8L94.4,31.7C107.5,24.2,121.6,18.3,136.4,14.3 M79.8,84.4l4.9,4.9c-2.5,2.5-4.9,5.2-7.3,8.1
		L65.8,68.2l29.2,11.6c-3,2.5-5.8,5.1-8.5,7.7l-4.9-4.8c-0.5-0.5-1.3-0.5-1.8,0C79.3,83.2,79.3,84,79.8,84.4 M64.1,137.2
		c-1.6,0-3.2,0.4-4.7,1c-0.1,0-0.2,0.1-0.3,0.2c0.4-1,0.7-1.9,1.1-2.9l0.1-0.3l0.7-1.7c2.2-5.2,4.6-10,7.2-14.5
		c2.6-4.5,5.5-8.9,9-13.4l1-1.3l0.3-0.4c0.3-0.4,0.6-0.7,0.9-1.1c1.2-0.8,2.5-1.3,4-1.4c0.9-0.1,1.9,0,2.8,0.2
		C77,112.1,69.5,124.1,64.1,137.2 M88.6,102.6c0.4,0.3,0.8,0.5,1.2,0.8c0.3,0.3,0.5,0.5,0.8,0.8c-8.9,10-16.3,21.5-21.6,34.1
		c-0.3-0.2-0.7-0.4-1-0.5c-0.5-0.2-1-0.3-1.5-0.4C72,124.6,79.5,112.8,88.6,102.6 M39.5,102.4l31.2,3.6c-2.3,3.3-4.4,6.5-6.3,9.7
		l-6-3.5c-0.6-0.3-1.4-0.1-1.7,0.5c-0.3,0.6-0.1,1.4,0.5,1.7l6,3.5c-1.7,3.1-3.4,6.2-4.9,9.6L39.5,102.4L39.5,102.4z M55.7,132.4
		L36,135.3c2.2-6.4,4.8-12.7,7.8-18.7L55.7,132.4L55.7,132.4z M54,99c3.8-5.6,7.9-10.9,12.3-15.9l7.2,18.1L54,99L54,99z M80.7,68.8
		c5.1-4.4,10.4-8.5,15.9-12.1L98.9,76L80.7,68.8z M93.8,32.1l2.2,19c-7.1,4.6-14,9.8-20.5,15.6l-17.9-7.1
		C68.4,49,80.6,39.7,93.8,32.1 M57.2,60.1L64.2,78c-5.7,6.3-11.1,13.2-15.8,20.4l-19.1-2.2C37.1,83,46.4,70.9,57.2,60.1 M29,96.7
		l11.4,15.3c-4,7.7-7.4,15.7-10.1,24l-19,2.8C15.5,123.9,21.4,109.8,29,96.7 M28,174.9c0.5-6.8,1.4-13.5,2.7-20.2L46.4,167L28,174.9
		L28,174.9z M50.5,148.7l-6.8-1.8c-0.7-0.2-1.4,0.2-1.5,0.9c-0.2,0.7,0.2,1.3,0.9,1.5l6.8,1.8c-0.9,3.5-1.7,7-2.3,10.5L23,142.2
		l31.1-4.6C52.7,141.4,51.5,145,50.5,148.7 M70,162c-0.2,0.8-0.3,1.7-0.5,2.5c-1.6-3-4.5-5.3-8.1-6c-3-0.5-6,0.2-8.5,1.9
		c0,0,0,0,0,0c0.4-2.3,0.9-4.6,1.5-6.9c0.7-0.9,1.5-1.6,2.5-2.2c2.1-1.2,4.4-1.5,6.7-0.9c4.7,1.3,7.6,6.2,6.3,10.9
		C70,161.6,70,161.8,70,162 M72.6,151.6c-0.1,0.2-0.1,0.4-0.1,0.6c-0.2,0.8-0.5,1.6-0.7,2.4c-1.3-3.1-4-5.6-7.5-6.6
		c-2.9-0.8-6-0.4-8.6,1.1c-0.1,0-0.1,0.1-0.2,0.1c0.6-2.2,1.3-4.4,2.1-6.7c0.8-0.9,1.8-1.6,2.9-2.2c2.1-1,4.6-1.1,6.8-0.3
		C71.9,141.9,74.3,147,72.6,151.6 M91,116c-0.1,0.1-0.1,0.2-0.2,0.3C84.3,125,78.9,134.6,75,145c-0.7-2.1-2-3.9-3.7-5.3
		c5.1-12.3,12.2-23.5,20.9-33.3C93.6,109.4,93.3,113.2,91,116 M97.4,108.3c-0.1,0.1-0.1,0.2-0.2,0.2c-0.6,0.7-1.2,1.4-1.8,2
		c0.1-3.4-1.3-6.7-4-9c-2.3-2-5.3-2.9-8.3-2.6c-0.2,0-0.4,0.1-0.6,0.1c1.4-1.7,2.9-3.3,4.3-4.8c1.3-0.7,2.7-1.1,4.3-1.1h0
		c2.4,0,4.6,0.9,6.3,2.6C100.9,99.1,100.9,104.8,97.4,108.3 M104.5,101.1c-0.1,0.1-0.2,0.2-0.2,0.3c-0.6,0.6-1.3,1.2-1.9,1.8
		c0.4-3.3-0.7-6.8-3.2-9.3c-2.2-2.1-5-3.3-8-3.3h0c-0.2,0-0.5,0.1-0.7,0.1c1.5-1.5,3.1-3,4.7-4.4c1.4-0.6,2.9-0.9,4.4-0.8
		c2.4,0.2,4.5,1.3,6,3.1C108.8,92.3,108.3,98,104.5,101.1 M107.5,86.9c-0.3-0.4-0.7-0.7-1-1c10.9-8.3,23.2-14.8,36.4-19.2
		c0.2,0.4,0.5,0.8,0.6,1.3c0.1,0.4,0.2,0.8,0.3,1.2c-12.9,4.3-24.9,10.6-35.6,18.7C108,87.6,107.8,87.3,107.5,86.9 M138.5,79.4
		c-10.4,4.3-20,10.1-28.6,17.1c0.4-2.1,0.2-4.3-0.5-6.3c10.4-7.9,22.1-14.1,34.6-18.4C143.7,75.1,141.7,78,138.5,79.4 M148.3,75.8
		c-1.1,0.4-2.3,0.8-3.4,1.2c1.7-2.9,2.2-6.4,1-9.7c-1-2.9-3.1-5.2-5.9-6.4c-0.3-0.1-0.5-0.2-0.8-0.3c2-0.7,4-1.4,6-2
		c1.6,0,3.2,0.3,4.6,1.1c2.1,1.2,3.6,3.1,4.2,5.4C155.1,69.6,152.6,74.2,148.3,75.8 M157.6,73.3c-1,0.2-2.1,0.5-3.1,0.7
		c1.9-2.7,2.7-6.2,1.8-9.6c-0.8-3-2.7-5.4-5.3-6.9c-0.3-0.1-0.5-0.2-0.8-0.4c2-0.5,4.1-1,6.2-1.4c1.6,0.1,3.1,0.6,4.5,1.5
		c2,1.4,3.3,3.4,3.7,5.8C165.4,67.8,162.3,72.3,157.6,73.3 M197.7,71.6c-4.9-0.6-10-1-15.1-1c-6.2,0-12.3,0.5-18.2,1.5
		c1.3-1.6,2.3-3.5,2.6-5.6c5-0.7,10.1-1,15.3-1c2.1,0,4.2,0.1,6.3,0.2c6,0.3,11.8,1.1,17.5,2.3c-0.6,0.9-1.3,1.6-2.2,2.2
		C202.1,71.4,199.9,71.9,197.7,71.6 M207.8,73.4c-1.1-0.3-2.2-0.5-3.3-0.7c0.3-0.2,0.6-0.3,0.9-0.6c2.5-1.8,4.2-4.4,4.7-7.4
		c0.6-3.4-0.4-6.7-2.5-9.2c2.1,0.4,4.2,0.8,6.2,1.3c3.5,1.9,5.4,6.1,4.3,10.1c-0.6,2.3-2.1,4.2-4.2,5.4
		C212.1,73.5,209.9,73.8,207.8,73.4 M217.7,76.1c-1.2-0.4-2.3-0.7-3.5-1.1c0.3-0.1,0.7-0.3,1-0.5c2.6-1.5,4.5-4,5.3-7
		c0.9-3.4,0.1-6.7-1.7-9.4c2,0.6,4,1.2,6.1,1.9c3.3,2.2,4.9,6.5,3.4,10.4c-0.8,2.2-2.4,4-4.6,5C221.8,76.5,219.7,76.6,217.7,76.1
		 M223.7,78.2c0.4-0.1,0.7-0.2,1.1-0.4c1.6-0.7,2.9-1.8,3.9-3.1c12.2,5.1,23.4,12.2,33.2,20.8c-0.9,0.4-1.9,0.7-3,0.8
		c-2.3,0.2-4.6-0.5-6.4-1.9C243.9,87.7,234.1,82.2,223.7,78.2 M258,98.9C258.1,98.9,258.1,98.9,258,98.9c0.4,0,0.8,0,1.1,0
		c3-0.3,5.8-1.7,7.7-4.1c2.2-2.6,3-6,2.5-9.1c1.6,1.4,3.2,2.9,4.8,4.4c1.9,3.4,1.5,7.8-1.4,10.7c-1.7,1.7-3.9,2.6-6.3,2.6h0
		c-2.3,0-4.4-0.9-6.1-2.5C259.6,100.2,258.8,99.6,258,98.9 M265.3,105.8c0.4,0,0.8,0.1,1.2,0.1h0c3,0,5.9-1.2,8.1-3.4
		c2.4-2.4,3.5-5.7,3.2-8.9c1.5,1.5,2.9,3.2,4.4,4.8c1.6,3.6,0.8,7.9-2.3,10.5c-1.8,1.5-4.1,2.3-6.5,2.1c-2.2-0.2-4.3-1.2-5.8-2.9
		C266.8,107.3,266,106.5,265.3,105.8 M288.9,141.6C288.8,141.6,288.8,141.6,288.9,141.6c-4.3-10.3-10-19.8-16.9-28.4
		c0.4,0.1,0.8,0.2,1.2,0.2c0.3,0,0.7,0,1,0c1.3,0,2.7-0.2,3.9-0.7c7.9,10.4,14.1,22,18.3,34.6c-1-0.1-2-0.3-2.9-0.8
		C291.3,145.7,289.7,143.9,288.9,141.6 M292.3,151c-0.3-0.9-0.6-1.8-0.9-2.7c0.4,0.2,0.7,0.5,1.1,0.6c1.5,0.7,3.1,1.1,4.8,1.1
		c1.3,0,2.6-0.2,3.9-0.7c3.1-1.1,5.4-3.5,6.6-6.3c0.8,2.2,1.4,4.4,2,6.7c-0.4,3.6-2.8,6.8-6.5,7.8c-2.3,0.6-4.7,0.3-6.7-0.9
		C294.4,155.3,292.9,153.4,292.3,151C292.3,151.1,292.3,151,292.3,151 M305.3,168c-2.3,0.4-4.7-0.1-6.6-1.5c-2-1.4-3.3-3.4-3.7-5.8
		c0-0.2-0.1-0.3-0.2-0.5c-0.2-0.8-0.4-1.6-0.6-2.4c0.3,0.3,0.7,0.5,1,0.7c1.8,1,3.7,1.5,5.6,1.5c1,0,2-0.1,3-0.4
		c3.1-0.8,5.6-2.9,7-5.5c0.6,2.3,1.1,4.7,1.5,7C311.5,164.7,308.8,167.4,305.3,168 M318.9,167l15.5-12.3c1.3,6.6,2.2,13.4,2.7,20.1
		L318.9,167L318.9,167z M317.5,161.7c-0.6-3.5-1.4-7.1-2.3-10.5l6.8-1.8c0.7-0.2,1.1-0.9,0.9-1.5c-0.2-0.7-0.9-1.1-1.5-0.9l-6.8,1.8
		c-1-3.7-2.2-7.3-3.6-11.1l31.1,4.6L317.5,161.7L317.5,161.7z M334.7,136.1c-2.7-8.3-6.1-16.3-10.1-24l11.4-15.3
		c7.6,13.1,13.6,27.2,17.7,42.1L334.7,136.1z"/>
	<path id="Path_00000171682902000626835430000011675720527464069507_" class="st0" d="M278.7,150.9c-0.2-0.6-1-1-1.6-0.8
		c-0.7,0.2-1,0.9-0.8,1.6c1.1,3.1,2.1,6.2,2.9,9.4c0.1,0.6,0.7,0.9,1.2,0.9c0.1,0,0.2,0,0.3,0c0.7-0.2,1.1-0.8,0.9-1.5
		C280.9,157.3,279.9,154.1,278.7,150.9"/>
	<path id="Path_00000155112561660699521450000000536724104425110708_" class="st0" d="M233.7,99.9c0.2,0.1,0.4,0.2,0.6,0.2
		c0.4,0,0.8-0.2,1.1-0.6c0.4-0.6,0.2-1.4-0.4-1.7c-2.9-1.7-5.9-3.3-8.9-4.7c-0.6-0.3-1.4,0-1.7,0.6c-0.3,0.6,0,1.4,0.6,1.7
		C228,96.7,230.9,98.3,233.7,99.9"/>
	<path id="Path_00000091726502727644889960000000833904753538156962_" class="st0" d="M273.8,143.5c0.2,0,0.4,0,0.5-0.1
		c0.6-0.3,0.9-1,0.6-1.7c-1.4-3-3-6-4.7-8.8c-0.4-0.6-1.1-0.8-1.7-0.4c-0.6,0.4-0.8,1.1-0.4,1.7c1.7,2.8,3.2,5.7,4.6,8.6
		C272.9,143.2,273.3,143.5,273.8,143.5"/>
	<path id="Path_00000123432586954764404780000016592789821320707755_" class="st0" d="M250.2,111.9c0.3,0,0.7-0.1,0.9-0.4
		c0.5-0.5,0.4-1.3-0.1-1.8c-2.5-2.2-5.1-4.4-7.8-6.4c-0.6-0.4-1.3-0.3-1.7,0.3c-0.4,0.6-0.3,1.3,0.3,1.7c2.6,1.9,5.2,4,7.6,6.2
		C249.6,111.8,249.9,111.9,250.2,111.9"/>
	<path id="Path_00000164493562916276880260000008188978912845467069_" class="st0" d="M263.6,126.5c0.3,0,0.5-0.1,0.7-0.2
		c0.6-0.4,0.7-1.2,0.3-1.7c-2-2.7-4.1-5.3-6.4-7.7c-0.5-0.5-1.3-0.5-1.8-0.1c-0.5,0.5-0.6,1.3-0.1,1.8c2.2,2.4,4.3,4.9,6.2,7.6
		C262.8,126.4,263.2,126.5,263.6,126.5"/>
	<path id="Path_00000010278548323533321630000003586848455471575170_" class="st1" d="M309.4,185.2h-76.7c-1.5,0-3,0.1-4.5,0.2
		c0,0-0.1,0-0.1,0c-1.4,0.1-2.8,0.2-4.1,0.3c0,0-0.1,0-0.1,0c-1.3,0.1-2.6,0.2-3.8,0.4c-0.1,0-0.1,0-0.2,0c-1.2,0.1-2.4,0.3-3.5,0.5
		c-0.1,0-0.1,0-0.2,0c-1.1,0.2-2.2,0.3-3.3,0.5c-0.1,0-0.2,0-0.2,0c-1,0.2-2,0.4-3,0.6c-0.1,0-0.1,0-0.2,0c-1,0.2-1.9,0.4-2.8,0.7
		c-0.1,0-0.1,0-0.2,0.1c-0.9,0.2-1.7,0.5-2.6,0.7c-0.1,0-0.1,0-0.2,0.1c-0.8,0.3-1.6,0.5-2.4,0.8c-0.1,0-0.1,0-0.2,0.1
		c-0.7,0.3-1.5,0.6-2.2,0.8c-0.1,0-0.1,0-0.2,0.1c-0.7,0.3-1.3,0.6-2,0.9c0,0-0.1,0-0.1,0.1c-0.6,0.3-1.2,0.6-1.8,0.9
		c0,0-0.1,0-0.1,0.1c-0.6,0.3-1.1,0.6-1.6,1c0,0-0.1,0-0.1,0.1c-0.5,0.3-1,0.6-1.5,1c0,0-0.1,0-0.1,0.1c-0.5,0.3-0.9,0.7-1.3,1
		c0,0-0.1,0-0.1,0.1c-0.4,0.3-0.8,0.7-1.2,1c0,0,0,0-0.1,0.1c-0.4,0.3-0.7,0.7-1,1c0,0,0,0,0,0c-0.3,0.3-0.6,0.7-0.9,1
		c0,0,0,0,0,0.1c-0.3,0.3-0.6,0.7-0.8,1c0,0,0,0,0,0c-0.2,0.3-0.5,0.6-0.7,1c0,0,0,0,0,0c-0.2,0.3-0.4,0.6-0.6,0.9c0,0,0,0,0,0
		c-0.2,0.3-0.3,0.6-0.5,0.9c0,0,0,0,0,0c-0.1,0.3-0.3,0.6-0.4,0.8c0,0,0,0,0,0c-0.1,0.3-0.2,0.5-0.3,0.8h0c-0.7,1.8-0.8,3.1-0.8,3.4
		c0,0,0,0.1,0,0.1s0,0,0-0.1c0-0.3-0.1-1.6-0.8-3.4h0c-0.1-0.3-0.2-0.5-0.3-0.8c0,0,0,0,0,0c-0.1-0.3-0.3-0.6-0.4-0.8c0,0,0,0,0,0
		c-0.1-0.3-0.3-0.6-0.5-0.9c0,0,0,0,0,0c-0.2-0.3-0.4-0.6-0.6-0.9c0,0,0,0,0,0c-0.2-0.3-0.4-0.6-0.7-1c0,0,0,0,0,0
		c-0.2-0.3-0.5-0.6-0.8-1c0,0,0,0,0-0.1c-0.3-0.3-0.6-0.7-0.9-1c0,0,0,0,0,0c-0.3-0.3-0.7-0.7-1-1c0,0,0,0-0.1-0.1
		c-0.4-0.3-0.8-0.7-1.2-1c0,0-0.1,0-0.1-0.1c-0.4-0.3-0.9-0.7-1.3-1c0,0-0.1,0-0.1-0.1c-0.5-0.3-1-0.7-1.5-1c0,0-0.1,0-0.1-0.1
		c-0.5-0.3-1.1-0.6-1.6-1c0,0-0.1,0-0.1-0.1c-0.6-0.3-1.2-0.6-1.8-0.9c0,0-0.1,0-0.1-0.1c-0.6-0.3-1.3-0.6-2-0.9
		c-0.1,0-0.1,0-0.2-0.1c-0.7-0.3-1.4-0.6-2.2-0.8c-0.1,0-0.1,0-0.2-0.1c-0.8-0.3-1.5-0.5-2.4-0.8c-0.1,0-0.1,0-0.2-0.1
		c-0.8-0.3-1.7-0.5-2.6-0.7c-0.1,0-0.1,0-0.2-0.1c-0.9-0.2-1.8-0.5-2.8-0.7c-0.1,0-0.1,0-0.2,0c-1-0.2-2-0.4-3-0.6
		c-0.1,0-0.2,0-0.2,0c-1.1-0.2-2.1-0.4-3.3-0.5c-0.1,0-0.1,0-0.2,0c-1.1-0.2-2.3-0.3-3.5-0.5c-0.1,0-0.1,0-0.2,0
		c-1.2-0.1-2.5-0.3-3.8-0.4c0,0-0.1,0-0.1,0c-1.3-0.1-2.7-0.2-4.1-0.3c0,0-0.1,0-0.1,0c-1.4-0.1-2.9-0.1-4.5-0.2H55.6
		c-45.7-2-52.9-16.1-54-20.4c-1,7.5-1.5,15.2-1.5,23c0,24.2,4.8,47.3,13.4,68.5l14.3,3.3l-5,16.2c0.1,0.1,0.1,0.2,0.2,0.3l16.5,3.8
		L35,294.8c29.1,39.9,73.9,67.5,125.3,73.8l10.4-11.2l11.7,12.6c0,0,0.1,0,0.1,0c0,0,0,0,0,0l11.7-12.6l10.4,11.2
		c51.4-6.2,96.3-33.9,125.3-73.8l-4.6-14.9l16.6-3.8c0.1-0.1,0.1-0.2,0.2-0.3l-5-16.2l14.3-3.3c8.6-21.2,13.4-44.3,13.4-68.5
		c0-7.8-0.6-15.6-1.5-23.2C362.5,168.8,355.7,183.2,309.4,185.2"/>
</g>
<path id="Combined-Shape" class="st1" d="M125.3,478.8c6.5,0,11,3.8,13.1,8.5l-3.3,1.9c-1.5-3.6-4.5-6.5-9.7-6.5
	c-4.7,0-8.2,2.5-8.2,6.8c0,4.3,3.4,5.6,8.8,7.4c7.2,2.4,13.6,4.4,13.6,11.7c0,6.8-5.4,11.1-13.3,11.1c-7.3,0-12.7-3.7-14.7-9.6
	l3.4-2c1.4,4.7,5.1,7.8,11.4,7.8c6,0,9.3-2.9,9.3-7.1c0-4.6-3.9-6-9.7-7.9c-6.4-2.1-12.7-3.8-12.7-11.1
	C113.1,482.7,118.7,478.8,125.3,478.8z M25.5,479.4c7.1,0,12.4,5.3,12.4,12.4c0,7-5.3,12.4-12.4,12.4H15.4v14.7h-4v-39.5H25.5z
	 M75.3,479.4l15.2,39.5h-4.2l-3.7-9.7H63.9l-3.7,9.7H56l15.2-39.5H75.3z M169.1,479.4v39.5h-4v-39.5H169.1z M219.7,479.4v3.7h-18.4
	v14.5h17.5v3.7h-17.5v17.5h-4v-39.5H219.7z M249.7,479.4v39.5h-4v-39.5H249.7z M281.9,479.4v18l18-18h5.2l-19,19.2l19.6,20.3h-5.2
	l-18.5-19.1v19.1h-4v-39.5H281.9z M345.8,479.4l15.2,39.5h-4.2l-3.7-9.7h-18.8l-3.7,9.7h-4.2l15.2-39.5H345.8z M343.8,484.3l-8,21.1
	h15.9L343.8,484.3z M73.3,484.3l-8,21.1h15.9L73.3,484.3z M25.5,483.2H15.4v17.4h10.2c4.9,0,8.5-3.7,8.5-8.7
	C34,486.8,30.4,483.2,25.5,483.2z M125.8,396.9c20.3,0,36.4,15.6,36.4,35.8c0,20.3-16.1,35.8-36.4,35.8c-20.3,0-36.4-15.6-36.4-35.8
	C89.4,412.4,105.5,396.9,125.8,396.9z M30,398.4l16.2,27.9l16.2-27.9H82V467H62.4v-33.4l-15.3,25.7h-1.8L30,433.6V467H10.3v-68.6H30
	z M206.1,398.4L228,467h-21.1l-2.4-8.8h-19.8l-2.4,8.8h-21.1l21.9-68.6H206.1z M247.6,398.4l21.6,31.3v-31.3h19.6V467h-15.7
	l-21.6-31.3V467h-19.6v-68.6H247.6z M337.7,398.4l21.9,68.6h-21.1l-2.4-8.8h-19.8l-2.4,8.8h-21.1l21.9-68.6H337.7z M125.8,416.1
	c-9.7,0-16.8,7.2-16.8,16.7s7.1,16.7,16.8,16.7c9.7,0,16.8-7.1,16.8-16.7S135.5,416.1,125.8,416.1z M194.6,421.4l-5.7,21.1h11.4
	L194.6,421.4z M326.2,421.4l-5.7,21.1h11.4L326.2,421.4z"/>
</svg>
