<?xml version="1.0" encoding="utf-8"?>
<!-- Generator: Adobe Illustrator 22.0.1, SVG Export Plug-In . SVG Version: 6.00 Build 0)  -->
<svg version="1.1" id="Layer_1" xmlns="http://www.w3.org/2000/svg" xmlns:xlink="http://www.w3.org/1999/xlink" x="0px" y="0px"
	 viewBox="0 0 260.2 208.8" style="enable-background:new 0 0 260.2 208.8;" xml:space="preserve">
<style type="text/css">
	.st0{fill:#FFFFFF;}
	.st1{fill:#D31245;}
</style>
<g>
	<g>
		<path class="st0" d="M219.1,67c-0.2-3.1-1-10.7-5.3-13.7l-0.5-0.3c-0.7-4.7-2.5-10.1-5.6-16.3l0,0c-3.2-7.3-8.7-12.1-13.1-15
			c0.9-0.4,2.2-0.9,2.2-0.9l-6.7-3.6c-9.6-5.2-21.3-6.6-28.2-6.9c-19.6-14.8-53-9.4-54.3-9.3c0,0,5,1.4,7,3.5
			c-16.7,2-25.1,9.5-25.5,9.9L84.9,18l6.8,2.6c1.2-0.1,2.7,0,4.1,0.3c-0.3,1.3-0.4,2.4-0.4,2.7l2,5.9l3.7-3c1.4-1.1,3.3-1.7,5.1-2.1
			c-1.5,4.2-1.5,8.1-1.5,8.6l0.1,7.5l5.6-4.8l0.5-0.4c0.2,0.8,0.5,1.6,0.8,2.2c0.4,1,0.8,1.9,1,2.9l0,0.2c0,1.2-0.7,4.9-3.4,8.1
			l3.1,3.8c1.9-1.4,3.2-0.9,4-1.1c-1.4,1.3-2,2.3-2.2,3l1.8,4.4c-3.8,1.4-5.9,3-5.9,3s4.2,1,8.2,5.2c4,4.2,5.1,7.9,5.1,7.9
			c-8.9,4.8-14.5,11.1-18.1,16.8c18,1.7,23.5,9.2,23.5,9.2s0.7-0.8,2.6-2.4c1.9-1.6,0,0,0,0c0.2-0.2,4.7-4.9,15.8-5.7
			c10.6-0.8,20.6,2.6,29.8,10.1c7,5.7,10.8,11.7,10.8,11.8l0,0.1l0,0.1c1.6,2.3,3,2.5,3.5,2.6c1,0.2,2-0.1,2.8-0.7
			c0.8-0.6,1.6-1.6,1.6-3.2c0-0.8-0.2-1.8-0.6-2.9c-1-2.6-4.2-9.8-9.9-17.5c8.9-0.4,16.7-7.5,18.2-9.5c0.8-1.1,0.8-2.1,0.7-2.9
			c1.1,0.3,2.4,0.5,3.9,0.5c4.1,0.1,5.8-0.7,7.5-2.3C217.5,77.4,219.4,72.9,219.1,67"/>
	</g>
	<g>
		<path class="st1" d="M199.8,58.3c-0.1-0.1-1.7-0.3-3.5-1.6c-1.8-1.3-4.3-4.6-5.8-5.6c0,0-0.8,0.2-0.5,0.5c0.4,0.5,2,2.4,2.6,4.5
			c0.5,2.1,1.7,5.7,2.7,5.7C196,61.8,200.3,59.2,199.8,58.3"/>
		<path class="st1" d="M202.4,76.1c0,0.8,1.2,2.1,5.5,2.2c3.2,0.1,4.1-0.5,5.1-1.4c1-0.9,2.8-4.1,2.5-9.4
			c-0.3-5.2-2.1-12.9-6.7-11.3c-3.6,1.2-0.4,6.3-1.5,10.9C205.6,73.7,202.4,75.3,202.4,76.1"/>
		<path class="st1" d="M148.8,57.3c13.2,0.6,25-15.5,16.2-29.4c-8.9-14.1-24-12.2-24-12.2c12.3,1.9,18.3,14,18.3,14
			c-10.6-9.9-19.9-8.2-19.9-8.2c15.4,2.9,20.5,21.2,20.5,21.2c-9-14.5-23.7-13.4-23.7-13.4c13.3,2.5,19.1,18.8,19.1,18.8
			c-9.2-10-21.5-8.2-21.5-8.2c9.5,1,14.8,11.9,14.8,11.9c-7.3-2.4-19-0.7-19-0.7c2-2.5,5.2-4.1,5.2-4.1c-4.2-3.9-13.4-3.9-13.4-3.9
			c1-3.3-1.6-6.2-2.4-10.1c-0.9-4,1.2-6.4,1.2-6.4c-2.9-0.4-5.3,0.9-5.3,0.9c0.5-3.4,4.5-8.8,4.5-8.8c-3.5-2.6-11.7-3.3-11.7-3.3
			c13.1-5.4,24.5-2.9,24.5-2.9c-1-1.6-2.5-3-2.5-3c24.4-1.2,36.7,12.1,36.7,12.1c-0.7-1.3-1.4-2.5-2.3-3.6c9.5,0.5,15,3.7,15,3.7
			c-1.2,0.2-2.9,2.1-2.9,2.1c12.9,0.8,23.7,8.8,27.6,15c0.3,0.5,0.4,0.3,0.5,0.2l-0.1-0.5c-5.4-12.1-18-16.7-18-16.7
			c0.7-0.6,1.9-1.1,1.9-1.1c-9.8-5.3-22.4-6.3-27.8-6.5C145.3,1,115.9,3.5,115.9,3.5c4.4,1.3,5.9,4.4,5.9,4.4
			c-20,0.4-30.5,9.6-30.5,9.6c3.9-0.4,9.4,1.3,9.4,1.3c-1.7,1.7-1.9,5.4-1.9,5.4c5.1-4.1,13.2-3,13.2-3c-4,5-4,12.4-4,12.4
			c3.2-2.7,5.8-2.3,5.8-2.3c-0.7,3.3,1.3,5.5,2.1,9.1c0.7,3.6-3.5,9.4-3.5,9.4c8-4.1,14-0.2,14-0.2c-8.2,4.1-9.1,6.7-9.1,6.7
			C136.7,50.4,148.4,57.3,148.8,57.3"/>
		<path class="st1" d="M183,89.7c-5.5-5.3-30.3-28.9-56.7-17.2c0,0-2.7-7.8-8.8-11c0,0,22-6.6,40.1,3.8
			c10.6,6.1,21.3,19.1,28.8,19.7c3.5,0.3,5-2.2,6.2-2.5c0,0-2.9-4.1-5.5-3.9c-2,0.1-2.7,0.8-2.9,0.3c-0.1-0.4,1.3-3.1,4.5-3.3
			c3.1-0.2,5.5,3.6,7.4,4.6c2.3,1.2,4.1,1.4,4.2,1.8c0.1,0.3-8.1,8.5-16.7,8.4"/>
		<path class="st1" d="M191.8,114.4c-0.4,0.3-1.3-1.1-1.3-1.1s-15.8-25.6-43.8-23.5c-12.9,0.9-18.2,6.9-18.2,6.9s-5.2-5.3-17.9-6.8
			c-0.4,0,0,0,0,0s15-18,35.7-15.8c30.4,3.1,43.4,33.8,45.2,38.5C191.6,112.5,192.2,114.1,191.8,114.4"/>
		<path class="st1" d="M178.4,169.8c-0.4-0.4-2.1,1-2.1,1s-32.5,25-68.9,17.1c-14.4-3.1-22.2-13.6-26.6-20.9l37.6,0l7.8-12.8h-0.5
			c-5,3.9-10.4,4.6-16,4.6c-3.5,0-7.2-0.2-10.1-1.3l4.7-15.9l3.3,0c3.7,0,8.4-0.3,8.8,3.1h0.5l3.5-11.9h-0.5c-1,0.3-2.4,0.4-3.8,0.4
			l-9.3,0l4.1-13.7l3.2,0c4.9,0,10.7-0.4,12.2,3.6l0.3,0l3.5-11.9l-39.5,0l-0.1,0.3c4.1,2.5,2,7.4,0.7,11.8l-9.4,31.6
			c-0.7,2.5-1.5,5.9-3.1,8.1l-0.1-0.1c-1.8-4.4-3.6-8.3-4.4-10l-8.6-20.9c9.3-3,17.8-8.9,20.2-17c2.1-7.2,0-12.9-6.5-16.4
			C74.4,95.9,69.3,96,63,96l-37.6,0l-0.1,0.3c5.2,3.3,2.5,9.5,0.9,15.1l-11.9,40c-1.7,5.6-2.6,11.7-9.8,15.1l-0.1,0.3l34.2,0
			l0.1-0.3c-5.2-3.3-2.5-9.5-0.9-15.1l4.4-15c0,0,6.1,20.4,13.2,35.6c5.7,12.2,15.3,31.3,46,33.3c41.4,2.8,71.9-28.6,76-33.5
			C177.4,171.9,178.8,170.2,178.4,169.8 M61.6,117c-2,6.8-9.6,12.5-17.8,13.7l7.2-24.3h1.3c2.5,0,5.2,0.2,6.9,1.5
			C62.1,109.9,62.6,113.5,61.6,117"/>
		<path class="st0" d="M178.4,169.8l2.3-2.3c-0.4-0.4-0.9-0.7-1.3-0.8c-0.4-0.1-0.8-0.2-1.1-0.2c-0.5,0-0.9,0.1-1.2,0.2
			c-0.5,0.2-0.9,0.3-1.2,0.5c-0.9,0.5-1.5,1-1.6,1.1l2,2.5l-2-2.6l0,0c-0.6,0.4-6.7,5-16.1,9.3c-9.4,4.4-22.2,8.6-36.1,8.6
			c-4.5,0-9.2-0.5-13.9-1.5c-6.6-1.4-11.6-4.5-15.6-8.1c-4-3.6-6.9-7.8-9-11.3l-2.8,1.7l0,3.2l39.4,0l11.8-19.3h-7.4l-0.9,0.7
			c-2.1,1.6-4.2,2.6-6.5,3.2c-2.3,0.6-4.8,0.8-7.4,0.8h-0.1l0.1,3.2v-3.2c-3.4,0-6.7-0.2-9-1.1l-1.1,3.1l3.1,0.9l4-13.6l0.9,0h0.1
			c0.6,0,1.2,0,1.8,0c1.5,0,3,0.1,3.6,0.3l0.3,0.1l0,0l0.3-0.4l-0.4,0.2l0.1,0.1l0.3-0.4l-0.4,0.2l0.5-0.3l-0.5,0.2l0,0.1l0.5-0.3
			l-0.5,0.2l0,0h0l0,0l0,0h0l0.3,2.9h5.8l5.5-18.4h-5.4l-0.5,0.2c-0.1,0-0.5,0.1-1,0.2c-0.5,0.1-1.1,0.1-1.7,0.1h0h-0.1l0.1,3.2V130
			l-4.9,0l2.1-7.2h0.8h0.1c0.9,0,1.7,0,2.5,0c2,0,3.9,0.1,5.1,0.4c0.6,0.2,1,0.4,1.2,0.5c0.2,0.2,0.3,0.3,0.4,0.5l0.8,2.1l5,0
			l5.5-18.4l-46.3,0l-1.4,5l2.1,1.3c0.5,0.3,0.6,0.5,0.7,0.7c0.1,0.2,0.2,0.5,0.2,1c0,0.7-0.2,1.6-0.5,2.7c-0.3,1.1-0.7,2.4-1.1,3.7
			l-9.4,31.6c-0.4,1.3-0.8,2.8-1.2,4.1c-0.4,1.3-0.9,2.4-1.4,3l2.6,1.9l2.6-1.9l-0.1-0.1l-2.6,1.9l3-1.3c-1.9-4.5-3.7-8.4-4.5-10.1
			l-2.9,1.4l3-1.2l-8.6-20.9l-3,1.2l1,3.1c5-1.6,9.7-4,13.7-7.2c4-3.2,7.1-7.2,8.6-12c0.6-2.1,0.9-4.1,0.9-6.1
			c0-2.9-0.8-5.8-2.3-8.2c-1.6-2.4-3.8-4.4-6.7-5.9l0,0l0,0c-2.7-1.4-5.5-2.2-8.3-2.5c-2.8-0.4-5.5-0.4-8.4-0.4h-0.7H63l-40,0
			l-1.5,5l2.1,1.3c0.7,0.5,1,0.9,1.2,1.3c0.2,0.4,0.3,0.9,0.3,1.7c0,1-0.2,2.3-0.6,3.7c-0.4,1.5-0.9,3-1.4,4.7l-11.9,40
			c-0.9,3-1.5,5.7-2.6,7.8c-1.1,2.2-2.5,3.8-5.5,5.2l-1.3,0.6L0,170.1l41,0l1.5-5l-2.1-1.3c-0.7-0.5-1-0.9-1.2-1.3
			c-0.2-0.4-0.3-0.9-0.3-1.7c0-1,0.2-2.3,0.6-3.7c0.4-1.5,0.9-3,1.4-4.7l4.4-15l-3.1-0.9l-3.1,0.9c0,0.1,6.1,20.5,13.3,36
			c2.9,6.2,6.9,14.4,14.4,21.5c7.5,7,18.4,12.7,34.4,13.7c1.8,0.1,3.6,0.2,5.4,0.2c20.2,0,37.5-7.5,50.2-15.6
			c6.4-4,11.6-8.2,15.5-11.7c3.9-3.5,6.5-6.2,7.6-7.6c0-0.1,0.4-0.4,0.7-1c0.2-0.3,0.4-0.6,0.6-1c0.1-0.2,0.2-0.4,0.3-0.7
			c0.1-0.3,0.2-0.7,0.2-1.2c0-0.3,0-0.7-0.2-1.2c-0.2-0.5-0.5-1-0.9-1.4l0,0L178.4,169.8l-2.3,2.3l2.1-2.2l-2.8,1
			c0.1,0.4,0.4,0.8,0.7,1.2l2.1-2.2l-2.8,1l2.7-0.9l-2.9,0c0,0.2,0,0.6,0.2,0.9l2.7-0.9l-2.9,0h2.4l-2.3-0.7c0,0.1-0.1,0.3-0.1,0.7
			h2.4l-2.3-0.7l1.1,0.4l-1.1-0.5l-0.1,0.2l1.1,0.4l-1.1-0.5l0,0l-0.3,0.4l-0.1,0.2l0,0c-0.8,1-3.2,3.6-6.9,6.9
			c-5.5,4.9-13.9,11.4-24.4,16.5c-10.5,5.2-23.1,9.1-37,9.1c-1.6,0-3.3-0.1-5-0.2c-14.7-1-23.9-5.9-30.4-12
			c-6.4-6.1-10.1-13.4-12.9-19.5c-3.5-7.4-6.7-16.2-9.1-23.1c-1.2-3.5-2.2-6.5-2.8-8.6c-0.3-1.1-0.6-1.9-0.8-2.5
			c-0.2-0.6-0.3-0.9-0.3-0.9l-3.1-10.5l-7.6,25.5c-0.4,1.5-1,3.1-1.5,4.8c-0.5,1.7-0.9,3.5-0.9,5.4c0,1.5,0.3,3.1,1,4.6
			c0.7,1.5,2,2.9,3.6,3.9l1.7-2.7l-3.1-0.9l-0.1,0.3l3.1,0.9v-3.3l-34.2,0l0,3.2l3.1,0.9l0.1-0.3l-3.1-0.9l1.4,2.9
			c4.3-1.9,7-5,8.5-8.2c1.6-3.1,2.2-6.3,3-8.9l11.9-40c0.4-1.5,1-3.1,1.5-4.8c0.5-1.7,0.9-3.5,0.9-5.4c0-1.5-0.3-3.1-1-4.6
			c-0.7-1.5-2-2.9-3.6-3.9l-1.7,2.7l3.1,0.9l0.1-0.3L25.4,96v3.3l37.6,0h0.3h0.7c2.9,0,5.4,0,7.6,0.3c2.2,0.3,4.2,0.8,6.1,1.8l0,0
			l0,0c2,1.1,3.4,2.3,4.2,3.7c0.9,1.3,1.3,2.8,1.3,4.7c0,1.2-0.2,2.6-0.7,4.2c-1,3.2-3.2,6.2-6.4,8.8c-3.2,2.6-7.3,4.6-11.6,6
			l-3.3,1.1l9.9,24.3l0,0.1c0.8,1.7,2.6,5.6,4.4,9.9l0.1,0.3l0.3,0.4l2.6,3.6l2.7-3.6c1.1-1.6,1.8-3.2,2.4-4.8
			c0.5-1.6,0.9-3.1,1.3-4.3l9.4-31.7c0.3-1.1,0.8-2.4,1.2-3.8c0.4-1.4,0.7-2.8,0.7-4.4c0-1.2-0.2-2.6-0.9-3.9
			c-0.7-1.3-1.8-2.5-3.1-3.3l-1.7,2.8l3.1,0.9l0.1-0.3l-3.1-0.9l0,3.3l35.1,0l-2.3,7.7l3.1,0.9l0-3.2l-0.3,0l0,3.3l3-1.2
			c-0.5-1.4-1.4-2.6-2.5-3.4c-1.6-1.2-3.4-1.7-5.1-2c-1.7-0.3-3.5-0.3-5.1-0.3c-0.9,0-1.7,0-2.5,0h0l-5.6,0l-6,20.2l13.7,0h0
			l-0.1-2.8l0,2.8h0.1l-0.1-2.8l0,2.8h0c0.8,0,1.6,0,2.4-0.1c0.8-0.1,1.6-0.2,2.5-0.5l-1-3.1v3.3h0.5v-3.3l-3.1-0.9l-3.5,11.8
			l3.1,0.9v-3.3h-0.5v3.3l3.2-0.4c-0.1-1.3-0.8-2.7-1.7-3.6c-1.4-1.4-3-1.8-4.4-2.1c-1.4-0.2-2.8-0.3-4.1-0.3c-0.6,0-1.2,0-1.8,0h0
			l-5.7,0l-6.3,21.2l2.9,1.1c3.7,1.3,7.6,1.5,11.2,1.5h0h0l-0.1-2.6v2.6h0.1l-0.1-2.6v2.6h0c2.9,0,6-0.2,9-1c3-0.8,6.1-2.1,8.9-4.4
			l-2-2.5v3.2h0.5v-3.2l-2.8-1.7l-6.8,11.2l-41.5,0l3,4.9c2.3,3.8,5.5,8.5,10.2,12.8c4.6,4.2,10.7,8,18.6,9.7
			c5.2,1.1,10.3,1.6,15.3,1.6c15.7,0,29.7-4.8,39.8-9.6c10.1-4.8,16.3-9.6,16.5-9.7l0,0l0,0l-0.4-0.5l0.4,0.6v0l-0.4-0.5l0.4,0.6
			l0.5-0.4l0.2-0.1l-0.8-1.8v2c0.7,0,0.8-0.2,0.8-0.1l-0.8-1.8v2v-2.9l-0.9,2.7c0.4,0.1,0.7,0.1,0.9,0.1v-2.9l-0.9,2.7l0.9-2.9
			l-2.1,2.2c0.3,0.3,0.8,0.6,1.1,0.7l0.9-2.9l-2.1,2.2l0,0l0,0L178.4,169.8z M61.6,117l-3.1-0.9c-0.7,2.6-2.7,5.2-5.4,7.3
			c-2.7,2.1-6.2,3.6-9.7,4.1l0.5,3.2l3.1,0.9l7.2-24.3l-3.1-0.9v3.2h1.3c1.2,0,2.3,0.1,3.2,0.2c0.9,0.2,1.5,0.4,1.8,0.7
			c0.5,0.4,0.8,0.8,1.1,1.4c0.2,0.5,0.4,1.2,0.4,2c0,0.7-0.1,1.4-0.3,2.2L61.6,117l3.1,0.9c0.4-1.3,0.6-2.7,0.6-4.1
			c0-1.6-0.3-3.2-1-4.7c-0.7-1.5-1.8-2.9-3.2-3.9c-1.4-1-3-1.5-4.5-1.8c-1.5-0.3-3-0.3-4.3-0.3h-1.3h-2.4l-9.4,31.5l5-0.7
			c4.7-0.7,9.1-2.6,12.7-5.4c3.6-2.8,6.4-6.4,7.7-10.6L61.6,117z"/>
		<path class="st1" d="M156.9,120.8l-11,37.1c1.6,0.5,3.4,0.7,5.2,0.7c6.3,0,10.8-1.6,15.4-6.2c3.9-3.9,6-8.5,7.4-12.9
			c2.6-8.7,2.1-19.1-10.2-19.1C161.4,120.2,159.1,120.5,156.9,120.8 M187.2,164.4l0.4-14.2c-3.2,4.3-7.5,8.1-12.6,11
			c-10.9,6.2-20.8,5.7-32,5.7l-22.5,0l0.1-0.3c5.7-2.6,6.4-7.4,7.7-11.8l7.7-26c0.9-2.9,3.1-10.6,3.4-13c0.1-1.7-0.8-3.6-2.4-4.3
			l0.1-0.3l21.2,0c10.8,0,21-0.4,28.4,4.9c7.4,5.3,9.3,14.1,6.6,23.2c-1,3.4-2.8,6.9-5.1,10.2c5.6,4.7,14.6,7.9,23.4,7.9
			c5.6,0,13.8-1.6,15.5-7.5c3.9-12.9-35.2-10.3-28.1-34.1c1.8-6,7-11.9,13.8-15.4c7.5-3.8,15.7-5.1,23.3-5.1c7,0,14.2,1.1,20.1,3.2
			l-3.7,12.4c-4.4-2.9-9.9-5-16.2-5c-4.9,0-11.4,1.8-12.9,6.8c-1.5,5.1,5.2,7.1,9.3,8.8c5.4,2.2,10.4,4.3,14.3,8
			c4.7,4.5,6.5,9.2,4.5,16c-2,6.9-7.3,13.1-15.1,17.2c-8.8,4.6-17.1,5.5-26,5.5C202.1,168.2,194.2,166.9,187.2,164.4"/>
		<path class="st0" d="M156.9,120.8l-3.1-0.9L141.8,160l3.1,0.9c2.1,0.6,4.2,0.8,6.2,0.8h0l0-1v1h0l0-1v1c3.4,0,6.6-0.4,9.5-1.6
			c3-1.2,5.6-3,8.2-5.6l0,0l0,0c4.3-4.4,6.7-9.5,8.2-14.3c0.8-2.8,1.4-5.8,1.4-8.8c0-3.5-0.8-7.2-3.3-10.1c-1.2-1.4-2.9-2.6-4.8-3.3
			c-1.9-0.8-4.1-1.1-6.6-1.1v3.2l0-3.2h-0.1c-2.4,0-4.9,0.3-7.2,0.6l-2.1,0.3l-0.6,2L156.9,120.8l0.5,3.2c2.2-0.3,4.3-0.6,6.3-0.6
			v-2.4l0,2.4h0v-2.4l0,2.4h0h0c1.8,0,3.2,0.3,4.3,0.7c1.5,0.6,2.3,1.4,3,2.6c0.6,1.2,1,2.8,1,4.7c0,2.1-0.4,4.6-1.1,6.9
			c-1.2,4.2-3.2,8.2-6.5,11.6l0,0l0,0c-2.1,2.1-4,3.4-6,4.1c-2,0.8-4.2,1.2-7.1,1.2h0l0,1v-1h0l0,1v-1c-1.6,0-3-0.2-4.2-0.5l-1,3.1
			l3.1,0.9l11-37.1L156.9,120.8l0.5,3.2L156.9,120.8z M187.2,164.4l3.2,0.1l0.6-24.2l-6.1,8c-3,3.9-6.9,7.5-11.6,10.1l0,0
			c-4.4,2.5-8.6,3.8-12.8,4.5c-4.2,0.7-8.6,0.8-13.3,0.8c-1.4,0-2.8,0-4.2,0l-22.5,0v3.2l3.1,0.9l0.1-0.2l-3.1-0.9l1.4,2.9
			c3.5-1.6,5.8-4.2,7-6.7c1.3-2.6,1.8-5.1,2.4-7.1l7.7-26c0.4-1.4,1.2-4.1,1.9-6.7c0.4-1.3,0.7-2.6,1-3.8c0.3-1.2,0.5-2.2,0.6-3.1
			v-0.1l0-0.1l0-0.4c0-1.4-0.4-2.8-1.1-4c-0.7-1.2-1.7-2.3-3.2-3l-1.4,2.9l3.1,0.9l0.1-0.3l-3.1-0.9v3.2l21.2,0h0.3
			c1.3,0,2.6,0,3.9,0c4.6,0,8.9,0.1,12.7,0.7c3.8,0.6,7,1.7,9.7,3.6c2.2,1.6,3.8,3.5,4.9,5.7c1,2.2,1.6,4.6,1.6,7.2
			c0,2.1-0.3,4.4-1,6.7c-0.9,3-2.5,6.2-4.6,9.2l-1.8,2.5l2.3,1.9c6.4,5.2,15.9,8.6,25.4,8.6h0l0-1.4v1.4h0l0-1.4v1.4
			c3.1,0,6.9-0.4,10.4-1.8c1.7-0.7,3.4-1.6,4.9-2.9c1.5-1.3,2.7-3.1,3.3-5.2c0.3-0.9,0.4-1.8,0.4-2.7c0-2.1-0.8-4-2-5.4
			c-1-1.3-2.3-2.2-3.6-3.1c-2.3-1.5-5-2.7-7.8-3.9c-4.1-1.8-8.4-3.7-11.3-6c-1.5-1.2-2.6-2.4-3.4-3.8c-0.8-1.4-1.2-2.9-1.2-4.8
			c0-1.3,0.2-2.8,0.7-4.5c1.4-5,6.1-10.3,12.2-13.4l0,0l0,0c6.9-3.5,14.5-4.7,21.8-4.7h0h0c6.7,0,13.6,1,19,3l1.1-3.1l-3.1-0.9
			l-3.7,12.4l3.1,0.9l1.8-2.7c-4.8-3.1-11-5.5-18-5.5v3.3l0.1-3.3h-0.1c-2.8,0-6.1,0.5-9.1,1.8c-1.5,0.7-2.9,1.5-4.2,2.7
			c-1.2,1.2-2.3,2.7-2.8,4.6c-0.2,0.8-0.3,1.6-0.3,2.4c0,1.8,0.7,3.5,1.7,4.7c1.4,1.8,3.3,2.9,5,3.7c1.8,0.9,3.5,1.5,4.8,2l0,0v0
			c5.4,2.2,10,4.2,13.3,7.3c1.5,1.4,2.6,2.8,3.3,4.2c0.7,1.4,1,2.7,1,4.4c0,1.2-0.2,2.6-0.7,4.2c-1.8,5.9-6.3,11.4-13.5,15.2l0,0
			c-8.1,4.2-15.7,5.1-24.3,5.1h-0.1h0c-7.9,0-15.5-1.2-22.1-3.6L187.2,164.4l3.2,0.1L187.2,164.4l-1.1,3.1c7.4,2.7,15.7,4,24.3,4h0
			h0.1c9.1,0,18-1,27.3-5.9l0,0c8.5-4.5,14.4-11.3,16.7-19.1c0.6-2.1,0.9-4.1,0.9-6c0-2.6-0.6-5.1-1.7-7.3c-1.1-2.2-2.7-4.2-4.6-6
			c-4.5-4.3-10-6.4-15.3-8.6l0,0c-2-0.8-4.2-1.6-5.7-2.5c-0.7-0.4-1.3-0.9-1.5-1.2c-0.2-0.3-0.3-0.4-0.3-0.6l0.1-0.5
			c0.2-0.7,0.5-1.2,1.1-1.8c0.8-0.8,2.2-1.5,3.8-2c1.6-0.5,3.4-0.7,4.9-0.7v-2.9l-0.1,2.9h0.1v-2.9l-0.1,2.9h0h0
			c5.5,0,10.4,1.9,14.4,4.5l3.6,2.4l5.8-19.5l-2.9-1c-6.4-2.3-13.9-3.4-21.2-3.4v3.3l0-3.3H236c-8,0-16.6,1.3-24.8,5.4l0,0
			c-7.5,3.9-13.3,10.2-15.5,17.3c-0.7,2.2-1,4.4-1,6.3c0,2.6,0.6,5,1.6,7.1c1.8,3.6,4.7,6.2,7.9,8.3c4.8,3,10.2,5,14.2,7
			c2,1,3.6,1.9,4.5,2.8c0.4,0.4,0.7,0.8,0.9,1.1c0.1,0.3,0.2,0.5,0.2,0.8c0,0.2,0,0.5-0.1,0.8c-0.3,0.9-0.7,1.5-1.4,2.2
			c-1.1,1-2.8,1.8-4.8,2.3c-2,0.5-4.2,0.7-6.1,0.7h0l0,1.4v-1.4h0l0,1.4v-1.4c-8,0-16.4-3-21.3-7.1l-2.1,2.5l2.6,1.9
			c2.6-3.5,4.5-7.3,5.6-11.1c0.9-2.9,1.3-5.8,1.3-8.6c0-3.5-0.7-7-2.2-10.1c-1.5-3.1-3.8-5.9-6.9-8.1c-3.8-2.7-8.1-4.1-12.5-4.8
			c-4.4-0.7-9-0.8-13.7-0.8c-1.3,0-2.6,0-3.9,0h-0.3l-23.6,0l-1.6,5.2l2.5,1.2c0.1,0,0.2,0.2,0.4,0.4l0.2,0.7l0,0.1l3.3,0.2
			l-3.2-0.3c0,0.3-0.2,1.2-0.4,2.2c-0.7,3.2-2.2,8-2.8,10.2l-7.7,26c-0.7,2.4-1.2,4.5-2,6c-0.8,1.6-1.8,2.7-4,3.8l-1.3,0.6l-1.7,5.8
			l26.8,0c1.4,0,2.8,0,4.2,0c4.8,0,9.5-0.1,14.4-0.9c4.9-0.8,9.8-2.4,14.9-5.3l0,0l0,0c5.5-3.1,10.1-7.2,13.6-11.8l-2.6-2l-3.2-0.1
			l-0.4,16.5l2.2,0.8L187.2,164.4z"/>
		<path class="st1" d="M178.4,169.8c-0.4-0.4-2.1,1-2.1,1s-32.5,25-68.9,17.1c-14.4-3.1-22.2-13.6-26.6-20.9l37.6,0l7.8-12.8h-0.5
			c-5,3.9-10.4,4.6-16,4.6c-3.5,0-7.2-0.2-10.1-1.3l4.7-15.9l3.3,0c3.7,0,8.4-0.3,8.8,3.1h0.5l3.5-11.9h-0.5c-1,0.3-2.4,0.4-3.8,0.4
			l-9.3,0l4.1-13.7l3.2,0c4.9,0,10.7-0.4,12.2,3.6l0.3,0l3.5-11.9l-39.5,0l-0.1,0.3c4.1,2.5,2,7.4,0.7,11.8l-9.4,31.6
			c-0.7,2.5-1.5,5.9-3.1,8.1l-0.1-0.1c-1.8-4.4-3.6-8.3-4.4-10l-8.6-20.9c9.3-3,17.8-8.9,20.2-17c2.1-7.2,0-12.9-6.5-16.4
			C74.4,95.9,69.3,96,63,96l-37.6,0l-0.1,0.3c5.2,3.3,2.5,9.5,0.9,15.1l-11.9,40c-1.7,5.6-2.6,11.7-9.8,15.1l-0.1,0.3l34.2,0
			l0.1-0.3c-5.2-3.3-2.5-9.5-0.9-15.1l4.4-15c0,0,6.1,20.4,13.2,35.6c5.7,12.2,15.3,31.3,46,33.3c41.4,2.8,71.9-28.6,76-33.5
			C177.4,171.9,178.8,170.2,178.4,169.8 M61.6,117c-2,6.8-9.6,12.5-17.8,13.7l7.2-24.3h1.3c2.5,0,5.2,0.2,6.9,1.5
			C62.1,109.9,62.6,113.5,61.6,117"/>
		<path class="st1" d="M156.9,120.8l-11,37.1c1.6,0.5,3.4,0.7,5.2,0.7c6.3,0,10.8-1.6,15.4-6.2c3.9-3.9,6-8.5,7.4-12.9
			c2.6-8.7,2.1-19.1-10.2-19.1C161.4,120.2,159.1,120.5,156.9,120.8 M187.2,164.4l0.4-14.2c-3.2,4.3-7.5,8.1-12.6,11
			c-10.9,6.2-20.8,5.7-32,5.7l-22.5,0l0.1-0.3c5.7-2.6,6.4-7.4,7.7-11.8l7.7-26c0.9-2.9,3.1-10.6,3.4-13c0.1-1.7-0.8-3.6-2.4-4.3
			l0.1-0.3l21.2,0c10.8,0,21-0.4,28.4,4.9c7.4,5.3,9.3,14.1,6.6,23.2c-1,3.4-2.8,6.9-5.1,10.2c5.6,4.7,14.6,7.9,23.4,7.9
			c5.6,0,13.8-1.6,15.5-7.5c3.9-12.9-35.2-10.3-28.1-34.1c1.8-6,7-11.9,13.8-15.4c7.5-3.8,15.7-5.1,23.3-5.1c7,0,14.2,1.1,20.1,3.2
			l-3.7,12.4c-4.4-2.9-9.9-5-16.2-5c-4.9,0-11.4,1.8-12.9,6.8c-1.5,5.1,5.2,7.1,9.3,8.8c5.4,2.2,10.4,4.3,14.3,8
			c4.7,4.5,6.5,9.2,4.5,16c-2,6.9-7.3,13.1-15.1,17.2c-8.8,4.6-17.1,5.5-26,5.5C202.1,168.2,194.2,166.9,187.2,164.4"/>
	</g>
</g>
</svg>
