<?xml version="1.0" encoding="UTF-8" standalone="no"?>
<!-- Created with Inkscape (http://www.inkscape.org/) -->

<svg
   xmlns:dc="http://purl.org/dc/elements/1.1/"
   xmlns:cc="http://creativecommons.org/ns#"
   xmlns:rdf="http://www.w3.org/1999/02/22-rdf-syntax-ns#"
   xmlns:svg="http://www.w3.org/2000/svg"
   xmlns="http://www.w3.org/2000/svg"
   xmlns:sodipodi="http://sodipodi.sourceforge.net/DTD/sodipodi-0.dtd"
   xmlns:inkscape="http://www.inkscape.org/namespaces/inkscape"
   width="253"
   height="163"
   viewBox="0 0 253 163"
   id="svg19731"
   version="1.1"
   inkscape:version="0.91 r13725"
   sodipodi:docname="waratahsCR.svg">
  <defs
     id="defs19733"><clipPath
   id="clipPath20533"
   clipPathUnits="userSpaceOnUse">
  <path
     inkscape:connector-curvature="0"
     id="path20535"
     d="m 482.421,24.406 90.941,0 0,57.652 -90.941,0 0,-57.652 z" />
</clipPath>

	
	

		
		
	
		
		
		
		
		
		
		
		
	</defs>
  <sodipodi:namedview
     id="base"
     pagecolor="#ffffff"
     bordercolor="#666666"
     borderopacity="1.0"
     inkscape:pageopacity="0.0"
     inkscape:pageshadow="2"
     inkscape:zoom="3.3312883"
     inkscape:cx="126.5"
     inkscape:cy="81.5"
     inkscape:document-units="px"
     inkscape:current-layer="layer1"
     showgrid="false"
     units="px"
     inkscape:window-width="1280"
     inkscape:window-height="744"
     inkscape:window-x="-4"
     inkscape:window-y="-4"
     inkscape:window-maximized="1" />
  <metadata
     id="metadata19736">
    <rdf:RDF>
      <cc:Work
         rdf:about="">
        <dc:format>image/svg+xml</dc:format>
        <dc:type
           rdf:resource="http://purl.org/dc/dcmitype/StillImage" />
        <dc:title></dc:title>
      </cc:Work>
    </rdf:RDF>
  </metadata>
  <g
     inkscape:label="Layer 1"
     inkscape:groupmode="layer"
     id="layer1"
     transform="translate(0,-889.36216)">
    <g
       id="g21102"
       style="fill:#0e1d3d;fill-opacity:1"
       transform="translate(-80.629081,313.86255)">
      <polygon
         transform="translate(76.385659,534.70072)"
         style="fill:#0e1d3d;fill-opacity:1"
         points="140.938,179.363 142.613,171.422 169.727,171.422 168.061,179.363 159.338,179.363 154.504,202.391 144.814,202.391 149.66,179.363 "
         id="polygon20264" />
      <path
         style="fill:#0e1d3d;fill-opacity:1"
         inkscape:connector-curvature="0"
         d="m 323.90566,715.49772 c 0.039,-1.256 -0.396,-2.039 -1.1,-2.568 -0.713,-0.516 -1.721,-0.682 -2.826,-0.682 -1.627,0 -3.744,0.477 -3.744,2.51 0,2.344 4.717,2.477 7.793,3.551 5.459,1.916 7.318,4.859 7.318,8.551 0,7.457 -7.361,10.967 -14.18,10.967 -7.219,0 -13.74,-3.248 -13.334,-11.143 l 9.369,0 c 0,1.693 0.398,2.734 1.188,3.518 0.84,0.695 1.982,0.781 3.566,0.781 1.893,0 4.23,-0.953 4.23,-2.994 0,-2.256 -3.219,-2.557 -7.57,-3.992 -3.834,-1.248 -7.529,-3.252 -7.529,-8.408 0,-6.984 6.869,-10.195 13.207,-10.195 6.684,0 12.717,2.477 12.539,10.105 l -8.927,0 z"
         id="path20266" />
      <path
         style="fill:#0e1d3d;fill-opacity:1"
         inkscape:connector-curvature="0"
         d="m 119.51666,706.12672 -7.441,18.004 -0.088,0 0,-18.004 -8.449,0 -7.528001,18.004 -0.091,0 0,-18.004 -7.576,0 -6.922,0 c 2.676,0 4.897,2.377 5.402,5.523 l 1.883,25.441 9.327,0 6.824001,-16.045 0.088,0 0,16.045 9.336,0 15.093,-30.965 -9.858,0 z"
         id="path20268" />
      <path
         style="fill:#0e1d3d;fill-opacity:1"
         inkscape:connector-curvature="0"
         d="m 147.64666,706.12672 -9.5,0 -6.759,0 c 2.567,0 4.8,2.898 3.36,5.77 l -14.793,25.195 9.867,0 2.417,-4.418 10.255,0 0.532,4.418 9.506,0 -4.885,-30.965 z m -11.883,19.914 4.885,-9.285 0.085,0 1.054,9.285 -6.024,0 z"
         id="path20270" />
      <path
         style="fill:#0e1d3d;fill-opacity:1"
         inkscape:connector-curvature="0"
         d="m 211.25566,706.12672 -9.362,0 -6.76,0 c 2.35,0 4.42,2.432 3.648,5.043 l -15.213,25.922 9.855,0 2.423,-4.418 10.259,0 0.528,4.418 9.506,0 -4.884,-30.965 z m -11.883,19.914 4.882,-9.285 0.084,0 1.058,9.285 -6.024,0 z"
         id="path20272" />
      <path
         style="fill:#0e1d3d;fill-opacity:1"
         inkscape:connector-curvature="0"
         d="m 263.90666,706.12672 -9.395,0 -6.762,0 c 2.389,0 4.475,2.502 3.625,5.146 l -15.164,25.818 9.861,0 2.424,-4.418 10.26,0 0.521,4.418 9.512,0 -4.882,-30.964 z m -11.888,19.914 4.887,-9.285 0.088,0 1.057,9.285 -6.032,0 z"
         id="path20274" />
      <path
         style="fill:#0e1d3d;fill-opacity:1"
         inkscape:connector-curvature="0"
         d="m 186.73166,714.24172 c 0,-6.553 -4.445,-8.119 -10.252,-8.119 l -15.928,0 -5.972,0 c 2.576,0 4.674,2.574 4.753,5.779 l -5.302,25.189 9.509,0 2.289,-10.795 4.177,0 c 2.691,0 3.928,1.209 3.928,2.818 0,1.555 -0.488,3.471 -0.488,4.947 0,1.381 0.042,2.248 0.391,3.029 l 9.245,0 c -0.794,-1.822 -0.441,-4.988 -0.441,-7.891 0,-2.904 -0.393,-5.551 -3.251,-6.326 l 0,-0.096 c 4.528,-0.734 7.342,-4.027 7.342,-8.535 m -14.388,5.42 -5.108,0 1.319,-6.16 5.241,0 c 2.508,0 3.254,1.469 3.254,2.691 -10e-4,1.863 -1.496,3.469 -4.706,3.469"
         id="path20276" />
      <path
         style="fill:#0e1d3d;fill-opacity:1"
         inkscape:connector-curvature="0"
         d="m 295.50666,706.12672 -2.285,10.76 -8.852,0 2.295,-10.76 -9.662,0 -5.982,0 c 2.561,0 4.641,2.529 4.75,5.691 l -5.354,25.273 9.689,0 2.592,-12.27 8.852,0 -2.604,12.27 9.68,0 6.566,-30.965 -9.685,0 z"
         id="path20278" />
    </g>
    <path
       id="path20284"
       d="m 156.76458,924.72827 c 1.102,3.705 1.896,7.588 2.322,11.601 4.578,-4.115 11.469,-2.764 12.814,3.725 0.176,-2.106 0.186,-5.27 -0.549,-11.68 -2.765,-11.315 -12.115,-11.377 -14.587,-3.646 m 4.023,-9.08 c 3.973,-1.275 8.619,0.755 10.416,5.719 0.039,-0.203 0.09,-0.394 0.148,-0.584 -0.303,-7.812 -1.49,-14.109 -4.078,-17.464 -4.016,-5.197 -10.455,-1.158 -8.582,6.119 0.67,2.597 1.456,4.706 2.096,6.21 m 14.254,21.407 c 4.109,-4.694 9.377,-4.284 11.662,0.288 0.205,-4.68 0.061,-9.535 -1.766,-14.044 -3.131,-7.75 -10.988,-5.432 -10.24,3.14 0.332,3.674 0.538,6.978 0.344,10.616 m -97.090001,0 c -0.186,-3.637 0.023,-6.942 0.352,-10.617 0.755,-8.572 -7.1,-10.89 -10.234,-3.14 -1.818,4.509 -1.975,9.365 -1.766,14.044 2.286,-4.571 7.541,-4.982 11.648,-0.287 m 17.443,0.927 c 0.203,-3.536 0.673,-7 1.413,-10.331 -0.837,-10.525 -12.077,-11.874 -15.158,0.713 -0.729,6.419 -0.725,9.586 -0.546,11.689 1.509,-7.243 9.926,-8.081 14.291,-2.071 m -3.176,-22.334 c 0.641,-1.504 1.422,-3.613 2.089,-6.21 1.871,-7.276 -4.563,-11.316 -8.578,-6.119 -2.582,3.354 -3.769,9.652 -4.069,17.464 0.062,0.191 0.103,0.382 0.147,0.582 1.787,-4.962 6.437,-6.992 10.411,-5.717 m 19.636001,-14.864 c 0.658,-0.534 1.325,-1.031 1.992,-1.486 l 0.981,-0.623 c 0.461,-0.276 0.926,-0.529 1.393,-0.767 2.071,-6.122 -4.924,-9.812 -9.195,-6.807 -4.001,2.817 -6.516,7.776 -8.895001,13.674 0.003,0.109 0.012,0.221 0.021,0.335 3.864001,-4.699 8.697001,-6.018 13.703001,-4.326 m -4.798,4.929 c 0.35,-0.441 0.702,-0.84 1.061,-1.257 -3.354,-0.576 -8.504001,1.328 -11.427001,7.203 -0.799,2.673 -1.239,4.523 -1.445,5.778 1.298,1.202 2.333,2.935 2.906,5.182 1.993001,-6.41 5.007001,-12.185 8.905001,-16.906 m 38.454,-1.33 c 0.107,0.123 0.219,0.231 0.326,0.343 4.049,4.451 7.291,9.95 9.623,16.122 0.578,-1.401 1.369,-2.538 2.303,-3.411 -0.209,-1.254 -0.639,-3.105 -1.459,-5.778 -2.738,-5.529 -7.459,-7.532 -10.793,-7.276 m -7.777,-6.263 c 0,0 1.008,0.555 1.023,0.564 0.951,0.579 1.883,1.251 2.795,1.965 4.861,-1.486 9.551,-0.108 13.303,4.465 0.004,-0.117 0.02,-0.229 0.031,-0.338 -2.381,-5.898 -4.904,-10.857 -8.902,-13.674 -4.209,-2.952 -11.045,0.546 -9.322,6.492 0.363,0.173 0.704,0.32 1.072,0.526 m 62.396,48.62 c 1.207,-12.438 -8.213,-9.982 -11.449,1.428 -6.277,22.12 -12.326,27.34 -36.426,36.085 27.17,-12.541 29.869,-21.894 33.271,-36.026 l -0.084,-0.012 c 2.691,-15.458 -9.352,-10.784 -11.73,-1.151 -2.359,9.624 -5.178,18.263 -16.998,25.913 7.041,-7.045 9.707,-8.843 13.789,-26.048 0.967,-10.044 -6.873,-10.429 -11.074,-5.743 0.008,0.232 0.02,0.458 0.02,0.679 0.527,20.76 -8.512,39.497 -22.48,46.625 l 0,-0.033 c 11.338,-7.641 17.891,-26.194 17.396,-46.099 -0.402,-16.163 -5.814,-31.062 -14.461,-39.834 -1.242,-1.16 -5.162,-5.267 -12.67,-6.283 2.636,2.221 5.59,19.282 6.321,40.958 0.57,-0.159 1.184,-0.385 1.836,-0.699 0,0 2.145,0.502 0.645,1.716 0,0 -2.709,2.42 -7.791,0.652 0,0 -1.455,-1.122 0.255,-1.865 0,0 0.758,0.467 2.132,0.559 -0.443,-21.13 -1.413,-38.024 -3.771,-41.341 -7.605,1.366 -12.79,5.737 -13.974,6.965 -8.21,9.198 -12.873,24.344 -12.47,40.518 0.491,19.896 7.958,38.119 19.652,45.189 l 0.035,0.018 c -14.206,-6.387 -24.114001,-24.412 -24.772001,-44.959 -3.079,-7.309 -13.951,-8.746 -12.819,2.955 4.083,17.229 6.739,19.027 13.774,26.072 -11.821,-7.65 -14.624,-16.289 -16.991,-25.913 -2.365,-9.632 -14.415,-14.306 -11.718,1.151 l -0.094,0.012 c 3.396,14.133 6.089,23.486 33.273001,36.026 -24.103001,-8.745 -30.166001,-13.965 -36.429001,-36.085 -3.231,-11.41 -12.652,-13.866 -11.448,-1.428 1.031,10.528 5.937,43.079 52.997001,45.882 -8.458001,0.494 -15.904001,-0.273 -22.396001,-1.98 l -0.919,0.035 c -0.103,0.016 -9.418,0.564 -18.472,8.684 5.223,-2.389 13.437,-2.896 24.555,-3.287 l 0.041,0.016 c -9.585,0.967 -21.474,3.95103 -26.573,7.86303 8.36,3.572 47.439001,8.42 63.070001,-9.65803 3.21,1.119 6.415,0 6.415,0 16.613,18.77303 52.035,13.23003 60.404,9.65803 -5.098,-3.912 -17,-6.89603 -26.566,-7.86303 l 0,-0.016 c 11.113,0.391 19.359,0.898 24.586,3.287 -9.066,-8.119 -18.375,-8.668 -18.479,-8.684 l -1.576,-0.055 c -6.678,1.838 -14.068,2.502 -22.832,2 47.052,-2.805 51.968,-35.356 52.995,-45.884 m -71.463,-4.959 c 0,0 0.717,0.44 2.06,0.543 0,-0.121 0,-0.244 0,-0.376 -0.012,-0.237 -0.021,-0.467 -0.023,-0.699 1.171,0.147 2.158,0.062 2.957,-0.127 0,0.294 0.01,0.576 0.027,0.855 0.57,-0.167 1.201,-0.385 1.877,-0.705 0,0 2.133,0.502 0.629,1.718 0,0 -2.707,2.415 -7.796,0.655 -0.002,10e-4 -1.447,-1.133 0.269,-1.864 m -0.45,47.409 c -0.118,0.018 -0.22,-0.006 -0.334,-0.053 2.43,-1.504 3.107,-17.366 2.949,-37.968 1.117,0.162 2.076,0.118 2.863,-0.026 -0.276,21.462 -2.852,37.801 -5.478,38.047 m 8.157,-41.017 c 0,0 -2.715,2.412 -7.787,0.655 0,0 -1.458,-1.131 0.255,-1.872 0,0 0.685,0.435 1.944,0.541 -0.002,-0.491 -0.008,-0.978 -0.008,-1.483 1.15,0.159 2.14,0.085 2.941,-0.08 l 0,1.275 c 0.627,-0.183 1.289,-0.415 2.023,-0.755 0.001,0.001 2.136,0.503 0.632,1.719"
       inkscape:connector-curvature="0"
       style="fill:#d41042;fill-opacity:1" />
  </g>
</svg>
